<svg width="154" height="50" viewBox="0 0 154 50" fill="none" xmlns="http://www.w3.org/2000/svg">
<path opacity="0.6" fill-rule="evenodd" clip-rule="evenodd" d="M17.726 7.9012V7.90125H17.7259V12.6961C17.7259 15.2026 17.7259 17.3552 17.591 18.4993C17.4831 19.2896 17.3481 19.8889 16.8083 19.998C16.5653 20.0524 16.2414 20.1068 15.8366 20.1068C15.5127 20.1068 15.4046 20.1887 15.4046 20.3248C15.4046 20.5155 15.5937 20.5972 15.9446 20.5972C16.2051 20.5972 16.5033 20.5846 16.8119 20.5715H16.8119C17.1428 20.5574 17.4857 20.5428 17.8069 20.5428C18.4546 20.5155 19.0484 20.5155 19.3454 20.5155C19.7503 20.5155 20.56 20.5428 21.3697 20.5972C21.7352 20.61 22.1007 20.6287 22.4194 20.645H22.4195C22.7835 20.6636 23.0865 20.6791 23.2591 20.6791C28.2255 20.6791 30.4658 17.6552 30.4658 14.7398C30.4658 11.5522 27.7669 9.61745 25.5535 8.85486C27.038 7.65586 28.3067 6.32103 28.3067 4.087C28.3067 2.64292 27.4429 0.000316234 22.5575 0.000316234C22.1395 0.000172171 21.6934 0.0170916 21.2066 0.0355575C20.6247 0.0576265 19.9846 0.0819045 19.2646 0.0819045C19.0592 0.0819045 18.6857 0.0700443 18.223 0.0553502C17.4697 0.0314299 16.48 0 15.5938 0C15.1889 0.000316234 15 0.0547084 15 0.245397C15 0.436086 15.162 0.490636 15.4588 0.490636C15.8366 0.490636 16.2956 0.517991 16.5114 0.572383C17.4021 0.763072 17.618 1.19916 17.672 2.12525C17.726 2.9971 17.726 3.76001 17.726 7.9012ZM20.9651 8.36453C20.9651 8.58258 21.0461 8.63697 21.154 8.66417C21.397 8.71887 21.8017 8.74591 22.4227 8.74591C23.3133 8.74591 23.9072 8.63713 24.3658 8.2284C25.0676 7.65617 25.4724 6.67553 25.4724 5.34055C25.4724 3.51494 24.4199 1.11741 22.0986 1.11741C21.7208 1.11741 21.4778 1.11741 21.2079 1.17196C21.0188 1.22651 20.9649 1.33545 20.9649 1.63509V8.36453H20.9651ZM24.5278 10.5442C23.9611 10.1354 23.3401 9.9446 22.2875 9.89005C21.8016 9.86285 21.5318 9.86285 21.1269 9.86285C21.019 9.86285 20.9651 9.9174 20.9651 10.0535V16.5106C20.9651 18.3088 21.0461 18.7721 21.9097 19.1261C22.6384 19.4259 23.2591 19.4531 23.8799 19.4531C25.0947 19.4531 27.1459 18.799 27.1459 15.9655C27.1459 14.2764 26.5791 11.9879 24.5278 10.5442ZM34.1085 9.78126C34.1085 8.70052 34.1111 7.89028 34.113 7.26496C34.1175 5.85672 34.119 5.38644 34.0815 4.87695C34.0275 4.05965 33.8117 3.84176 33.0559 3.62372C32.867 3.56901 32.4621 3.54197 32.1383 3.54197C31.8683 3.54197 31.7335 3.46007 31.7335 3.29673C31.7335 3.13324 31.8953 3.07869 32.2462 3.07869C32.9737 3.07869 33.8079 3.09663 34.5193 3.11194C35.0484 3.12332 35.5097 3.13324 35.8089 3.13324C36.0781 3.13324 36.5526 3.12203 37.0714 3.10977C37.6969 3.09499 38.3869 3.07869 38.859 3.07869C39.2099 3.07869 39.3717 3.13324 39.3717 3.29673C39.3717 3.46007 39.2368 3.54197 38.994 3.54197C38.7362 3.54197 38.6015 3.56677 38.3316 3.61651L38.2924 3.62372C37.6715 3.73266 37.4826 4.05965 37.4284 4.87695C37.3745 5.61251 37.3745 6.26664 37.3745 9.78126V13.0234C37.3745 16.4018 38.0222 17.7096 39.1828 18.6358C40.2354 19.4806 41.3692 19.562 42.179 19.562C43.2045 19.562 44.4192 19.2624 45.3638 18.336C46.6863 17.0828 46.7403 15.0666 46.7403 12.6963V9.78126C46.7403 6.34097 46.7145 5.64161 46.688 4.92355V4.92353L46.6863 4.87695C46.6322 4.087 46.4433 3.84176 45.6877 3.62372C45.4988 3.56901 45.0939 3.54197 44.8238 3.54197C44.5539 3.54197 44.419 3.46007 44.419 3.29673C44.419 3.13324 44.581 3.07869 44.905 3.07869C45.9621 3.07869 47.3055 3.12001 47.6538 3.13073C47.7057 3.13233 47.7354 3.13324 47.7389 3.13324C47.834 3.13324 48.0927 3.12649 48.4281 3.11774C49.0459 3.10161 49.9243 3.07869 50.519 3.07869C50.843 3.07869 51.0051 3.13324 51.0051 3.29673C51.0051 3.46007 50.87 3.54197 50.6002 3.54197C50.3423 3.54197 50.2076 3.56679 49.9374 3.61655L49.8984 3.62372C49.2505 3.73266 49.0889 4.05965 49.0347 4.87695L49.0328 4.92823V4.92827C49.0065 5.64454 48.9806 6.34852 48.9806 9.78126V12.2605C48.9806 14.8487 48.7108 17.5734 46.7134 19.2352C45.0398 20.6519 43.2315 20.897 41.693 20.897C40.4513 20.897 37.9953 20.8426 36.2679 19.317C35.0532 18.2543 34.1084 16.5381 34.1084 13.1869V9.78126H34.1085ZM52.7587 19.5075C52.7587 20.025 52.8395 20.1343 53.2175 20.2976C54.243 20.761 55.7008 20.8969 57.077 20.8967C58.3455 20.8967 59.911 20.7609 61.0446 19.9434C62.7719 18.7175 63.4199 17.3277 63.4199 15.6115C63.4199 13.5136 62.4482 11.7427 59.3173 9.99883L58.3455 9.45412C56.2132 8.25528 55.8355 7.43813 55.8355 6.40262C55.8355 4.8224 57.3741 3.92351 59.0743 3.92351C60.6132 3.92351 61.3687 4.57732 61.7196 5.01309C62.2324 5.61251 62.3405 6.32088 62.3405 6.53892C62.3405 6.81135 62.4213 6.94749 62.5833 6.94749C62.7722 6.94749 62.8803 6.70241 62.8803 6.21209C62.8803 4.91318 62.9213 4.20748 62.9448 3.80044V3.80038V3.80033C62.9544 3.63538 62.9611 3.51948 62.9611 3.43303C62.9611 3.26938 62.8534 3.18763 62.6374 3.13324C62.0167 2.96991 60.8019 2.75186 59.2634 2.75186C55.9706 2.75186 53.2715 4.57732 53.2715 7.41077C53.2715 9.45396 54.1892 11.0071 56.9962 12.6689L58.3727 13.4864C60.4779 14.7398 60.721 15.7478 60.721 16.7559C60.721 18.3906 59.4794 19.6983 57.4282 19.6983C55.9436 19.6983 54.1623 19.126 53.6494 17.4096C53.5143 17.0009 53.4333 16.5106 53.4333 16.2109C53.4333 16.0474 53.4064 15.8294 53.1904 15.8294C53.0014 15.8294 52.8934 16.0748 52.8934 16.429L52.8887 16.4952C52.8558 16.9567 52.7587 18.3178 52.7587 19.5075ZM67.4143 9.78126C67.4143 6.26664 67.4143 5.61267 67.3876 4.87695C67.3335 4.087 67.0906 3.81441 66.5777 3.65092C66.3079 3.56901 66.0108 3.54213 65.7139 3.54213C65.4712 3.54213 65.336 3.48758 65.336 3.26954C65.336 3.1334 65.5249 3.07885 65.9029 3.07885C66.3791 3.07885 67.0636 3.09444 67.7007 3.10896C68.2552 3.12159 68.7737 3.1334 69.0878 3.1334C69.3526 3.1334 69.8051 3.12256 70.3066 3.11054C70.9301 3.0956 71.6293 3.07885 72.1379 3.07885C72.4347 3.07885 72.6238 3.1334 72.6238 3.26954C72.6238 3.48758 72.4889 3.54213 72.2458 3.54213C72.0031 3.54213 71.8141 3.56917 71.5442 3.62388C70.8964 3.73282 70.7075 4.05981 70.6534 4.87711C70.5995 5.61267 70.5995 6.2668 70.5995 9.78142V13.8681C70.5995 16.1021 70.5995 17.9549 70.7073 18.9359C70.7883 19.5624 70.9504 19.9165 71.652 20.0255C71.9757 20.0802 72.5157 20.1074 72.8666 20.1074C73.1365 20.1074 73.2444 20.2435 73.2444 20.3528C73.2444 20.5161 73.0555 20.5979 72.7855 20.5979C71.8329 20.5979 70.8603 20.5676 70.0988 20.5439H70.0986C69.6088 20.5287 69.2063 20.5161 68.9528 20.5161C68.7204 20.5161 68.2881 20.5313 67.7956 20.5485H67.7955H67.7954H67.7952H67.7951H67.795C67.1435 20.5714 66.3868 20.5979 65.8489 20.5979C65.5519 20.5979 65.3901 20.5161 65.3901 20.3528C65.3901 20.2437 65.471 20.1074 65.7678 20.1074C66.1187 20.1074 66.3886 20.0802 66.6045 20.0255C67.0904 19.9167 67.2254 19.5897 67.3063 18.9087C67.414 17.9551 67.414 16.1023 67.414 13.8683V9.78126H67.4143ZM79.56 19.9436C79.1013 19.7799 78.8042 19.2351 78.7504 17.437L78.4802 7.98268H78.561C78.7271 8.13051 79.1617 8.59221 79.7715 9.24004L79.7719 9.24051C80.8476 10.3832 82.468 12.1048 84.1215 13.7043C86.6043 16.1292 89.5733 18.9898 91.0579 20.3792C91.301 20.6246 91.6249 20.8698 92.0296 20.8698C92.2187 20.8698 92.4076 20.6518 92.4076 20.1343L92.6775 5.53092C92.7045 4.22314 92.8934 3.81441 93.5412 3.62372C93.8382 3.54197 94.027 3.54197 94.2701 3.54197C94.54 3.54197 94.6748 3.43287 94.6748 3.29673C94.6748 3.10589 94.4591 3.07869 94.1352 3.07869C93.3521 3.07869 92.692 3.10352 92.2625 3.11968C92.0553 3.12747 91.9019 3.13324 91.8141 3.13324C91.6134 3.13324 91.2971 3.12489 90.9119 3.11473L90.9118 3.11472C90.3125 3.09891 89.5468 3.07869 88.7909 3.07869C88.44 3.07869 88.1971 3.10605 88.1971 3.29673C88.1971 3.43303 88.2782 3.54197 88.575 3.54197C88.8988 3.54197 89.466 3.54197 89.8169 3.67811C90.3835 3.896 90.5995 4.30473 90.6261 5.72146L90.8694 16.0202H90.7614C90.605 15.8746 89.891 15.1443 89.0041 14.2371L89.0026 14.2356L89.0007 14.2337L88.9983 14.2313V14.2312L88.9977 14.2306C87.8958 13.1036 86.529 11.7057 85.633 10.8165C82.7197 7.94441 79.7294 4.87873 78.6857 3.80873C78.4918 3.60992 78.3651 3.48001 78.3185 3.43303L78.2257 3.33897C77.8636 2.97144 77.5668 2.67012 77.293 2.67012C77.0499 2.67012 76.8881 2.9971 76.8881 3.46023L76.672 17.1917C76.6452 19.2079 76.5641 19.8346 75.9435 19.9981C75.6192 20.0797 75.1876 20.1069 74.8636 20.1069C74.6478 20.1069 74.4858 20.2162 74.4858 20.3523C74.4858 20.5704 74.7017 20.5974 75.0256 20.5974C75.88 20.5974 76.6943 20.5569 77.1773 20.533C77.381 20.5228 77.5256 20.5157 77.5897 20.5157C77.7391 20.5157 77.9696 20.5255 78.271 20.5383C78.8398 20.5625 79.6612 20.5974 80.6667 20.5974C80.9906 20.5974 81.2065 20.543 81.2065 20.3523C81.2065 20.216 81.0715 20.1069 80.8017 20.1069C80.4238 20.1069 79.965 20.0797 79.56 19.9436ZM98.8309 9.78126C98.8309 6.26664 98.8309 5.61267 98.8036 4.87695C98.7497 4.087 98.5339 3.84176 97.7779 3.62372C97.5892 3.56901 97.1844 3.54197 96.8336 3.54197C96.5905 3.54197 96.4286 3.46007 96.4286 3.29673C96.4286 3.13324 96.6175 3.07869 96.9684 3.07869C97.6831 3.07869 98.4872 3.09677 99.1699 3.11211C99.6729 3.12342 100.11 3.13324 100.396 3.13324C100.572 3.13324 100.992 3.13471 101.539 3.13661C103.341 3.1429 106.522 3.15399 106.874 3.13324C107.196 3.11283 107.488 3.06223 107.695 3.02655C107.765 3.01442 107.825 3.00401 107.873 2.9971C107.931 2.98534 107.989 2.96336 108.046 2.94221C108.119 2.91447 108.189 2.88816 108.25 2.88816C108.385 2.88816 108.412 2.9971 108.412 3.10605C108.412 3.15679 108.399 3.21805 108.38 3.31018C108.336 3.51486 108.261 3.87193 108.223 4.60468C108.214 4.68857 108.202 4.86173 108.187 5.06417V5.06458L108.187 5.06551V5.06576C108.159 5.45489 108.124 5.95145 108.089 6.13035L108.083 6.15164C108.055 6.27091 107.996 6.51172 107.819 6.51172C107.657 6.51172 107.629 6.40278 107.629 6.21209C107.629 6.0486 107.603 5.63987 107.468 5.36727C107.279 4.9587 107.09 4.63187 105.902 4.52277C105.497 4.46806 102.663 4.41383 102.178 4.41383C102.07 4.41383 102.016 4.49558 102.016 4.63187V10.3532C102.016 10.4895 102.043 10.5986 102.178 10.5986C102.717 10.5986 105.794 10.5986 106.334 10.5442C106.901 10.4895 107.252 10.4351 107.468 10.19C107.531 10.1356 107.582 10.0842 107.626 10.0399C107.714 9.95085 107.774 9.8902 107.846 9.8902C107.954 9.8902 108.035 9.99915 108.035 10.1356C108.035 10.2233 108.012 10.4128 107.96 10.8499L107.96 10.8525L107.96 10.8548C107.931 11.0955 107.893 11.4108 107.846 11.8248C107.791 12.288 107.738 13.2143 107.738 13.3776C107.738 13.5683 107.711 13.8953 107.495 13.8953C107.333 13.8953 107.279 13.8134 107.279 13.7046C107.269 13.6164 107.263 13.5213 107.256 13.4216C107.245 13.2439 107.232 13.052 107.198 12.8598C107.063 12.3967 106.766 12.0425 105.875 11.9609C105.443 11.9062 102.744 11.8518 102.151 11.8518C102.043 11.8518 102.016 11.9609 102.016 12.0972V13.9499C102.016 14.1825 102.013 14.5168 102.011 14.89V14.8901V14.8902V14.8904V14.8906V14.8909V14.8914V14.892C102.004 15.7858 101.997 16.9025 102.016 17.3826C102.07 18.9628 102.798 19.317 105.228 19.317C105.848 19.317 106.847 19.2898 107.468 19.0172C108.062 18.7447 108.332 18.2544 108.493 17.301C108.548 17.0556 108.601 16.9468 108.764 16.9468C108.953 16.9468 108.98 17.2466 108.98 17.4915C108.98 18.0092 108.791 19.5896 108.656 20.0527C108.494 20.6519 108.278 20.6519 107.387 20.6519C105.606 20.6519 104.175 20.6248 103.015 20.5704C102.75 20.5641 102.5 20.5579 102.263 20.552L102.26 20.5519H102.259H102.259H102.258H102.258C101.455 20.5319 100.802 20.5156 100.262 20.5156C100.151 20.5156 100 20.5202 99.8218 20.5256C99.5634 20.5334 99.2471 20.543 98.912 20.543C98.3452 20.5704 97.7513 20.5974 97.2654 20.5974C96.9685 20.5974 96.8066 20.5157 96.8066 20.3523C96.8066 20.2432 96.8876 20.1069 97.1846 20.1069C97.5353 20.1069 97.8051 20.0797 98.0212 20.025C98.5071 19.9162 98.6418 19.4805 98.7228 18.799C98.8309 17.8183 98.8309 15.9929 98.8309 13.8676V9.78126ZM111.489 19.5075C111.489 20.025 111.57 20.1343 111.948 20.2976C112.973 20.761 114.431 20.8969 115.807 20.8967C117.076 20.8967 118.641 20.7609 119.774 19.9434C121.502 18.7175 122.15 17.3277 122.15 15.6115C122.15 13.5136 121.178 11.7427 118.047 9.99883L117.076 9.45412C114.944 8.25528 114.566 7.43813 114.566 6.40262C114.566 4.8224 116.104 3.92351 117.804 3.92351C119.343 3.92351 120.099 4.57732 120.449 5.01309C120.962 5.61251 121.071 6.32088 121.071 6.53892C121.071 6.81135 121.151 6.94749 121.313 6.94749C121.502 6.94749 121.611 6.70241 121.611 6.21209C121.611 4.91306 121.651 4.20736 121.675 3.80033V3.79989C121.684 3.63518 121.691 3.51941 121.691 3.43303C121.691 3.26938 121.584 3.18763 121.367 3.13324C120.747 2.96991 119.532 2.75186 117.993 2.75186C114.701 2.75186 112.001 4.57732 112.001 7.41077C112.001 9.45396 112.919 11.0071 115.726 12.6689L117.102 13.4864C119.208 14.7398 119.451 15.7478 119.451 16.7559C119.451 18.3906 118.209 19.6983 116.158 19.6983C114.673 19.6983 112.892 19.126 112.379 17.4096C112.245 17.0009 112.163 16.5106 112.163 16.2109C112.163 16.0474 112.136 15.8294 111.92 15.8294C111.731 15.8294 111.624 16.0748 111.624 16.429L111.619 16.4906C111.586 16.9475 111.489 18.3138 111.489 19.5075ZM125.388 20.2976C125.011 20.1343 124.93 20.025 124.93 19.5075C124.93 18.3124 125.027 16.9442 125.06 16.4889L125.065 16.429C125.065 16.0748 125.172 15.8294 125.361 15.8294C125.577 15.8294 125.604 16.0474 125.604 16.2109C125.604 16.5106 125.685 17.0009 125.821 17.4096C126.333 19.126 128.115 19.6983 129.599 19.6983C131.65 19.6983 132.892 18.3906 132.892 16.7559C132.892 15.7478 132.65 14.7398 130.544 13.4864L129.168 12.6689C126.361 11.0071 125.443 9.45396 125.443 7.41077C125.443 4.57732 128.141 2.75186 131.435 2.75186C132.973 2.75186 134.188 2.96991 134.808 3.13324C135.024 3.18763 135.133 3.26938 135.133 3.43303C135.133 3.51948 135.126 3.63538 135.116 3.80033C135.092 4.20736 135.051 4.91306 135.051 6.21209C135.051 6.70241 134.944 6.94749 134.754 6.94749C134.593 6.94749 134.511 6.81135 134.511 6.53892C134.511 6.32088 134.404 5.61251 133.891 5.01309C133.54 4.57732 132.784 3.92351 131.246 3.92351C129.545 3.92351 128.006 4.8224 128.006 6.40262C128.006 7.43813 128.384 8.25528 130.517 9.45412L131.488 9.99883C134.619 11.7427 135.591 13.5136 135.591 15.6115C135.591 17.3277 134.943 18.7175 133.215 19.9434C132.082 20.7609 130.517 20.8967 129.248 20.8967C127.872 20.8969 126.414 20.761 125.388 20.2976ZM18.7782 31.2284C18.8323 32.1001 18.8323 32.8628 18.8323 37.0042H18.8321V41.7993C18.8321 44.4419 18.8321 46.5946 18.6972 47.7386C18.6161 48.5287 18.4541 48.9918 17.9145 49.1009C17.6715 49.1552 17.3476 49.2097 16.9427 49.2097C16.6187 49.2097 16.5108 49.2916 16.5108 49.4278C16.5108 49.6185 16.6999 49.7002 17.0506 49.7002C17.6647 49.7002 18.4796 49.6738 19.1824 49.651L19.183 49.6509C19.7157 49.6337 20.1839 49.6185 20.4515 49.6185C20.7358 49.6185 21.168 49.6309 21.6951 49.6461C22.5193 49.6698 23.5757 49.7002 24.6622 49.7002C24.959 49.7002 25.1748 49.6185 25.1748 49.4278C25.1748 49.2916 25.04 49.2097 24.743 49.2097C24.3382 49.2097 23.7444 49.1553 23.3666 49.1009C22.5568 48.9918 22.3678 48.5015 22.2867 47.766C22.1789 46.5946 22.1789 44.442 22.1789 41.7993V37.0044C22.1789 32.863 22.1789 32.1004 22.233 31.2285C22.2869 30.2749 22.5029 29.8115 23.2316 29.6757C23.5555 29.6208 23.7714 29.5935 24.0414 29.5935C24.3113 29.5935 24.4733 29.5391 24.4733 29.3213C24.4733 29.1577 24.2573 29.1031 23.9064 29.1031C23.3402 29.1031 22.6011 29.1281 21.9391 29.1505C21.4021 29.1686 20.9158 29.185 20.6136 29.185C20.2486 29.185 19.6842 29.1672 19.0817 29.1482C18.3919 29.1265 17.6523 29.1031 17.1048 29.1031C16.6729 29.1031 16.4571 29.1577 16.4571 29.3213C16.4571 29.5391 16.6189 29.5935 16.889 29.5935C17.2127 29.5935 17.5636 29.6206 17.8606 29.7026C18.4543 29.8388 18.7242 30.3018 18.7782 31.2284ZM32.5702 46.5399C32.6243 48.338 32.9211 48.8829 33.3801 49.0466C33.7849 49.1827 34.2439 49.2099 34.6216 49.2099C34.8916 49.2099 35.0266 49.3188 35.0266 49.4553C35.0266 49.646 34.8108 49.7004 34.4868 49.7004C33.4814 49.7004 32.6604 49.6655 32.0916 49.6413H32.0915H32.0914C31.7899 49.6284 31.5593 49.6186 31.4097 49.6186C31.3457 49.6186 31.2013 49.6258 30.9979 49.6359H30.9974H30.9973H30.9972C30.5143 49.6599 29.6999 49.7004 28.8456 49.7004C28.5217 49.7004 28.3059 49.673 28.3059 49.4553C28.3059 49.319 28.4679 49.2099 28.6836 49.2099C29.0076 49.2099 29.4395 49.1827 29.7634 49.1011C30.3842 48.9376 30.4652 48.3112 30.4921 46.2948L30.7081 32.5634C30.7081 32.1002 30.87 31.7734 31.1129 31.7734C31.3866 31.7734 31.6831 32.0742 32.0449 32.4412L32.1386 32.536C32.185 32.5829 32.3113 32.7124 32.5046 32.9106L32.5053 32.9113C33.5487 33.9809 36.5393 37.047 39.4532 39.9194C40.3494 40.8089 41.7167 42.2074 42.8188 43.3346L42.8192 43.335L42.8194 43.3352L42.8196 43.3353L42.8199 43.3357C43.7088 44.2449 44.4248 44.9772 44.5815 45.1232H44.6893L44.4465 34.8244C44.4193 33.4077 44.2035 32.9991 43.6366 32.7809C43.2857 32.6451 42.719 32.6451 42.3949 32.6451C42.0981 32.6451 42.017 32.536 42.017 32.3997C42.017 32.209 42.2602 32.1817 42.611 32.1817C43.3663 32.1817 44.1317 32.2019 44.7308 32.2178H44.731H44.7313H44.7316H44.7319C45.1171 32.228 45.4334 32.2364 45.634 32.2364C45.7218 32.2364 45.8754 32.2306 46.0826 32.2228H46.0827C46.5123 32.2066 47.1723 32.1817 47.9554 32.1817C48.2792 32.1817 48.4951 32.209 48.4951 32.3997C48.4951 32.5358 48.3601 32.6451 48.0901 32.6451C47.847 32.6451 47.6583 32.6451 47.3613 32.7267C46.7135 32.9175 46.5246 33.3263 46.4975 34.6339L46.2275 49.2372C46.2275 49.7548 46.0387 49.9728 45.8498 49.9728C45.4449 49.9728 45.1211 49.7277 44.878 49.4822C43.3937 48.0928 40.4245 45.2321 37.9414 42.8073C36.2873 41.2072 34.6663 39.4849 33.5907 38.3422L33.5904 38.3419C32.9813 37.6948 32.5472 37.2335 32.3812 37.0858H32.3002L32.5702 46.5399ZM53.1634 48.6105C53.1634 49.128 53.2445 49.2372 53.6221 49.4007C54.648 49.8639 56.1057 50.0002 57.4815 50C58.75 50 60.3156 49.8637 61.4492 49.0464C63.1765 47.8205 63.8242 46.431 63.8242 44.7145C63.8242 42.6167 62.8528 40.8457 59.7217 39.1021L58.75 38.5572C56.6179 37.3586 56.2401 36.5411 56.2401 35.5058C56.2401 33.9255 57.7786 33.0265 59.479 33.0265C61.0175 33.0265 61.7731 33.6803 62.124 34.1162C62.637 34.7158 62.7448 35.424 62.7448 35.6419C62.7448 35.9143 62.8259 36.0505 62.9878 36.0505C63.177 36.0505 63.2848 35.8055 63.2848 35.3151C63.2848 34.0159 63.3259 33.3102 63.3495 32.9033C63.3592 32.7383 63.3659 32.6225 63.3659 32.536C63.3659 32.3725 63.258 32.2909 63.042 32.2364C62.4212 32.0727 61.2066 31.8548 59.668 31.8548C56.3751 31.8548 53.6761 33.6803 53.6761 36.5137C53.6761 38.5572 54.5938 40.11 57.4008 41.7722L58.7775 42.5895C60.8826 43.8428 61.1256 44.8509 61.1256 45.8588C61.1256 47.4935 59.884 48.8012 57.8328 48.8012C56.3482 48.8012 54.5666 48.2291 54.054 46.5127C53.9191 46.1042 53.8381 45.6137 53.8381 45.3139C53.8381 45.1504 53.8111 44.9325 53.5952 44.9325C53.4061 44.9325 53.2982 45.1779 53.2982 45.5319L53.2933 45.6005C53.2602 46.0642 53.1634 47.4229 53.1634 48.6105ZM70.0863 38.8839C70.0863 35.3693 70.0863 34.7158 70.0595 33.9799C70.0056 33.19 69.7625 32.9174 69.2497 32.7539C68.9798 32.6721 68.6828 32.6451 68.386 32.6451C68.1429 32.6451 68.0081 32.5904 68.0081 32.3725C68.0081 32.2364 68.1969 32.1817 68.5749 32.1817C69.051 32.1817 69.7351 32.1973 70.3719 32.2118H70.3722L70.3728 32.2119C70.9272 32.2245 71.4457 32.2364 71.7597 32.2364C72.0245 32.2364 72.4771 32.2255 72.9785 32.2134H72.9789H72.979H72.9792H72.9795H72.9796C73.6027 32.1985 74.3014 32.1817 74.8099 32.1817C75.1067 32.1817 75.2958 32.2364 75.2958 32.3725C75.2958 32.5904 75.1609 32.6451 74.9178 32.6451C74.675 32.6451 74.4861 32.6723 74.2162 32.7267C73.5683 32.8358 73.3794 33.1628 73.3254 33.9801C73.2715 34.7158 73.2715 35.3695 73.2715 38.8841V42.9711C73.2715 45.2053 73.2715 47.0579 73.3793 48.0387C73.4602 48.6655 73.6224 49.0195 74.324 49.1283C74.6478 49.183 75.1877 49.2102 75.5386 49.2102C75.8084 49.2102 75.9162 49.3463 75.9162 49.4556C75.9162 49.6189 75.7275 49.7007 75.4574 49.7007C74.5048 49.7007 73.5322 49.6704 72.7708 49.6467C72.2809 49.6315 71.8784 49.6189 71.6247 49.6189C71.3923 49.6189 70.9599 49.6341 70.4673 49.6513C69.8157 49.6742 69.0589 49.7007 68.5208 49.7007C68.2238 49.7007 68.0618 49.6189 68.0618 49.4556C68.0618 49.3465 68.1429 49.2102 68.4399 49.2102C68.7908 49.2102 69.0604 49.183 69.2765 49.1283C69.7624 49.0195 69.8975 48.6925 69.9782 48.0115C70.086 47.0581 70.086 45.2054 70.086 42.9712V38.8839H70.0863ZM85.4441 46.1312C85.4169 45.6681 85.39 43.8972 85.39 41.4449H85.3899V38.5299C85.3899 36.7048 85.3899 34.7975 85.4168 34.0073C85.4168 33.735 85.498 33.6259 85.7138 33.5442C85.9028 33.4352 86.6853 33.3808 87.1715 33.3808C89.0338 33.3808 91.6248 33.6259 93.8112 35.5877C94.8639 36.5137 96.0246 38.4211 96.0246 41.3635C96.0246 43.7609 95.5386 45.8316 94.0001 47.112C92.5696 48.311 90.977 48.6922 88.8178 48.6922C86.9555 48.6922 86.0109 48.2019 85.7139 47.766C85.5253 47.5207 85.4708 46.7034 85.4441 46.1312ZM82.2051 38.8839C82.2051 35.3693 82.2051 34.7158 82.1779 33.9799C82.1238 33.19 81.908 32.9446 81.1524 32.7265C80.9633 32.6721 80.5583 32.6449 80.2076 32.6449C79.9647 32.6449 79.8029 32.563 79.8029 32.3996C79.8029 32.2362 79.9918 32.1815 80.3427 32.1815C81.0573 32.1815 81.8613 32.1996 82.5437 32.215H82.5439H82.5444C83.0473 32.2264 83.4843 32.2362 83.7706 32.2362C84.074 32.2362 84.546 32.2267 85.0969 32.2157L85.0973 32.2156H85.0977H85.0979C85.8697 32.2001 86.7961 32.1815 87.6305 32.1815C90.5994 32.1815 94.5939 32.1815 97.1851 34.8243C98.3727 36.0233 99.4253 37.9575 99.4253 40.7095C99.4253 43.6249 98.1838 45.8316 96.8342 47.1665C95.7545 48.2561 93.2443 49.8909 88.8717 49.8909C88.2117 49.8909 87.4572 49.8432 86.7165 49.7963C86.4879 49.7818 86.2607 49.7675 86.0379 49.7546C85.0932 49.6727 84.2293 49.6185 83.6356 49.6185C83.5253 49.6185 83.3745 49.623 83.1961 49.6284C82.9377 49.6362 82.6213 49.6458 82.2861 49.6458C81.7194 49.6729 81.1254 49.7002 80.6394 49.7002C80.3427 49.7002 80.1807 49.6185 80.1807 49.4551C80.1807 49.346 80.2616 49.2097 80.5583 49.2097C80.9092 49.2097 81.1793 49.1825 81.3953 49.1278C81.8812 49.019 82.0161 48.5833 82.0971 47.902C82.2049 46.9213 82.2049 45.0959 82.2049 42.9706V38.8839H82.2051ZM105.47 33.9799C105.497 34.7158 105.497 35.3693 105.497 38.8839L105.498 42.9706C105.498 45.0959 105.498 46.9213 105.39 47.9018C105.309 48.5831 105.174 49.0189 104.688 49.1277C104.472 49.1824 104.202 49.2096 103.851 49.2096C103.554 49.2096 103.474 49.3459 103.474 49.455C103.474 49.6183 103.635 49.7001 103.932 49.7001C104.418 49.7001 105.012 49.6727 105.579 49.6457C105.914 49.6457 106.23 49.6361 106.489 49.6283C106.667 49.6229 106.818 49.6183 106.928 49.6183C107.465 49.6183 108.112 49.6343 108.905 49.6539C109.15 49.66 109.408 49.6663 109.681 49.6727C110.842 49.7276 112.272 49.7546 114.054 49.7546C114.945 49.7546 115.161 49.7546 115.323 49.1552C115.458 48.6922 115.647 47.1118 115.647 46.5946C115.647 46.3494 115.619 46.0498 115.43 46.0498C115.268 46.0498 115.214 46.1586 115.161 46.4038C114.998 47.3572 114.729 47.8479 114.135 48.12C113.514 48.3926 112.515 48.4198 111.895 48.4198C109.465 48.4198 108.737 48.0656 108.682 46.4855C108.663 46.005 108.671 44.887 108.678 43.9928C108.68 43.6196 108.682 43.2853 108.682 43.0527V41.2C108.682 41.0637 108.709 40.9548 108.818 40.9548C109.411 40.9548 112.11 41.0092 112.542 41.0637C113.433 41.1455 113.73 41.4996 113.865 41.9629C113.899 42.1544 113.912 42.3457 113.923 42.5229C113.93 42.6231 113.936 42.7188 113.945 42.8074C113.945 42.9165 114 42.9983 114.162 42.9983C114.377 42.9983 114.404 42.6711 114.404 42.4806C114.404 42.3171 114.459 41.3909 114.512 40.9276C114.56 40.5136 114.598 40.1984 114.627 39.9577V39.9575C114.679 39.5169 114.701 39.3264 114.701 39.2383C114.701 39.1021 114.621 38.9932 114.512 38.9932C114.441 38.9932 114.381 39.0537 114.293 39.1425C114.249 39.1869 114.198 39.2384 114.135 39.293C113.919 39.538 113.568 39.5924 113.001 39.647C112.461 39.7014 109.384 39.7014 108.844 39.7014C108.709 39.7014 108.682 39.5924 108.682 39.4563V33.7348C108.682 33.5984 108.736 33.5168 108.844 33.5168C109.33 33.5168 112.164 33.571 112.569 33.6256C113.757 33.7348 113.945 34.0617 114.135 34.4702C114.269 34.7428 114.296 35.1516 114.296 35.3149C114.296 35.5058 114.324 35.6147 114.485 35.6147C114.663 35.6147 114.722 35.373 114.75 35.2538L114.756 35.2332C114.791 35.054 114.826 34.5562 114.854 34.1668V34.1659V34.1637C114.869 33.9627 114.881 33.791 114.89 33.7076C114.928 32.9749 115.003 32.6178 115.047 32.4132C115.066 32.321 115.079 32.2598 115.079 32.209C115.079 32.1001 115.052 31.991 114.917 31.991C114.856 31.991 114.786 32.0174 114.712 32.0452C114.655 32.0663 114.598 32.0882 114.539 32.1001C114.491 32.107 114.431 32.1174 114.361 32.1296C114.155 32.1653 113.863 32.2158 113.541 32.2362C113.189 32.257 110.008 32.2459 108.205 32.2396C107.659 32.2377 107.239 32.2362 107.063 32.2362C106.776 32.2362 106.339 32.2264 105.836 32.215H105.836C105.154 32.1996 104.35 32.1815 103.635 32.1815C103.284 32.1815 103.095 32.2362 103.095 32.3995C103.095 32.563 103.257 32.6449 103.5 32.6449C103.851 32.6449 104.256 32.6721 104.445 32.7265C105.201 32.9446 105.416 33.19 105.47 33.9799ZM124.66 40.6823C124.66 40.9274 124.714 41.0092 124.876 41.0909C125.389 41.2546 126.091 41.309 126.685 41.309C127.629 41.309 127.954 41.2272 128.358 40.9274C129.087 40.4099 129.896 39.4017 129.896 37.4945C129.896 34.2252 127.683 33.3807 126.28 33.3807C125.686 33.3807 125.12 33.4077 124.876 33.4624C124.714 33.517 124.66 33.5984 124.66 33.7892V40.6823ZM121.611 33.9799C121.638 34.7158 121.638 35.3693 121.638 38.8839V42.9706C121.638 45.0959 121.638 46.9213 121.529 47.902C121.449 48.5833 121.313 49.019 120.827 49.1278C120.611 49.1825 120.342 49.2097 119.991 49.2097C119.694 49.2097 119.613 49.346 119.613 49.4551C119.613 49.6185 119.775 49.7002 120.071 49.7002C120.628 49.7002 121.382 49.6718 122.001 49.6485C122.432 49.6323 122.799 49.6185 122.987 49.6185C123.104 49.6185 123.404 49.6277 123.803 49.6399C124.593 49.6641 125.77 49.7002 126.685 49.7002C126.981 49.7002 127.171 49.6185 127.171 49.4551C127.171 49.3459 127.063 49.2097 126.874 49.2097C126.576 49.2097 126.064 49.1825 125.713 49.1278C124.984 49.019 124.876 48.5833 124.796 47.902C124.687 46.9212 124.66 45.1229 124.66 42.9706V42.6438C124.66 42.5075 124.742 42.4531 124.849 42.4531L126.981 42.5075C127.143 42.5075 127.278 42.5347 127.414 42.6708C127.546 42.8281 127.815 43.2218 128.158 43.7206C128.587 44.3452 129.129 45.1346 129.654 45.8314C130.976 47.6295 131.867 48.7194 132.892 49.2369C133.514 49.5639 134.161 49.7001 135.484 49.7001H137.751C138.048 49.7001 138.21 49.6457 138.21 49.455C138.21 49.3457 138.102 49.2096 137.913 49.2096C137.724 49.2096 137.59 49.2096 137.346 49.155C137.325 49.1504 137.302 49.1458 137.278 49.1408C136.873 49.0573 136.057 48.8894 134.809 47.6295C133.453 46.2615 131.88 44.3059 129.927 41.8794C129.82 41.7451 129.71 41.6093 129.6 41.4721C131.921 39.5923 132.892 38.0666 132.892 36.3501C132.892 34.7972 131.894 33.6256 131.219 33.1625C129.951 32.318 128.223 32.1815 126.712 32.1815C126.357 32.1815 125.664 32.1945 124.952 32.2078C124.201 32.2218 123.429 32.2362 123.014 32.2362C122.827 32.2362 122.489 32.2281 122.071 32.2181C121.405 32.2022 120.539 32.1815 119.775 32.1815C119.424 32.1815 119.235 32.2362 119.235 32.3996C119.235 32.563 119.397 32.6449 119.64 32.6449C119.991 32.6449 120.396 32.6721 120.585 32.7265C121.34 32.9446 121.556 33.19 121.611 33.9799Z" fill="black"/>
</svg>
