<svg width="154" height="50" viewBox="0 0 154 50" fill="none" xmlns="http://www.w3.org/2000/svg">
<g opacity="0.6">
<path fill-rule="evenodd" clip-rule="evenodd" d="M65 44.3251V49.2316C63.2427 49.3241 61.516 49.3136 59.7908 49.3031H59.7903C58.8049 49.297 57.8198 49.291 56.8298 49.3043C56.7731 48.959 56.7258 48.641 56.6785 48.323V48.3229C56.6312 48.0049 56.5839 47.6869 56.5272 47.3417C56.3759 47.4507 56.234 47.5416 56.1064 47.6234C55.9787 47.7051 55.8652 47.7778 55.7707 47.8505C55.5524 48.0078 55.344 48.1745 55.1366 48.3405C54.7688 48.6347 54.404 48.9265 53.9929 49.1589C50.513 51.3759 46.2766 48.9045 45.331 45.3064C45.1418 44.6159 45.0662 43.889 45.0284 43.1985C44.9905 39.7458 44.9905 36.2568 45.0284 32.8041C45.0284 31.2414 45.4066 29.7876 46.0496 28.3702C47.6383 24.9175 50.3617 23.9726 53.6903 25.2446C54.076 25.3836 54.4464 25.5669 54.8112 25.7474C55.0188 25.8501 55.2245 25.9519 55.4303 26.0442C56.1489 26.3713 56.9054 26.3713 57.6619 26.1532C58.2293 26.0078 58.6832 25.6444 58.7589 24.9902C58.8345 24.0816 58.8723 23.1367 58.721 22.0827L58.5705 22.1728C58.3526 22.303 58.2025 22.3928 58.078 22.4825C55.4681 24.2997 52.896 23.3547 51.4208 20.847C51.0047 20.1565 50.7778 19.2842 50.6643 18.4483C50.3617 16.4131 50.3239 14.3051 50.6643 12.2699C50.8156 11.3613 51.0426 10.4163 51.4208 9.58041C52.6312 7.07269 54.409 6.49119 57.2459 7.50881C57.4857 7.60101 57.7256 7.75167 57.9848 7.91445C58.1343 8.00835 58.2902 8.10628 58.4563 8.19935L58.9102 7H64.6217V9.76213C64.6217 10.0165 64.5461 10.38 64.3948 10.489C63.8652 10.8888 63.8652 11.4703 63.8652 12.0518V42.1445C63.8274 43.1985 63.9409 44.0344 65 44.3251ZM52.6312 37.2744C52.6312 37.7106 52.627 38.1467 52.6228 38.5828C52.6144 39.4551 52.606 40.3273 52.6312 41.1996C52.669 42.4716 53.3877 43.1258 54.5981 43.1258C55.7707 43.1258 56.3759 42.508 56.4137 41.1996C56.4389 40.5696 56.4305 39.9397 56.4221 39.3097C56.4179 38.9947 56.4137 38.6797 56.4137 38.3648C56.4137 37.8182 56.4179 37.2758 56.4221 36.7347C56.4305 35.6565 56.4389 34.5836 56.4137 33.4947C56.4137 32.368 55.8085 31.6048 54.9385 31.4231C53.6903 31.1323 52.669 31.9319 52.6312 33.3493C52.606 34.2216 52.6144 35.0938 52.6228 35.9661C52.627 36.4022 52.6312 36.8383 52.6312 37.2744ZM58.7778 14.5641C58.7778 14.923 58.7778 15.2864 58.7967 15.6498C58.7967 16.3404 58.7967 16.9946 58.8345 17.7214C58.7967 18.7027 58.4184 19.1389 57.6619 19.1752C56.8298 19.2115 56.1489 18.7027 55.9976 17.8668C55.9598 17.6851 55.9598 17.5034 55.9598 17.3217C55.9598 17.0031 55.9574 16.6845 55.9551 16.3665C55.948 15.4147 55.9409 14.4681 55.9976 13.5419C55.9976 12.9967 56.2246 12.4152 56.4894 11.9428C56.792 11.3976 57.3215 11.3976 57.8132 11.7247C58.4184 12.1245 58.721 12.7423 58.7589 13.5056C58.7778 13.8508 58.7778 14.2052 58.7778 14.5641Z" fill="black"/>
<path d="M35.6478 43.7556V48.702C34.6387 48.9585 27.5006 48.9951 26.0804 48.7386C25.9309 47.1265 26.043 45.4411 26.0057 43.6824C27.0895 43.5358 27.1642 42.7297 27.1642 41.8137C27.1642 38.3696 27.1642 34.9254 27.1642 31.4813C27.1642 30.6386 27.1268 29.7959 26.043 29.7226C26.043 27.9639 26.043 26.3151 26.043 24.6663C27.0895 24.4098 32.8449 24.3732 34.1529 24.6297C34.2276 25.106 34.3024 25.6189 34.4145 26.3151C34.8256 26.022 35.1246 25.8021 35.3862 25.5823C37.3669 23.9335 39.6093 23.677 41.9638 24.3366C43.3465 24.703 44.3556 25.6922 44.692 27.2677C44.8788 28.1837 45.0283 29.1364 45.0283 30.089C45.0657 33.8629 45.0283 37.6368 44.9909 41.374V42.0702C44.9162 42.9129 45.0283 43.6457 46 43.719V48.7386C45.0657 49.1783 44.094 48.9218 43.1597 48.9585C42.2254 48.9951 41.3284 48.9585 40.3941 48.9585C39.4598 48.9585 38.4881 48.9585 37.5164 48.9585C37.5164 47.8593 37.5164 46.9067 37.5164 45.954C37.5164 42.0336 37.5538 38.1497 37.5538 34.2293C37.5538 33.5698 37.4043 32.8736 37.1801 32.2874C36.9558 31.7011 36.4326 31.408 35.8347 31.4813C35.2367 31.5546 34.863 31.9943 34.7135 32.6171C34.6014 33.0935 34.5266 33.6064 34.5266 34.0827V41.9969C34.5266 43.206 34.5266 43.206 35.6478 43.7556Z" fill="black"/>
<path d="M85 48.421C82.1215 48.421 79.4673 48.421 76.7757 48.421C76.7009 47.8727 76.6636 47.3974 76.5888 46.7394C76.1776 47.0318 75.8411 47.1781 75.5794 47.434C73.6355 49.0425 71.4673 49.2985 69.1495 48.7135C67.729 48.3479 66.757 47.3974 66.3458 45.8985C66.1215 44.9846 65.972 44.034 65.972 43.0835C65.9346 39.0621 65.972 35.0407 66.0093 31.0192C66.0093 30.1784 65.9346 29.4838 65 29.301C65 27.5462 65 25.901 65 24.1097C67.8037 24 70.5327 24.0731 73.4112 24.0366C73.4486 24.6581 73.486 25.1333 73.486 25.6086C73.486 29.959 73.4486 34.3095 73.4486 38.6234C73.4486 39.2083 73.486 39.7933 73.6355 40.3416C73.8598 41.0728 74.4953 41.5115 75.0187 41.5115C75.5794 41.4749 76.1028 40.9997 76.2897 40.232C76.4019 39.8298 76.4393 39.4277 76.4393 39.0255C76.4393 36.3568 76.4393 33.688 76.4393 31.0192C76.4393 30.1418 76.3645 29.3375 75.3178 29.2644C75.3178 27.5096 75.3178 25.8645 75.3178 24.0366C78.0841 23.9634 80.7757 24.0366 83.6542 24C83.6916 24.5484 83.7664 25.0236 83.7664 25.4989C83.7664 30.4343 83.7664 35.3697 83.8037 40.3051V41.6577C83.8037 42.4255 83.9533 43.1201 84.9626 43.1566V45.7888C85 46.6662 85 47.4705 85 48.421Z" fill="black"/>
<path d="M100.113 24.623V31.1693C98.9753 31.4587 97.8739 31.314 96.7724 31.2778C96.5889 30.8438 96.4787 30.4821 96.2952 30.1205C95.928 29.2886 95.3773 28.6376 94.6063 28.2036C93.9455 27.8419 93.2479 27.8057 92.6237 28.2759C91.8527 28.7823 91.6325 29.6864 92.1832 30.446C92.5503 30.9885 93.0276 31.4587 93.5416 31.7842C94.129 32.182 94.8266 32.399 95.4507 32.6884C96.0749 32.9777 96.699 33.1585 97.2864 33.4841C99.6361 34.7499 100.884 36.7753 100.995 39.6687C101.031 41.1878 100.884 42.7068 100.481 44.1897C99.8931 46.3598 98.7183 47.8788 96.6256 48.4937C94.6063 49.0723 92.587 49.3617 90.6412 48.2043C89.9803 47.8065 89.3195 47.6256 88.8422 48.5298C88.7688 48.6745 88.475 48.7468 88.2915 48.7468C87.447 48.783 86.5659 48.7468 85.5746 48.7468C85.5012 46.2151 85.5746 43.828 85.5379 41.2963C86.9331 41.0793 88.218 41.1516 89.5398 41.2239C89.6866 41.7665 89.8335 42.2366 89.9803 42.7068C90.4943 44.1174 91.6692 44.7684 92.9542 44.3705C94.3126 43.9727 94.8266 42.4175 93.9455 41.2239C93.6517 40.8261 93.2479 40.4644 92.8073 40.2112C91.7426 39.5964 90.6779 39.0539 89.5765 38.5114C88.4016 37.9327 87.3736 37.1008 86.5292 36.052C84.8403 33.9904 84.0693 29.1801 86.7862 26.3228C88.6219 24.406 90.8615 23.6464 93.358 24.1528C94.1657 24.2975 94.9367 24.6591 95.7077 24.9123C96.0014 24.9846 96.4053 25.1293 96.6256 24.9846C97.727 24.2975 98.8651 24.7676 100.113 24.623Z" fill="black"/>
<path d="M109.868 19.0715C110.057 21.2162 109.793 23.3252 109.981 25.5414C110.925 25.6129 111.717 25.6486 112.623 25.7201C112.887 26.578 112.736 27.4716 112.774 28.3295C112.811 29.1516 112.774 30.0095 112.774 30.8317C112.094 31.1891 111.453 30.9746 110.849 31.0461C109.981 31.1176 109.792 31.2606 109.755 32.1542C109.717 35.2998 109.755 38.4454 109.755 41.5909C109.755 41.9841 109.868 42.3773 110.019 42.7348C110.396 43.6642 111 43.9859 111.943 43.8071C112.283 43.7357 112.585 43.6642 113 43.5927V48.5613C113 49.0259 112.736 49.3119 112.358 49.4191C111.415 49.6336 110.472 49.8123 109.491 49.9553C108.774 50.0268 108.057 49.9911 107.34 49.9911C105.755 50.0268 104.585 49.2762 103.717 47.9536C102.774 46.5238 102.358 44.9153 102.358 43.1995C102.358 40.0182 102.358 36.8368 102.358 33.6555C102.358 33.3338 102.358 33.0479 102.358 32.7261C102.358 31.2606 102.359 31.2606 101 30.6887C101 29.0801 101 27.4716 101 25.7916C101.189 25.7558 101.34 25.6486 101.491 25.6486C102.132 25.6486 102.396 25.2554 102.396 24.612C102.396 23.7184 102.434 22.8247 102.396 21.9668C102.396 21.3592 102.585 21.0017 103.189 20.823C105.264 20.2511 107.34 19.6077 109.415 19C109.491 19 109.604 19.0357 109.868 19.0715Z" fill="black"/>
<path fill-rule="evenodd" clip-rule="evenodd" d="M25.3604 21.2059V22.8819C26.1913 22.8819 27.0055 22.9125 27.8051 22.9426C29.6236 23.0109 31.3664 23.0763 33.0573 22.7726C35.8854 22.2625 37.8902 21.0237 38.5704 16.9428C39.1432 13.4085 39.1432 9.83778 38.5704 6.30347C37.9976 2.73272 36.0644 0.327926 32.6635 0.109309C30.8016 -0.0121669 28.9238 -0.0040456 27.0512 0.00405277C26.1155 0.00809981 25.1811 0.0121411 24.2506 0C24.1982 0 24.1458 0.0390522 24.0793 0.0885685C24.055 0.106693 24.0288 0.126219 24 0.145745C24 1.05665 24 1.96756 24.0358 2.9149C24.0716 3.20639 24.2506 3.60719 24.4296 3.68006C25.3246 4.08086 25.3604 4.88245 25.3604 5.79336V21.2059ZM30.3644 4.44522C30.3803 4.34806 30.3962 4.25089 30.4081 4.15373C32.1265 3.8258 33.2005 4.48166 33.5943 6.19416C33.8449 7.50586 33.9523 8.854 33.9523 10.2021C33.9523 12.0604 33.8807 13.9186 33.7375 15.7404C33.5585 17.8537 32.4129 18.9468 30.4797 18.9468C30.4662 18.8988 30.4515 18.8495 30.4364 18.7992C30.3715 18.5821 30.3007 18.3454 30.3007 18.1088V5.0282C30.3007 4.83387 30.3325 4.63955 30.3644 4.44522Z" fill="black"/>
<path d="M121.86 26.7024C123.356 25.2396 124.507 23.4842 126.77 24.1424C127.077 25.2396 127.077 30.7984 126.77 32.0418C125.121 31.4566 123.74 31.9686 122.589 33.2852C122.052 33.9069 121.745 34.6018 121.745 35.4795C121.784 37.7469 121.745 40.0143 121.745 42.2817C121.745 43.0497 121.822 43.6714 122.781 43.7079V48.7182C121.86 49.0107 114.841 49.1205 113.192 48.8279C112.885 48.0233 113.038 47.1822 113.038 46.3411C113 45.5365 113.038 44.7319 113.038 43.8177C113.882 43.5982 114.151 43.0497 114.151 42.1354C114.112 38.5514 114.112 34.9675 114.151 31.3835C114.151 30.5789 114.074 29.9207 113.115 29.7744C113.115 28.0555 113.115 26.3733 113.115 24.7642C114.151 24.4716 120.479 24.3984 121.668 24.691C121.745 25.3127 121.784 25.9344 121.86 26.7024Z" fill="black"/>
<path d="M129 29.395C129 27.5612 129 25.9144 129 24.0805C131.602 23.9308 134.168 24.0431 136.875 24.0057C136.91 24.6419 136.945 25.1285 136.945 25.615C136.945 30.6301 136.945 35.6077 136.98 40.6228C136.98 41.1842 137.051 41.7456 137.016 42.2696C137.016 43.0181 137.262 43.5046 138 43.5795V48.7069C137.156 49.0437 130.336 49.1185 129.035 48.7817C129.035 47.0975 129.035 45.4134 129.035 43.7292C130.055 43.1304 130.055 43.1304 130.055 41.7456C130.055 38.1901 130.055 34.5972 130.055 31.0418C130.09 30.181 129.984 29.4699 129 29.395Z" fill="black"/>
<path d="M15 48.8372C15 47.1181 15 45.4363 15 43.6797C16.0547 43.4929 16.0547 42.5585 16.0547 41.5121C16.0195 38.1485 16.0547 34.7476 16.0547 31.384C16.0547 31.3466 16.0547 31.3093 16.0547 31.2345C16.0547 29.8517 16.0547 29.8517 15 29.2164C15 27.572 15 25.9276 15 24.0963C17.6016 23.9094 20.168 24.0589 22.875 24.0215C22.9102 24.6569 22.9453 25.2175 22.9453 25.7407V41.2879V41.998C22.9102 42.8949 23.0508 43.5676 24 43.605V48.7625C23.0859 49.0241 16.5469 49.0988 15 48.8372Z" fill="black"/>
<path d="M90.9621 22.8862C88.9175 22.8862 87.0622 22.8862 85.0554 22.8862C85.0176 22.3424 84.9797 21.8711 84.9797 21.3998C84.9797 18.6083 85.0176 15.8167 84.9797 13.0614C84.9797 12.5901 84.9419 12.0463 84.7525 11.6475C84.6011 11.3575 84.1467 11.0675 83.8438 11.0675C83.5409 11.0675 83.2001 11.43 83.0108 11.7563C82.8594 12.0463 82.8594 12.4451 82.8594 12.8077V18.0645C82.8594 18.6083 82.8594 19.1521 83.3895 19.4784C83.5409 19.5871 83.6166 19.8409 83.6166 20.0584C83.6545 20.9648 83.6166 21.8349 83.6166 22.8862C81.4206 23.0675 79.3381 22.995 77.2177 22.9225C76.8769 21.8711 77.0284 20.8923 77.0663 19.9134C77.0663 19.8047 77.142 19.6234 77.2177 19.5509C77.9371 19.0796 77.8235 18.3182 77.8235 17.6294C77.8235 15.563 77.8235 13.4965 77.8235 11.43C77.8235 10.85 77.8993 10.2699 77.2934 9.8711C77.142 9.7986 77.0663 9.47231 77.0663 9.29104C77.0284 8.34844 77.0663 7.4421 77.0663 6.35448C78.9216 6.28197 80.6633 6.31823 82.405 6.31823C82.5943 6.68077 82.7836 7.00705 82.973 7.40584C83.238 7.26083 83.4652 7.15207 83.6545 7.00705C84.7525 6.10071 86.0399 5.91944 87.403 6.0282C88.9175 6.17321 89.8262 7.00705 90.1291 8.56597C90.2427 9.14603 90.2806 9.72609 90.2806 10.3062C90.2806 12.8802 90.2427 15.4179 90.2427 17.992C90.2427 18.572 90.1291 19.1521 90.7728 19.5146C90.9243 19.5871 91 19.8772 91 20.0947C90.9621 20.9648 90.9621 21.8349 90.9621 22.8862Z" fill="black"/>
<path fill-rule="evenodd" clip-rule="evenodd" d="M41.2655 6.46395C40.7976 6.64253 40.3656 6.8211 39.9697 6.99968C39.7537 8.64257 39.7897 10.1783 40.0777 11.1069C40.2396 11.0176 40.3926 10.9194 40.5456 10.8212C40.6986 10.723 40.8515 10.6248 41.0135 10.5355C41.9854 9.99974 43.0292 9.85688 44.0731 10.1783C45.2609 10.5355 45.8008 11.6069 45.5128 13.1069C45.3608 13.0466 45.2153 12.9799 45.0734 12.9149C44.8793 12.826 44.6922 12.7403 44.505 12.6784C41.6974 11.8212 39.7177 12.8927 39.1418 15.9999C38.9258 17.3213 38.9618 18.6071 39.2138 19.9285C39.6097 21.9643 40.8336 23 42.7413 23C43.7131 23 44.577 22.7857 45.2249 22.1786C46.8152 22.6663 48.3127 22.5778 49.8478 22.4871C50.2237 22.4649 50.6017 22.4426 50.984 22.4286C50.984 22.1195 50.9883 21.8276 50.9925 21.5469C51.0003 21.0165 51.0075 20.5261 50.984 20.0357C50.984 19.7856 50.876 19.4642 50.732 19.3214C50.2641 18.8928 50.2641 18.3213 50.2641 17.7499C50.2641 17.1798 50.2681 16.6057 50.2721 16.0303C50.2801 14.8755 50.2881 13.7154 50.2641 12.5712C50.2281 11.1783 50.0122 9.85688 49.4002 8.60685C48.7163 7.24968 47.7445 6.28538 46.3047 6.1068C44.613 5.92823 42.9212 5.92823 41.2655 6.46395ZM45.6208 17.4285H45.6928C45.6928 17.857 45.6928 18.3213 45.6208 18.7856C45.5848 19.2499 45.3689 19.6428 44.8649 19.6428C44.397 19.6428 44.0371 19.3214 44.0011 18.8571C43.9291 17.8213 43.9291 16.8213 44.0011 15.8213C44.0371 15.3927 44.397 15.107 44.7929 15.1784C45.2249 15.2141 45.5488 15.4998 45.6208 15.9999C45.6446 16.3069 45.6369 16.6138 45.629 16.9312C45.625 17.0938 45.6208 17.2591 45.6208 17.4285Z" fill="black"/>
<path fill-rule="evenodd" clip-rule="evenodd" d="M72.6272 15.9368H75.967C75.967 15.4493 75.9758 14.9838 75.9843 14.5328C76.0005 13.6716 76.0157 12.8632 75.967 12.0548C75.8186 9.10597 73.8147 6.60507 71.3284 6.11982C68.3226 5.55991 65.9476 6.97833 64.7973 10.0391C63.8695 12.5027 63.8695 15.0783 64.2035 17.6538C64.3891 19.1469 64.7602 20.528 65.6879 21.6851C67.0609 23.4022 68.8792 23.9621 70.846 23.9994C73.5178 24.0367 75.3362 22.357 75.8557 19.4455C75.8803 19.2228 75.8723 18.9837 75.8641 18.7391C75.8599 18.6147 75.8557 18.4889 75.8557 18.363H73.1096C73.0354 18.5621 72.9612 18.728 72.887 18.8939C72.8499 18.9768 72.8128 19.0598 72.7757 19.1469C72.3675 20.1174 71.9222 20.3787 70.9944 20.2667C70.1409 20.1547 69.3616 19.5575 69.2503 18.7736C69.1019 17.8778 69.0277 16.9446 69.3988 15.9368H72.6272ZM71.5639 12.4869C71.5576 12.7298 71.5511 12.9829 71.5511 13.2493H69.3245C69.0137 12.5543 69.0886 11.8594 69.1603 11.1946C69.1657 11.1452 69.171 11.096 69.1761 11.047C69.2503 10.4124 69.7327 10.0018 70.2894 9.96449C70.8089 9.92716 71.4397 10.3004 71.514 10.8977C71.5922 11.396 71.5788 11.9128 71.5639 12.4869Z" fill="black"/>
<path d="M91.4002 22.7138C91.4002 20.9419 91.4002 19.3208 91.4002 17.662C92.2955 17.3604 93.1535 17.4735 94.0488 17.5866C94.2353 18.0767 94.3472 18.5668 94.5711 18.9815C95.2052 20.1125 96.5482 20.0748 97.145 18.9438C97.5554 18.1898 97.4808 17.4735 96.8093 16.9834C96.1005 16.4933 95.3171 16.1163 94.6084 15.6639C93.8623 15.1738 93.0416 14.7591 92.4074 14.0805C90.02 11.63 90.8034 6.95522 93.7504 5.52262C95.056 4.88173 96.3616 4.84403 97.6673 5.33412C98.3387 5.59802 98.9729 5.78652 99.719 5.48492C100.204 5.29643 100.801 5.44722 101.472 5.44722C101.547 6.99292 101.547 8.46322 101.472 10.0466C100.726 10.0466 100.017 10.0466 99.234 10.0466C99.0475 9.70731 98.861 9.29262 98.6372 8.95332C98.0776 8.12392 97.3315 7.82232 96.5482 8.12392C95.7275 8.46322 95.5037 9.14182 96.1005 9.82041C96.5482 10.3105 97.1823 10.6875 97.7419 11.0268C98.2641 11.3284 98.8237 11.4792 99.3459 11.7808C101.062 12.6856 101.92 14.2313 101.994 16.3425C102.032 17.662 101.883 18.9438 101.435 20.1879C101.025 21.3566 100.316 22.1483 99.234 22.5253C97.7792 23.0154 96.287 23.317 94.8322 22.4499C94.4218 22.186 94.0488 22.1483 93.5639 22.563C93.0416 23.1285 92.2582 22.8269 91.4002 22.7138Z" fill="black"/>
<path d="M24 19.0009C23.9332 20.1741 23.5655 21.1273 22.8303 21.8606C21.3264 23.2904 18.9201 23.4004 17.3494 22.0439C15.5447 20.4674 15.5447 17.5344 17.3828 15.9579C18.9201 14.6747 21.1593 14.6747 22.6632 15.9945C23.4987 16.7644 23.9666 17.7543 24 19.0009Z" fill="black"/>
<path d="M133.119 16C134.156 16.0735 135.093 16.4044 135.896 17.25C137.401 18.8308 137.367 21.4043 135.795 22.9116C134.19 24.4556 131.48 24.3453 129.975 22.6542C128.637 21.1469 128.671 18.7573 130.109 17.25C130.945 16.3676 131.982 16 133.119 16Z" fill="black"/>
</g>
</svg>
