<svg width="155" height="50" viewBox="0 0 155 50" fill="none" xmlns="http://www.w3.org/2000/svg">
<path d="M0.227836 30.5414L2.17288 30.2291V12.228L0 11.9453L0.113918 10H13.7081L13.3706 15.4434L10.6619 15.359L10.4931 11.9453H6.29079V20.0428H8.12614L8.54805 18.182L10.4382 18.2368V23.8236H8.54805L8.0966 21.9079H6.26126V30.4823H10.4931L10.8897 26.7606L13.7376 26.845L13.9655 32.5162H0.139233L0.227836 30.5414Z" fill="#626263"/>
<path d="M15.2355 32.5715L15.3199 30.8836L16.843 30.5756V19.2542L15.0625 19.0854V17.3975L19.5222 16.7519L19.8597 17.7097V18.3596C20.3653 17.7894 20.9865 17.3335 21.682 17.0221C22.3774 16.7107 23.1312 16.551 23.8932 16.5536C26.3193 16.5536 28.1124 18.022 28.1124 20.9294V30.5672L29.7199 30.8794L29.6355 32.5419H24.3742V21.7649C24.3742 20.212 23.8089 19.3385 22.3996 19.3385C21.9931 19.3337 21.5898 19.4112 21.2141 19.5664C20.9762 19.7899 20.7587 20.0342 20.5643 20.2964V30.6262L22.1718 30.9342L22.0621 32.6221H15.2355V32.5715Z" fill="#626263"/>
<path d="M100.484 32.5715L100.569 30.8836L102.092 30.5756V19.2542L100.315 19.0854V17.3975L104.775 16.7519L105.113 17.7098V18.3596C105.618 17.789 106.239 17.3328 106.935 17.0213C107.63 16.7099 108.384 16.5504 109.146 16.5536C111.572 16.5536 113.365 18.022 113.365 20.9294V30.5672L114.973 30.8794L114.888 32.5419H109.614V21.7649C109.614 20.212 109.049 19.3386 107.64 19.3386C107.233 19.3337 106.83 19.4112 106.454 19.5664C106.215 19.7888 105.998 20.0332 105.805 20.2964V30.6262L107.412 30.9342L107.298 32.6221H100.484V32.5715Z" fill="#626263"/>
<path d="M38.1413 32.2579C37.1305 32.631 36.0583 32.81 34.9811 32.7854C33.0909 32.7854 31.34 31.9415 31.34 29.1776V19.2233L29.5342 18.9449L29.6228 16.97L31.6438 16.8814L32.5171 13.8644L35.1119 13.7504V16.9954H37.905L37.7067 18.9702L35.1415 19.2529V29.1861C35.1212 29.3641 35.1403 29.5445 35.1977 29.7143C35.255 29.8841 35.349 30.0392 35.4731 30.1686C35.5972 30.2979 35.7482 30.3982 35.9155 30.4625C36.0828 30.5268 36.2622 30.5534 36.441 30.5405H37.9725L38.1413 32.2579Z" fill="#626263"/>
<path d="M143.73 32.5707L143.815 30.9335L145.254 30.5959V19.2534L143.566 19.0846V17.3967L148.207 16.7469L148.515 17.8482V18.2154C149.92 17.207 151.613 16.6813 153.342 16.7174L154.017 17.3123L153.536 21.57L151.004 21.4857L150.747 19.2028C150.163 19.2667 149.604 19.4693 149.114 19.7935V30.6254L150.722 30.963L150.608 32.6003H143.73V32.5707Z" fill="#626263"/>
<path d="M77.2954 32.5707L77.3798 30.9335L78.8185 30.5959V19.2534L77.1309 19.0846V17.3967L81.772 16.7469L82.08 17.8482V18.2154C83.4845 17.207 85.1781 16.6813 86.9067 16.7174L87.5818 17.3123L87.0839 21.5658L84.5524 21.4814L84.295 19.1985C83.7115 19.2625 83.1516 19.4651 82.6622 19.7893V30.6254L84.2697 30.963L84.1558 32.6003H77.2954V32.5707Z" fill="#626263"/>
<path d="M39.2676 32.5723L39.352 30.9351L40.7907 30.5974V19.255L39.103 19.0862V17.3983L43.7441 16.7485L44.0521 17.8498V18.2169C45.4475 17.2127 47.1305 16.6872 48.8493 16.7189L49.5244 17.3139L49.0476 21.5716L46.5161 21.4872L46.263 19.2043C45.6781 19.2683 45.1169 19.4708 44.6259 19.7951V30.627L46.2334 30.9646L46.1195 32.6018H39.2676V32.5723Z" fill="#626263"/>
<path d="M53.9086 25.6588C53.9086 28.3679 55.0941 30.4523 57.4358 30.4523C58.59 30.4603 59.7291 30.1897 60.7563 29.6633L61.406 31.1613C59.9784 32.2573 58.2182 32.8306 56.419 32.7858C52.301 32.7858 49.9341 29.2329 49.9341 24.663C49.9341 20.7682 51.6513 16.5106 56.3641 16.5106C60.482 16.5106 62.0347 20.3082 62.0347 24.549L61.6381 25.566L53.9086 25.6588ZM53.8242 23.8528L58.5665 23.6249C58.4821 21.7345 58.0855 18.747 56.2249 18.747C55.7572 18.7493 55.2985 18.876 54.8958 19.1141C54.1364 20.4096 53.8242 22.7514 53.8242 23.8528Z" fill="#626263"/>
<path d="M119.47 25.6588C119.47 28.3679 120.656 30.4523 122.998 30.4523C124.145 30.4561 125.276 30.1856 126.297 29.6633L126.947 31.1612C125.525 32.2527 123.773 32.8258 121.981 32.7858C117.863 32.7858 115.492 29.2329 115.492 24.663C115.492 20.7682 117.213 16.5106 121.926 16.5106C126.044 16.5106 127.596 20.3082 127.596 24.549L127.2 25.566L119.47 25.6588ZM119.386 23.8528L124.124 23.6249C124.04 21.7345 123.647 18.747 121.782 18.747C121.316 18.7494 120.859 18.8762 120.458 19.1141C119.698 20.4096 119.403 22.7514 119.403 23.8528H119.386Z" fill="#626263"/>
<path d="M91.9103 25.6588C91.9103 28.3678 93.0917 30.4523 95.4333 30.4523C96.5788 30.4548 97.7084 30.1843 98.7285 29.6633L99.3783 31.1612C97.9579 32.2497 96.2097 32.8225 94.4207 32.7858C90.3028 32.7858 87.9316 29.2329 87.9316 24.663C87.9316 20.7682 89.6531 16.5106 94.3617 16.5106C98.4838 16.5106 100.032 20.3082 100.032 24.549L99.6399 25.566L91.9103 25.6588ZM91.8513 23.8528L96.5936 23.6249C96.5092 21.7345 96.1126 18.747 94.252 18.747C93.7842 18.7493 93.3255 18.876 92.9229 19.1141C92.1635 20.4096 91.8259 22.7514 91.8513 23.8528Z" fill="#626263"/>
<path d="M138.229 32.5712L137.836 31.2166C136.79 32.2041 135.777 32.7948 134.195 32.7948C131.769 32.7948 129.596 31.5838 129.596 28.2249V18.8319L127.82 18.6631V17.1736L132.955 16.5828L133.351 17.9373V27.7481C133.351 29.4655 134.056 30.3685 135.435 30.3685C135.896 30.3724 136.355 30.2967 136.79 30.1449C137.057 29.8799 137.294 29.587 137.499 29.2714V18.8319L135.663 18.6631V17.1736L140.853 16.5828L141.249 17.9373V30.5964L142.857 30.9086L142.659 32.5712H138.229Z" fill="#626263"/>
<path d="M69.7092 30.5406C69.0258 30.5708 68.3461 30.4254 67.7347 30.1186V20.1559C67.9552 19.8279 68.1991 19.5162 68.4646 19.2234C68.9185 19.0648 69.3973 18.9891 69.878 18.9997C71.9876 18.9997 72.3589 21.1433 72.3589 24.979C72.3589 28.6754 71.7935 29.6925 71.6543 30.1144C71.0473 30.404 70.3817 30.5499 69.7092 30.5406ZM76.038 24.2743C76.038 19.5061 74.6288 16.5186 71.1016 16.5186C70.3437 16.4954 69.5917 16.6583 68.9114 16.993C68.231 17.3277 67.6431 17.824 67.1988 18.4385V17.9322L66.8022 16.5777L62.1611 17.2275V18.8605L63.9416 19.0884V38.3301L62.4185 38.6423L62.3341 40.25H69.1312L69.2451 38.6423L67.6376 38.3301V32.2327C68.4186 32.6387 69.2891 32.8419 70.1691 32.8234C75.9705 32.7854 76.0253 26.9538 76.0253 24.2743H76.038Z" fill="#626263"/>
<path d="M152.785 31.0982C152.887 31.0906 152.99 31.1052 153.086 31.1409C153.182 31.1766 153.269 31.2326 153.342 31.3051C153.414 31.3776 153.47 31.4649 153.506 31.561C153.541 31.6571 153.556 31.7597 153.548 31.862C153.534 32.0541 153.448 32.2338 153.306 32.365C153.165 32.4961 152.98 32.569 152.787 32.569C152.594 32.569 152.409 32.4961 152.267 32.365C152.126 32.2338 152.04 32.0541 152.025 31.862C152.018 31.7601 152.032 31.6579 152.068 31.5621C152.103 31.4663 152.159 31.3792 152.231 31.3068C152.303 31.2344 152.39 31.1783 152.485 31.1423C152.581 31.1063 152.683 31.0913 152.785 31.0982ZM152.785 32.4274C152.856 32.4298 152.928 32.4174 152.994 32.3911C153.061 32.3648 153.121 32.3251 153.172 32.2744C153.223 32.2238 153.262 32.1633 153.289 32.0967C153.315 32.0301 153.327 31.9588 153.325 31.8873C153.329 31.8154 153.318 31.7434 153.293 31.6762C153.267 31.6089 153.227 31.5479 153.176 31.4971C153.125 31.4464 153.064 31.4071 152.996 31.382C152.929 31.3569 152.857 31.3464 152.785 31.3513C152.65 31.3633 152.525 31.4251 152.434 31.5248C152.343 31.6243 152.292 31.7544 152.292 31.8894C152.292 32.0244 152.343 32.1544 152.434 32.254C152.525 32.3537 152.65 32.4155 152.785 32.4274ZM152.447 32.229V32.1151L152.532 32.0856V31.613H152.447V31.5202H152.814C152.983 31.5202 153.127 31.5751 153.127 31.7438C153.13 31.7885 153.117 31.8329 153.091 31.8692C153.065 31.9055 153.027 31.9313 152.983 31.9421C152.994 31.9786 153.013 32.0124 153.037 32.0414C153.062 32.0704 153.092 32.0941 153.127 32.1109H153.181V32.2248H152.983C152.915 32.1491 152.858 32.0638 152.814 31.9717H152.759V32.1109L152.844 32.1404V32.2543L152.447 32.229ZM152.73 31.6341V31.8324H152.785C152.873 31.8324 152.899 31.8029 152.899 31.7185C152.899 31.6341 152.844 31.6088 152.759 31.6088H152.734L152.73 31.6341Z" fill="#626263"/>
</svg>
