<svg width="150" height="50" viewBox="0 0 150 50" fill="none" xmlns="http://www.w3.org/2000/svg">
<path d="M82.2229 19.8328C82.2229 16.6704 82.2774 13.7263 82.4408 11L74.0998 12.5812V13.3444L74.9177 13.4536C75.5171 13.5081 75.8989 13.7263 76.1168 14.0534C76.3349 14.435 76.4987 14.9803 76.6076 15.798C76.7165 17.3792 76.8258 20.9779 76.771 26.6483C76.771 32.264 76.7165 35.8082 76.6076 37.1712C79.6046 37.8255 81.9503 38.0981 83.6947 38.0981C86.9659 38.0981 89.5276 37.1712 91.3818 35.2619C93.2351 33.4081 94.2177 30.7911 94.2177 27.5739C94.2177 25.0115 93.5087 22.8851 92.0908 21.1948C90.6729 19.5047 88.8743 18.6867 86.7481 18.6867C85.3301 18.6867 83.8587 19.0686 82.2233 19.8318L82.2229 19.8328ZM82.3863 36.6258C82.2774 34.8812 82.1685 29.647 82.1685 21.0868C82.6589 20.9231 83.3131 20.8142 84.131 20.8142C85.4394 20.8142 86.4751 21.4685 87.2386 22.8314C88.002 24.1944 88.3832 25.8287 88.3832 27.9021C88.3832 30.465 87.9472 32.5366 87.0749 34.2815C86.2025 35.9716 85.1123 36.8441 83.7491 36.8441C83.3131 36.7348 82.8771 36.6803 82.3863 36.6258ZM42.8069 11.5453H21V12.6356L22.145 12.7449C23.017 12.9083 23.6167 13.2354 23.997 13.7263C24.3788 14.2712 24.5969 15.1435 24.6515 16.3433C25.0875 22.2319 25.0875 27.7387 24.6515 32.8093C24.5421 34.0088 24.324 34.8811 23.997 35.4263C23.6167 35.9716 23.017 36.3 22.145 36.4077L21 36.5714V37.6618H35.0653V36.5714L33.5935 36.4612C32.7212 36.3519 32.1215 35.9704 31.7399 35.4795C31.3583 34.9344 31.1403 34.0621 31.0857 32.8624C30.922 30.6815 30.8131 28.1734 30.8131 25.393L33.7569 25.4474C35.3379 25.5019 36.4284 26.7014 36.9737 29.1003H38.0639V20.2144H36.9737C36.4284 22.5591 35.3927 23.7596 33.7569 23.8131L30.8131 23.8675C30.8131 18.9603 30.922 15.4709 31.0857 13.3444H35.3927C38.4454 13.3444 40.5166 15.3074 41.7167 19.233L43.0251 18.8514L42.8069 11.5453ZM40.2446 28.3394C40.2446 31.1755 41.0622 33.519 42.6432 35.3728C44.2242 37.2266 46.5686 38.0991 49.5124 38.0991C52.4563 38.0991 54.8552 37.1722 56.5999 35.2629C58.3442 33.4091 59.1621 31.0644 59.1621 28.2292C59.1621 25.3939 58.3442 23.0495 56.7632 21.1957C55.1822 19.3419 52.8391 18.4698 49.894 18.4698C46.9489 18.4698 44.5513 19.3967 42.8069 21.3059C41.0622 23.1585 40.2446 25.5032 40.2446 28.3394ZM52.4018 22.1226C53.056 23.7038 53.3286 25.7758 53.3286 28.2839C53.3286 34.0634 52.1292 36.8986 49.7838 36.8986C48.5843 36.8986 47.6575 36.0807 47.0033 34.4449C46.3491 32.8093 46.0765 30.7385 46.0765 28.2839C46.0765 22.5591 47.276 19.7238 49.6214 19.7238C50.8205 19.669 51.7483 20.487 52.4015 22.1226H52.4018ZM98.4689 35.3718C100.268 37.1712 102.558 38.0981 105.284 38.0981C106.974 38.0981 108.446 37.771 109.754 37.0619C111.062 36.4077 112.098 35.59 112.807 34.6086L112.263 33.9543C111.064 34.8812 109.701 35.3174 108.12 35.3174C105.94 35.3174 104.249 34.6083 103.105 33.1364C101.905 31.6642 101.36 29.8103 101.469 27.4115H113.135C113.135 24.7944 112.481 22.668 111.118 20.9779C109.755 19.3419 107.847 18.524 105.394 18.5243C102.341 18.5243 99.9964 19.5056 98.3065 21.414C96.6166 23.3223 95.7987 25.6682 95.7987 28.4473C95.7987 31.2835 96.6707 33.5718 98.4699 35.3718H98.4689ZM102.503 21.6866C103.103 20.3781 103.866 19.7238 104.902 19.7238C106.538 19.7238 107.355 21.7955 107.355 25.9938L101.576 26.103C101.631 24.4674 101.904 22.9951 102.503 21.6866ZM127.801 19.5056C126.328 18.8514 124.475 18.4698 122.24 18.4698C119.95 18.4698 118.151 19.0696 116.788 20.2144C115.425 21.3591 114.716 22.7769 114.716 24.4686C114.716 25.9406 115.153 27.0857 115.97 27.9033C116.788 28.721 118.097 29.43 119.786 30.0304C121.313 30.5758 122.403 31.1211 122.948 31.6116C123.494 32.1569 123.821 32.7567 123.821 33.5744C123.821 34.3379 123.548 35.0467 122.948 35.5919C122.403 36.1917 121.64 36.4644 120.659 36.4644C118.26 36.4644 116.461 34.7195 115.207 31.23L114.28 31.5027L114.498 36.955C116.461 37.7186 118.642 38.1002 121.04 38.1C123.548 38.1 125.455 37.5547 126.873 36.4096C128.291 35.3193 129 33.7381 129 31.7754C129 30.4669 128.673 29.3762 127.964 28.5585C127.255 27.7409 126.11 27.0319 124.475 26.3776C122.676 25.7233 121.422 25.1236 120.769 24.5782C120.116 24.0329 119.785 23.3761 119.785 22.5591C119.785 21.742 120.003 21.0868 120.494 20.5415C120.985 19.9962 121.584 19.7783 122.348 19.7783C124.528 19.7783 126.109 21.3594 127.091 24.4674L128.017 24.1947L127.801 19.5056ZM75.3537 19.0148C74.5906 18.6332 73.7727 18.4698 72.8459 18.4698C71.919 18.4698 70.9922 18.8514 69.9565 19.6146C68.9208 20.3778 68.1573 21.414 67.5576 22.8314L67.6121 18.4698L59.3255 20.1054V20.8686L60.1434 20.9231C61.1792 21.0323 61.7789 21.85 61.8878 23.3223C62.215 26.7028 62.215 30.3018 61.8878 34.1191C61.7789 35.5913 61.1788 36.3545 60.1434 36.5182L59.3255 36.6271V37.6631H70.8833V36.6258L69.4112 36.5169C68.3755 36.4077 67.7758 35.59 67.6669 34.1178C67.3398 30.9554 67.285 27.5752 67.5576 24.0854C67.8848 23.5406 68.5938 23.2135 69.6845 23.104C70.7747 22.9951 72.0286 23.3223 73.3373 24.0854L75.3537 19.0148Z" fill="#747172"/>
</svg>
