<svg width="154" height="50" viewBox="0 0 154 50" fill="none" xmlns="http://www.w3.org/2000/svg">
<path d="M121.815 19.2028C121.815 17.634 122.801 16.5869 124.169 16.5869C125.377 16.5869 126.163 17.2428 126.325 18.3552C126.875 17.7374 127.55 17.243 128.305 16.9045C129.059 16.5661 129.877 16.3912 130.705 16.3913C131.648 16.3779 132.581 16.5874 133.427 17.0026C134.274 17.4178 135.012 18.0271 135.579 18.7809C136.208 18.069 136.973 17.4906 137.83 17.0801C138.686 16.6696 139.616 16.4354 140.565 16.3913C144.4 16.3913 147 18.616 147 22.7316V31.7569C147 33.3257 146.018 34.369 144.645 34.369C143.272 34.369 142.295 33.3257 142.295 31.7569V23.5486C142.295 21.6538 141.248 20.3113 139.549 20.3113C137.85 20.3113 136.772 21.6538 136.772 23.5486V31.7569C136.772 33.3218 135.79 34.369 134.421 34.369C133.051 34.369 132.066 33.3218 132.066 31.7569V23.5486C132.066 21.6538 131.019 20.3113 129.32 20.3113C127.402 20.3113 126.543 21.6538 126.543 23.5486V31.7569C126.543 33.3218 125.561 34.369 124.184 34.369C122.808 34.369 121.83 33.3218 121.83 31.7569V19.2028H121.815ZM23.7675 32.8002C23.7675 38.4578 20.0742 41.3 14.7126 41.3C12.7835 41.3 7.29531 40.3526 7.29531 37.7674C7.29531 36.8814 8.27712 35.7038 9.19373 35.7038C10.6933 35.7038 12.3616 37.1767 15.0769 37.1767C17.3781 37.1767 19.0656 35.838 19.0656 33.4484V32.3361H18.9965C18.0147 33.7744 16.4154 34.5607 14.2562 34.5607C9.3203 34.5684 7 30.2188 7 25.5432C7 20.8061 10.0106 16.3875 14.7471 16.3875C16.3464 16.3875 18.1758 17.1086 19.0617 18.5508C19.3532 17.308 20.1049 16.5869 21.4127 16.5869C22.7857 16.5869 23.7637 17.634 23.7637 19.2028V32.8002H23.7675ZM15.3684 20.7064C12.9177 20.7064 11.7058 23.2571 11.7058 25.4473C11.7058 27.9635 12.9177 30.2534 15.3684 30.2534C17.8843 30.2534 19.0617 27.9021 19.0617 25.6123C19.0617 23.3223 17.9495 20.7064 15.3684 20.7064ZM25.2095 11.6159C25.2095 10.051 26.176 9 27.5644 9C28.9527 9 29.9191 10.051 29.9191 11.6159V31.7569C29.9191 33.3218 28.9336 34.369 27.5644 34.369C26.1952 34.369 25.2095 33.3218 25.2095 31.7569V11.6159ZM47.7183 25.5125C47.7183 30.4144 44.3511 34.5684 39.2809 34.5684C34.2108 34.5684 30.8434 30.4144 30.8434 25.5125C30.8434 20.7371 34.2952 16.3875 39.2809 16.3875C44.2667 16.3875 47.7183 20.7371 47.7183 25.5125ZM35.5607 25.5125C35.5607 27.7679 36.7343 30.2495 39.2847 30.2495C41.8352 30.2495 43.0087 27.7679 43.0087 25.5125C43.0087 23.2571 41.8582 20.7064 39.2847 20.7064C36.7113 20.7064 35.5607 23.2571 35.5607 25.5125ZM48.6196 11.6159C48.6196 10.051 49.5976 9 50.9706 9C52.3436 9 53.3216 10.051 53.3216 11.6159V18.0253C54.5695 16.9588 56.1597 16.3774 57.8012 16.3875C62.8674 16.3875 65.3833 21.1322 65.3833 25.7043C65.3833 30.1536 62.3766 34.5684 57.6363 34.5684C56.0407 34.5684 54.2075 33.8473 53.3216 32.409C53.0302 33.6517 52.2822 34.369 50.9745 34.369C49.6014 34.369 48.6196 33.3218 48.6196 31.7569V11.6159ZM57.0149 30.2534C59.4656 30.2534 60.6776 27.7065 60.6776 25.5125C60.6776 23.3185 59.4656 20.7064 57.0149 20.7064C54.499 20.7064 53.3216 23.0615 53.3216 25.3476C53.3216 27.6336 54.4338 30.2534 57.0149 30.2534ZM82.7415 25.5125C82.7415 30.4144 79.3742 34.5684 74.304 34.5684C69.2339 34.5684 65.8666 30.4144 65.8666 25.5125C65.8666 20.7371 69.3182 16.3875 74.304 16.3875C79.2898 16.3875 82.7415 20.7371 82.7415 25.5125ZM70.5839 25.5125C70.5839 27.7679 71.7575 30.2495 74.3079 30.2495C76.8583 30.2495 78.0319 27.7679 78.0319 25.5125C78.0319 23.2571 76.8813 20.7064 74.3079 20.7064C71.7345 20.7064 70.5839 23.2571 70.5839 25.5125ZM86.6036 29.4632C87.1092 29.4617 87.604 29.6103 88.0251 29.8903C88.4462 30.1702 88.7748 30.5689 88.9692 31.0357C89.1636 31.5026 89.215 32.0167 89.117 32.5128C89.019 33.0089 88.7759 33.4648 88.4187 33.8227C88.0614 34.1806 87.606 34.4243 87.11 34.5231C86.6141 34.6218 86.0999 34.5711 85.6329 34.3774C85.1657 34.1837 84.7667 33.8557 84.4861 33.435C84.2055 33.0142 84.0562 32.5196 84.0569 32.0139C84.0599 31.339 84.3291 30.6926 84.806 30.215C85.2827 29.7374 85.9287 29.4672 86.6036 29.4632ZM102.88 21.6231C101.699 21.6231 100.656 20.7064 99.1485 20.7064C96.4638 20.7064 95.1945 23.0922 95.1945 25.5125C95.1945 27.8331 96.6019 30.2534 99.1485 30.2534C100.326 30.2534 102.094 29.2714 102.646 29.2714C103.186 29.2814 103.7 29.5021 104.079 29.8862C104.458 30.2704 104.672 30.7876 104.675 31.3273C104.675 33.7514 100.621 34.5684 98.9223 34.5684C93.8521 34.5684 90.4848 30.4144 90.4848 25.5125C90.4848 20.7371 93.9365 16.3875 98.9223 16.3875C100.782 16.3875 104.675 17.0779 104.675 19.3678C104.656 20.3459 103.969 21.6231 102.88 21.6231ZM120.906 25.5125C120.906 30.4144 117.538 34.5684 112.468 34.5684C107.398 34.5684 104.031 30.4144 104.031 25.5125C104.031 20.7371 107.482 16.3875 112.468 16.3875C117.454 16.3875 120.906 20.7371 120.906 25.5125ZM108.744 25.5125C108.744 27.7679 109.922 30.2495 112.468 30.2495C115.014 30.2495 116.192 27.7679 116.192 25.5125C116.192 23.2571 115.041 20.7064 112.468 20.7064C109.895 20.7064 108.759 23.2571 108.759 25.5125H108.744Z" fill="#626263"/>
</svg>
