<svg width="35" height="37" viewBox="0 0 35 37" fill="none" xmlns="http://www.w3.org/2000/svg">
<g clip-path="url(#clip0_434_363)">
<path d="M28.3864 0H6.61355C4.86044 0.00302128 3.17999 0.710676 1.94035 1.96793C0.700719 3.22518 0.00297895 4.92951 0 6.70754L0 30.281C-2.53809e-06 32.061 0.696421 33.7683 1.93638 35.028C3.17634 36.2877 4.85849 36.997 6.61355 37H28.3864C29.2557 36.9993 30.1163 36.8249 30.9191 36.4868C31.7219 36.1487 32.4511 35.6536 33.0653 35.0297C33.6794 34.4058 34.1663 33.6653 34.4983 32.8505C34.8303 32.0357 35.0007 31.1626 35 30.281V6.70754C34.9985 4.92905 34.3012 3.22384 33.0613 1.96626C31.8213 0.708684 30.14 0.00151296 28.3864 0V0ZM28.3864 34.4975H6.61355C6.06833 34.4968 5.5286 34.3871 5.02516 34.1748C4.52173 33.9625 4.06446 33.6517 3.67945 33.2602C3.29445 32.8686 2.98925 32.404 2.78129 31.8929C2.57332 31.3817 2.46667 30.834 2.46741 30.281V6.70754C2.4689 5.59275 2.9062 4.52405 3.68343 3.73577C4.46066 2.9475 5.51438 2.50398 6.61355 2.50247H28.3864C29.4866 2.50247 30.5418 2.94532 31.3202 3.73376C32.0987 4.5222 32.5367 5.59176 32.5382 6.70754V30.281C32.539 30.8345 32.4321 31.3827 32.2238 31.8942C32.0155 32.4057 31.7098 32.8706 31.3242 33.2622C30.9386 33.6538 30.4807 33.9645 29.9766 34.1765C29.4725 34.3884 28.9321 34.4975 28.3864 34.4975Z" fill="#B3B3B3"/>
<path d="M7.94305 12.1582H8.55145C8.77115 12.1582 8.99085 12.1582 9.20492 12.1925C9.40586 12.2114 9.60534 12.2439 9.80205 12.2896C9.9703 12.3241 10.132 12.3858 10.2809 12.4724C10.575 12.6563 10.8251 12.9041 11.0132 13.198C11.2253 13.5394 11.3313 13.9375 11.3174 14.3407C11.3286 14.7771 11.2109 15.2069 10.9794 15.5748C10.7408 15.9264 10.4002 16.194 10.0049 16.3404C10.5106 16.4342 10.962 16.7203 11.2667 17.1403C11.5614 17.5447 11.7141 18.0374 11.7005 18.5401C11.7015 18.8645 11.6423 19.1863 11.5259 19.4885C11.4123 19.7955 11.2378 20.0755 11.0132 20.3112C10.7737 20.5564 10.4883 20.7507 10.1739 20.8826C9.80474 21.0296 9.40966 21.0977 9.01338 21.0825H4.73767V12.1582H7.94305ZM8.26415 15.9976C8.76994 16.0402 9.27577 15.916 9.70628 15.6434C9.85554 15.5105 9.97238 15.3444 10.0476 15.158C10.1229 14.9717 10.1545 14.7701 10.1401 14.5693C10.1545 14.3112 10.1041 14.0537 9.99359 13.8208C9.90129 13.6418 9.7606 13.4931 9.58799 13.3923C9.40955 13.293 9.21489 13.2272 9.01338 13.198C8.7651 13.1628 8.51484 13.1437 8.26415 13.1409H5.91504V15.9976H8.26415ZM8.85565 20.0884C9.30112 20.1141 9.73853 19.96 10.0725 19.6599C10.2191 19.5102 10.3338 19.3315 10.4094 19.1349C10.485 18.9384 10.5199 18.7281 10.5119 18.5172C10.5223 18.2656 10.4679 18.0155 10.3541 17.7916C10.251 17.6056 10.1039 17.4485 9.92599 17.3345C9.73767 17.2168 9.52948 17.1354 9.31195 17.0946C9.07622 17.0483 8.83662 17.0254 8.59652 17.026H5.91504V20.117L8.85565 20.0884Z" fill="#B3B3B3"/>
<path d="M17.4634 21.0825V20.0541C17.2692 20.4261 16.9714 20.7321 16.6071 20.9339C16.2295 21.131 15.8093 21.2292 15.3847 21.2196C15.026 21.2303 14.6686 21.1722 14.3313 21.0482C14.0608 20.9502 13.8187 20.7852 13.6271 20.5683C13.4532 20.3515 13.3299 20.0975 13.2666 19.8255C13.1904 19.5077 13.1545 19.1813 13.1595 18.8542V14.6206H14.213V18.9914C14.2037 19.1657 14.2293 19.3401 14.2884 19.5041C14.3474 19.6681 14.4387 19.8183 14.5566 19.9455C14.6845 20.0649 14.8345 20.1572 14.998 20.217C15.1615 20.2769 15.3351 20.303 15.5086 20.294C15.7915 20.2993 16.0728 20.2489 16.3367 20.1455C16.5532 20.0462 16.7455 19.8999 16.9001 19.717C17.0577 19.5275 17.1764 19.308 17.2493 19.0713C17.3402 18.8182 17.3915 18.5521 17.4014 18.2829V14.6206H18.4549V21.0825H17.4634Z" fill="#B3B3B3"/>
<path d="M21.1138 14.6205V15.9974C21.3207 15.5378 21.6456 15.1432 22.0546 14.8547C22.4755 14.5892 22.9684 14.4653 23.4629 14.5005V15.6432C23.0965 15.6334 22.7315 15.6935 22.3869 15.8203C22.108 15.9249 21.8612 16.1022 21.6715 16.3345C21.4817 16.5737 21.347 16.8528 21.2772 17.1515C21.1891 17.5121 21.1474 17.8828 21.1532 18.2542V21.1109H20.1223V14.6205H21.1138Z" fill="#B3B3B3"/>
<path d="M24.2516 16.5233C24.3737 16.1197 24.577 15.7461 24.8487 15.4263C25.1177 15.1169 25.4504 14.8711 25.8233 14.7064C26.6818 14.356 27.6407 14.356 28.4991 14.7064C28.8704 14.8741 29.2025 15.1194 29.4737 15.4263C29.7309 15.7422 29.9226 16.1076 30.037 16.5005C30.1703 16.9312 30.2368 17.3803 30.2342 17.8317C30.2373 18.2813 30.1707 18.7285 30.037 19.1572C29.9224 19.5483 29.7308 19.9118 29.4737 20.2256C29.2033 20.532 28.8709 20.7756 28.4991 20.9398C27.6392 21.2827 26.6832 21.2827 25.8233 20.9398C25.4496 20.7791 25.1165 20.535 24.8487 20.2256C24.5798 19.9146 24.3766 19.5509 24.2516 19.1572C24.1179 18.7285 24.0514 18.2813 24.0544 17.8317C24.0541 17.3879 24.1206 16.9467 24.2516 16.5233ZM25.3501 18.9001C25.4396 19.1806 25.5853 19.4393 25.7782 19.66C25.9544 19.8611 26.1716 20.0209 26.4148 20.1285C26.6578 20.2377 26.9207 20.2942 27.1866 20.2942C27.4524 20.2942 27.7153 20.2377 27.9583 20.1285C28.2023 20.0224 28.4198 19.8623 28.5949 19.66C28.7897 19.4408 28.9357 19.1816 29.023 18.9001C29.1317 18.5627 29.185 18.2095 29.1808 17.8545C29.1841 17.4997 29.1309 17.1466 29.023 16.809C28.9344 16.5263 28.7886 16.2656 28.5949 16.0434C28.42 15.8394 28.2026 15.6774 27.9583 15.5692C27.7153 15.4599 27.4524 15.4034 27.1866 15.4034C26.9207 15.4034 26.6578 15.4599 26.4148 15.5692C26.1714 15.6789 25.9542 15.8406 25.7782 16.0434C25.5865 16.267 25.4409 16.5273 25.3501 16.809C25.2443 17.1469 25.1929 17.5 25.198 17.8545C25.192 18.2091 25.2434 18.5623 25.3501 18.9001ZM27.5471 11.4727L26.3585 13.4952H27.1528L28.8935 11.4727H27.5471Z" fill="#B3B3B3"/>
<path d="M5.4813 23.6534C5.68597 23.6407 5.88763 23.7082 6.04464 23.8419C6.11407 23.9186 6.16736 24.0087 6.20126 24.107C6.23516 24.2052 6.24896 24.3094 6.24181 24.4133C6.24291 24.5347 6.22775 24.6558 6.19674 24.7732C6.17258 24.8703 6.12627 24.9603 6.06154 25.036C5.99657 25.1119 5.91301 25.169 5.8193 25.2017C5.71032 25.2381 5.59603 25.2555 5.4813 25.2531H4.91797V23.6534H5.4813ZM5.4813 25.0817H5.5658C5.60507 25.087 5.64484 25.087 5.6841 25.0817C5.72673 25.0676 5.76672 25.0464 5.8024 25.0189C5.84485 24.9903 5.88123 24.9534 5.90944 24.9103C5.94296 24.8576 5.9677 24.7997 5.98267 24.7389C5.99533 24.6537 5.99533 24.567 5.98267 24.4818C5.9918 24.3964 5.9918 24.3102 5.98267 24.2247C5.96329 24.1543 5.93078 24.0884 5.8869 24.0305C5.84363 23.9768 5.78733 23.9354 5.72354 23.9105C5.64435 23.8806 5.56009 23.867 5.47567 23.8705H5.1433V25.0817H5.4813Z" fill="#B3B3B3"/>
<path d="M7.28389 25.1847C7.18981 25.2559 7.07447 25.2922 6.95716 25.2876C6.87608 25.2885 6.79563 25.2729 6.72056 25.2419C6.65567 25.2133 6.59792 25.1703 6.55156 25.1162C6.50202 25.0603 6.46545 24.994 6.44452 24.9219C6.42183 24.8419 6.4086 24.7594 6.40509 24.6762C6.40582 24.5946 6.41913 24.5137 6.44452 24.4363C6.47187 24.366 6.50989 24.3004 6.55719 24.242C6.60694 24.1892 6.66622 24.1465 6.73182 24.1163C6.79916 24.0858 6.87214 24.0702 6.94589 24.0706C7.03628 24.0675 7.12582 24.0892 7.20503 24.1335C7.2698 24.1752 7.32387 24.232 7.36276 24.2991C7.40811 24.3634 7.43714 24.4379 7.44726 24.5163C7.45559 24.5903 7.45559 24.665 7.44726 24.7391H6.60789C6.602 24.7865 6.602 24.8345 6.60789 24.8819C6.61935 24.9261 6.64053 24.9672 6.66986 25.0019C6.70188 25.0397 6.74247 25.0691 6.78816 25.0876C6.84278 25.1171 6.90372 25.1325 6.96561 25.1325C7.0275 25.1325 7.08844 25.1171 7.14306 25.0876C7.17086 25.0678 7.19426 25.0424 7.21172 25.0128C7.22919 24.9833 7.24035 24.9504 7.24446 24.9162H7.43599C7.41677 25.0206 7.36314 25.1153 7.28389 25.1847ZM7.23883 24.442C7.22453 24.4011 7.20144 24.3641 7.17123 24.3334C7.14102 24.3028 7.10445 24.2794 7.06419 24.2649C7.02147 24.2558 6.97735 24.2558 6.93463 24.2649C6.89185 24.2562 6.84783 24.2562 6.80506 24.2649C6.76579 24.2809 6.73097 24.3064 6.70366 24.3391C6.67486 24.3687 6.65191 24.4036 6.63606 24.442C6.62755 24.4834 6.62755 24.5262 6.63606 24.5677H7.26699C7.26643 24.5242 7.25684 24.4814 7.23883 24.442Z" fill="#B3B3B3"/>
<path d="M9.41333 23.6533V23.8361H8.52326V24.3446H9.35137V24.5275H8.52326V25.0988H9.41897V25.2759H8.2923V23.6533H9.41333Z" fill="#B3B3B3"/>
<path d="M9.81892 24.099V24.2819C9.85587 24.2142 9.91089 24.1585 9.97765 24.1211C10.0444 24.0837 10.1202 24.0661 10.1964 24.0705C10.26 24.0686 10.3233 24.0803 10.3823 24.1047C10.4307 24.1209 10.4737 24.1506 10.5062 24.1904C10.5353 24.2304 10.5581 24.2748 10.5738 24.3219C10.5796 24.3807 10.5796 24.4401 10.5738 24.499V25.2589H10.3823V24.4761C10.3848 24.4447 10.3806 24.4131 10.3699 24.3835C10.3592 24.3539 10.3423 24.327 10.3203 24.3047C10.2983 24.2824 10.2718 24.2653 10.2426 24.2544C10.2134 24.2435 10.1823 24.2393 10.1513 24.2419C10.101 24.2328 10.0495 24.2328 9.99919 24.2419C9.95912 24.2619 9.92288 24.289 9.89215 24.3219C9.86491 24.3559 9.84393 24.3946 9.83019 24.4361C9.8243 24.4835 9.8243 24.5315 9.83019 24.579V25.236H9.64429V24.0933L9.81892 24.099Z" fill="#B3B3B3"/>
<path d="M11.3737 24.0992V24.2649H11.1428V24.9905C11.1393 25.0075 11.1393 25.025 11.1428 25.0419C11.1401 25.0532 11.1401 25.0649 11.1428 25.0762H11.1878H11.3456V25.2419H11.0752C11.0443 25.2356 11.0153 25.2219 10.9907 25.2019C10.9663 25.1833 10.9485 25.1573 10.94 25.1276C10.9337 25.084 10.9337 25.0398 10.94 24.9962V24.2535H10.7597V24.0878H10.9569V23.7393H11.1428V24.0878L11.3737 24.0992Z" fill="#B3B3B3"/>
<path d="M11.5934 23.8876V23.6533H11.7793V23.8876H11.5934ZM11.7793 24.099V25.2416H11.5934V24.099H11.7793Z" fill="#B3B3B3"/>
<path d="M12.9173 25.2588V25.1045C12.8861 25.1665 12.8342 25.2151 12.7708 25.2416C12.7013 25.2717 12.6266 25.2872 12.5511 25.2874C12.4751 25.29 12.3994 25.275 12.3301 25.2433C12.2607 25.2115 12.1995 25.1641 12.1511 25.1045C12.1053 25.047 12.0708 24.9811 12.0497 24.9103C12.0294 24.8338 12.0181 24.7552 12.0159 24.676C12.0157 24.5967 12.0271 24.5177 12.0497 24.4418C12.0708 24.371 12.1053 24.305 12.1511 24.2475C12.1941 24.1921 12.2503 24.1488 12.3145 24.1218C12.3863 24.086 12.4655 24.0684 12.5455 24.0704H12.6412L12.7426 24.099C12.7763 24.1148 12.8084 24.1339 12.8384 24.1561C12.8703 24.1788 12.8971 24.208 12.9173 24.2418V23.6533H13.1032V25.2588H12.9173ZM12.2356 24.8474C12.247 24.8969 12.2681 24.9435 12.2976 24.9845C12.3253 25.0271 12.3644 25.0608 12.4103 25.0817C12.4582 25.1095 12.5128 25.1234 12.568 25.1217C12.6249 25.122 12.6809 25.1083 12.7314 25.0817C12.7764 25.0568 12.8149 25.0216 12.844 24.9788C12.8719 24.9375 12.891 24.8908 12.9004 24.8417C12.9086 24.7887 12.9086 24.7347 12.9004 24.6817C12.909 24.6269 12.909 24.5709 12.9004 24.516C12.889 24.4648 12.868 24.4163 12.8384 24.3732C12.8062 24.329 12.7635 24.2937 12.7142 24.2707C12.665 24.2478 12.6108 24.2378 12.5567 24.2418C12.5022 24.2397 12.4479 24.2515 12.399 24.2761C12.3557 24.3011 12.319 24.3364 12.292 24.3789C12.2624 24.422 12.2413 24.4705 12.23 24.5218C12.2245 24.5768 12.2245 24.6324 12.23 24.6874C12.2232 24.7407 12.2251 24.7948 12.2356 24.8474Z" fill="#B3B3B3"/>
<path d="M14.4157 25.2591C14.3712 25.2693 14.325 25.2693 14.2805 25.2591C14.2576 25.2611 14.2345 25.2577 14.213 25.2494C14.1915 25.241 14.1721 25.2278 14.1564 25.2107C14.1407 25.1937 14.129 25.1732 14.1222 25.1509C14.1154 25.1286 14.1136 25.105 14.1171 25.0819C14.0691 25.142 14.0072 25.1891 13.9369 25.2191C13.8644 25.2449 13.7883 25.2584 13.7115 25.2591C13.6629 25.265 13.6137 25.265 13.5651 25.2591C13.5227 25.247 13.4827 25.2277 13.4468 25.2019C13.4115 25.1743 13.3827 25.1392 13.3623 25.0991C13.3527 25.05 13.3527 24.9996 13.3623 24.9505C13.3602 24.8952 13.3718 24.8402 13.3961 24.7906C13.4148 24.7493 13.4439 24.7138 13.4806 24.6877C13.5189 24.6612 13.5606 24.64 13.6045 24.6249L13.751 24.5906H13.8974H14.0214C14.0531 24.5869 14.0828 24.5729 14.1059 24.5506C14.1173 24.5408 14.1262 24.5285 14.1321 24.5147C14.138 24.5008 14.1406 24.4857 14.1397 24.4706C14.1474 24.4368 14.1474 24.4016 14.1397 24.3678C14.1249 24.343 14.1034 24.3232 14.0777 24.3106C14.0522 24.2943 14.0232 24.2845 13.9932 24.2821H13.9031C13.8344 24.2776 13.7659 24.2935 13.7059 24.3278C13.677 24.3454 13.6533 24.3706 13.6374 24.4008C13.6215 24.431 13.614 24.465 13.6158 24.4992H13.4299C13.4294 24.4353 13.4449 24.3724 13.4749 24.3163C13.5012 24.2686 13.5378 24.2276 13.582 24.1964C13.6285 24.1663 13.68 24.145 13.7341 24.1335C13.7939 24.1248 13.8546 24.1248 13.9143 24.1335H14.0721C14.1198 24.1392 14.1658 24.1547 14.2073 24.1792C14.2499 24.2005 14.2853 24.2344 14.3087 24.2764C14.3375 24.3265 14.3512 24.3841 14.3481 24.442V25.0134C14.3446 25.0476 14.3446 25.082 14.3481 25.1162C14.3481 25.1162 14.3481 25.1448 14.4044 25.1448H14.4608L14.4157 25.2591ZM14.0833 24.6591C14.0572 24.6802 14.0262 24.694 13.9932 24.6991H13.8693H13.7397C13.7006 24.7044 13.6626 24.716 13.627 24.7334C13.5935 24.7457 13.5642 24.7675 13.5425 24.7963C13.519 24.8273 13.507 24.8657 13.5087 24.9048C13.5015 24.931 13.5015 24.9587 13.5087 24.9848C13.5208 25.0078 13.5382 25.0274 13.5594 25.0419C13.5799 25.0559 13.6029 25.0656 13.627 25.0705H13.7115C13.7637 25.08 13.8171 25.08 13.8693 25.0705C13.9112 25.0559 13.9495 25.0326 13.9819 25.002C14.0087 24.9784 14.0298 24.9492 14.0439 24.9163C14.0492 24.8879 14.0492 24.8589 14.0439 24.8306L14.0833 24.6591Z" fill="#B3B3B3"/>
<path d="M15.4297 25.2588V25.1045C15.4004 25.1678 15.3478 25.217 15.2833 25.2416C15.2138 25.2717 15.1391 25.2872 15.0636 25.2874C14.9836 25.2894 14.9044 25.2717 14.8326 25.2359C14.768 25.2069 14.7118 25.1617 14.6692 25.1045C14.6233 25.047 14.5889 24.9811 14.5678 24.9103C14.5447 24.8344 14.5333 24.7554 14.534 24.676C14.5338 24.5967 14.5452 24.5177 14.5678 24.4418C14.5872 24.3714 14.6197 24.3055 14.6636 24.2475C14.7089 24.1946 14.7645 24.1519 14.827 24.1218C14.8989 24.0867 14.978 24.069 15.0579 24.0704H15.1537L15.2551 24.099L15.3565 24.1561C15.3866 24.1791 15.4116 24.2083 15.4297 24.2418V23.6533H15.6213V25.2588H15.4297ZM14.7481 24.8474C14.7637 24.8963 14.7865 24.9425 14.8157 24.9845C14.8434 25.0271 14.8825 25.0608 14.9284 25.0817C14.976 25.1101 15.0308 25.124 15.0861 25.1217C15.1429 25.1214 15.1988 25.1077 15.2495 25.0817C15.2928 25.0566 15.3295 25.0213 15.3565 24.9788C15.386 24.9378 15.4071 24.8912 15.4185 24.8417C15.424 24.7885 15.424 24.7349 15.4185 24.6817C15.4243 24.6267 15.4243 24.5711 15.4185 24.516C15.4053 24.4644 15.3823 24.4159 15.3509 24.3732C15.3214 24.3322 15.2828 24.2989 15.2382 24.2761C15.1668 24.233 15.0818 24.2196 15.0009 24.2388C14.92 24.258 14.8496 24.3082 14.8044 24.3789C14.7766 24.4223 14.7574 24.4709 14.7481 24.5218C14.7426 24.5768 14.7426 24.6324 14.7481 24.6874C14.7423 24.7406 14.7423 24.7943 14.7481 24.8474Z" fill="#B3B3B3"/>
<path d="M16.7254 25.1847C16.6318 25.2568 16.5161 25.2932 16.3987 25.2876C16.3176 25.2885 16.2372 25.2729 16.1621 25.2419C16.0972 25.2133 16.0395 25.1703 15.9931 25.1162C15.9452 25.0592 15.9088 24.9931 15.8861 24.9219C15.8634 24.8419 15.8501 24.7594 15.8466 24.6762C15.8463 24.594 15.8616 24.5126 15.8917 24.4363C15.9145 24.365 15.9508 24.299 15.9987 24.242C16.0485 24.1892 16.1078 24.1465 16.1734 24.1163C16.2411 24.087 16.3138 24.0715 16.3874 24.0706C16.4778 24.0675 16.5674 24.0892 16.6466 24.1335C16.7113 24.1752 16.7654 24.232 16.8043 24.2991C16.8489 24.3644 16.8796 24.4383 16.8944 24.5163C16.9 24.5904 16.9 24.6649 16.8944 24.7391H16.0494C16.0435 24.7865 16.0435 24.8345 16.0494 24.8819C16.0607 24.9274 16.0841 24.9689 16.117 25.0019C16.1468 25.0397 16.1856 25.0692 16.2297 25.0876C16.2853 25.1171 16.3472 25.1326 16.41 25.1326C16.4727 25.1326 16.5346 25.1171 16.5902 25.0876C16.6429 25.0444 16.6788 24.9837 16.6916 24.9162H16.9001C16.8749 25.0238 16.8131 25.1189 16.7254 25.1847ZM16.6804 24.442C16.6633 24.4026 16.6405 24.366 16.6128 24.3334C16.5836 24.3042 16.5492 24.2809 16.5114 24.2649C16.4667 24.2558 16.4208 24.2558 16.3762 24.2649C16.3334 24.2562 16.2894 24.2562 16.2466 24.2649C16.2073 24.2809 16.1725 24.3064 16.1452 24.3391C16.1164 24.3687 16.0934 24.4036 16.0776 24.442C16.0596 24.4814 16.05 24.5242 16.0494 24.5677H16.7085C16.708 24.5242 16.6984 24.4814 16.6804 24.442Z" fill="#B3B3B3"/>
<path d="M17.2493 25.0021C17.2679 25.0306 17.293 25.0541 17.3225 25.0706L17.4183 25.1106H17.531H17.6267C17.6566 25.1159 17.6871 25.1159 17.7169 25.1106C17.7437 25.1003 17.7672 25.0825 17.7845 25.0592C17.804 25.0329 17.8139 25.0006 17.8126 24.9678C17.8127 24.9464 17.8075 24.9254 17.7977 24.9064C17.7879 24.8875 17.7737 24.8713 17.7563 24.8592C17.7132 24.8305 17.6656 24.8092 17.6155 24.7964L17.4634 24.7278C17.4014 24.7183 17.3409 24.701 17.2831 24.6764C17.2293 24.6557 17.181 24.6224 17.1423 24.5793C17.1023 24.5294 17.0823 24.4663 17.0859 24.4022C17.0835 24.3497 17.0972 24.2977 17.1254 24.2536C17.1469 24.2088 17.1826 24.1726 17.2268 24.1508C17.2675 24.1226 17.3135 24.1031 17.362 24.0936C17.4123 24.0853 17.4637 24.0853 17.5141 24.0936C17.574 24.0875 17.6344 24.0875 17.6943 24.0936C17.7458 24.1047 17.7953 24.124 17.8408 24.1508C17.8845 24.1785 17.9196 24.2181 17.9422 24.265C17.9703 24.3198 17.9857 24.3804 17.9873 24.4422H17.7957C17.797 24.4093 17.7871 24.377 17.7676 24.3507C17.753 24.3245 17.7315 24.3027 17.7056 24.2879L17.6211 24.2536H17.4465H17.3676C17.3439 24.264 17.3227 24.2796 17.3056 24.2993C17.2983 24.3235 17.2983 24.3494 17.3056 24.3736C17.3081 24.4044 17.3223 24.4331 17.3451 24.4536C17.37 24.4771 17.3986 24.4964 17.4296 24.5107L17.5535 24.545H17.6831L17.8239 24.585C17.8663 24.597 17.9063 24.6163 17.9422 24.6421C17.9775 24.6674 18.0064 24.7006 18.0267 24.7393C18.051 24.7806 18.0627 24.8283 18.0605 24.8764C18.0619 24.9385 18.0463 24.9998 18.0154 25.0535C17.9866 25.0979 17.948 25.1351 17.9028 25.162C17.8547 25.1932 17.8011 25.2145 17.745 25.2249C17.687 25.2305 17.6285 25.2305 17.5704 25.2249C17.5106 25.2336 17.4499 25.2336 17.3901 25.2249C17.334 25.2145 17.2805 25.1932 17.2324 25.162C17.1899 25.1283 17.1553 25.0853 17.131 25.0364C17.0997 24.9808 17.0841 24.9175 17.0859 24.8535H17.2718C17.2461 24.8984 17.2381 24.9514 17.2493 25.0021Z" fill="#B3B3B3"/>
<path d="M19.9139 23.6533V23.8361H19.0801V24.3446H19.8125V24.5275H19.0801V25.2588H18.8717V23.6533H19.9139Z" fill="#B3B3B3"/>
<path d="M20.1279 23.8876V23.6533H20.3138V23.8876H20.1279ZM20.3138 24.099V25.2416H20.1279V24.099H20.3138Z" fill="#B3B3B3"/>
<path d="M20.7871 24.0992V24.2821C20.8236 24.2153 20.8777 24.1602 20.9434 24.1229C21.0091 24.0855 21.0837 24.0675 21.1589 24.0707C21.2244 24.0684 21.2896 24.08 21.3504 24.105C21.3989 24.1211 21.4418 24.1508 21.4743 24.1907C21.5039 24.2295 21.525 24.2743 21.5363 24.3221C21.5449 24.3808 21.5449 24.4405 21.5363 24.4992V25.2591H21.3448V24.4763C21.3463 24.445 21.3416 24.4137 21.3309 24.3843C21.3203 24.3548 21.3039 24.3278 21.2828 24.3049C21.2606 24.2829 21.2341 24.266 21.2049 24.2551C21.1758 24.2443 21.1448 24.2399 21.1138 24.2421C21.0636 24.2321 21.0119 24.2321 20.9617 24.2421C20.9207 24.2606 20.8842 24.2879 20.8547 24.3221C20.8254 24.3547 20.8042 24.3938 20.7927 24.4363C20.7841 24.4836 20.7841 24.532 20.7927 24.5792V25.2362H20.6068V24.0935L20.7871 24.0992Z" fill="#B3B3B3"/>
<path d="M22.8658 25.2588C22.8213 25.2691 22.7751 25.2691 22.7306 25.2588C22.6879 25.2588 22.6464 25.2448 22.6123 25.2188C22.5819 25.1801 22.5677 25.1309 22.5728 25.0817C22.5228 25.142 22.459 25.1891 22.3869 25.2188C22.3163 25.2441 22.2421 25.2576 22.1672 25.2588C22.1167 25.2644 22.0657 25.2644 22.0151 25.2588C21.9728 25.2468 21.9327 25.2275 21.8968 25.2017C21.8617 25.1754 21.8344 25.1398 21.818 25.0988C21.7944 25.053 21.7828 25.0019 21.7842 24.9503C21.7821 24.8949 21.7937 24.8399 21.818 24.7903C21.8369 24.7474 21.8684 24.7115 21.9081 24.6875C21.9458 24.6598 21.9876 24.6386 22.032 24.6246L22.1729 24.5903H22.325H22.4489C22.4798 24.584 22.5088 24.5703 22.5334 24.5503C22.5429 24.5245 22.5429 24.4961 22.5334 24.4704C22.5438 24.4369 22.5438 24.401 22.5334 24.3675C22.5203 24.3414 22.4983 24.3211 22.4714 24.3104C22.4476 24.2951 22.4206 24.2853 22.3926 24.2818H22.3081C22.2376 24.2772 22.1672 24.293 22.1053 24.3275C22.0769 24.3454 22.054 24.3708 22.0391 24.4011C22.0242 24.4314 22.0178 24.4652 22.0208 24.4989H21.8292C21.8314 24.4354 21.8468 24.3731 21.8743 24.3161C21.9023 24.2696 21.9386 24.2289 21.9813 24.1961C22.0279 24.166 22.0794 24.1447 22.1334 24.1333C22.1951 24.1242 22.2577 24.1242 22.3193 24.1333H22.4714C22.5207 24.1397 22.5684 24.1552 22.6123 24.179C22.6526 24.2036 22.6872 24.2367 22.7137 24.2761C22.738 24.3277 22.7496 24.3846 22.7475 24.4418V25.0131C22.7434 25.0473 22.7434 25.0818 22.7475 25.116C22.7475 25.116 22.7475 25.1445 22.7982 25.1445H22.8545L22.8658 25.2588ZM22.5616 24.6589C22.5328 24.6789 22.5002 24.6925 22.4658 24.6989H22.3475H22.2179C22.1769 24.7035 22.1369 24.7151 22.0996 24.7332C22.0661 24.7455 22.0368 24.7673 22.0151 24.796C22.0056 24.8315 22.0056 24.869 22.0151 24.9046C22.0079 24.9307 22.0079 24.9584 22.0151 24.9846C22.0272 25.0075 22.0446 25.0271 22.0658 25.0417L22.1334 25.0703H22.2179C22.272 25.0798 22.3273 25.0798 22.3813 25.0703C22.4215 25.0556 22.458 25.0322 22.4883 25.0017C22.5167 24.9797 22.5382 24.95 22.5503 24.916C22.558 24.888 22.558 24.8583 22.5503 24.8303L22.5616 24.6589Z" fill="#B3B3B3"/>
<path d="M23.2207 24.0992V24.2821C23.2572 24.2153 23.3113 24.1602 23.377 24.1229C23.4426 24.0855 23.5173 24.0675 23.5925 24.0707C23.658 24.0684 23.7232 24.08 23.784 24.105C23.8325 24.1211 23.8754 24.1508 23.9079 24.1907C23.9375 24.2295 23.9586 24.2743 23.9699 24.3221C23.9757 24.381 23.9757 24.4403 23.9699 24.4992V25.2591H23.7784V24.4763C23.7799 24.445 23.7752 24.4137 23.7645 24.3843C23.7539 24.3548 23.7375 24.3278 23.7164 24.3049C23.6936 24.2822 23.6661 24.2648 23.6359 24.2539C23.6058 24.2431 23.5736 24.239 23.5418 24.2421C23.4934 24.2325 23.4437 24.2325 23.3953 24.2421C23.3543 24.2606 23.3178 24.2879 23.2883 24.3221C23.259 24.3547 23.2378 24.3938 23.2263 24.4363C23.2177 24.4836 23.2177 24.532 23.2263 24.5792V25.2362H23.0404V24.0935L23.2207 24.0992Z" fill="#B3B3B3"/>
<path d="M24.967 24.2989C24.9124 24.2563 24.8441 24.2359 24.7755 24.2418C24.7173 24.2398 24.6594 24.2516 24.6065 24.276C24.5627 24.3026 24.5245 24.3375 24.4938 24.3789C24.465 24.4238 24.4458 24.4745 24.4375 24.5274C24.4317 24.5825 24.4317 24.638 24.4375 24.6931C24.4317 24.7463 24.4317 24.7999 24.4375 24.8531C24.4494 24.9014 24.4684 24.9476 24.4938 24.9902C24.5247 25.0302 24.564 25.0628 24.6088 25.0855C24.6536 25.1082 24.7028 25.1206 24.7529 25.1216C24.8327 25.1254 24.9111 25.099 24.9726 25.0474C25.0296 24.9916 25.0638 24.9161 25.0684 24.836H25.2656C25.2531 24.9618 25.1973 25.0792 25.1078 25.1673C25.0104 25.2504 24.8857 25.2932 24.7586 25.2873C24.6775 25.2882 24.597 25.2727 24.522 25.2416C24.4573 25.2152 24.3995 25.1742 24.353 25.1216C24.3062 25.0669 24.2716 25.0026 24.2516 24.9331C24.2065 24.7764 24.2065 24.6099 24.2516 24.4532C24.272 24.3803 24.3064 24.3124 24.353 24.2532C24.3975 24.1956 24.4556 24.1504 24.522 24.1218C24.5976 24.0855 24.6806 24.0679 24.7642 24.0704C24.8242 24.0644 24.8845 24.0644 24.9445 24.0704C24.9992 24.0857 25.0507 24.1108 25.0966 24.1446C25.1409 24.1781 25.1774 24.221 25.2036 24.2703C25.2324 24.3256 25.2515 24.3855 25.2599 24.4474H25.0628C25.0472 24.3889 25.0137 24.3368 24.967 24.2989Z" fill="#B3B3B3"/>
<path d="M25.4853 23.8876V23.6533H25.6768V23.8876H25.4853ZM25.6768 24.099V25.2416H25.4853V24.099H25.6768Z" fill="#B3B3B3"/>
<path d="M26.7865 25.1846C26.6921 25.255 26.577 25.2912 26.4598 25.2874C26.3769 25.2882 26.2947 25.2727 26.2176 25.2417C26.1535 25.2118 26.096 25.1691 26.0486 25.116C26.0027 25.0586 25.9683 24.9926 25.9472 24.9218C25.9245 24.8418 25.9113 24.7593 25.9077 24.6761C25.9056 24.5943 25.919 24.5128 25.9472 24.4361C25.9702 24.3662 26.0071 24.3018 26.0555 24.2468C26.104 24.1917 26.1629 24.1473 26.2288 24.1162C26.2983 24.0862 26.373 24.0706 26.4485 24.0705C26.5371 24.0681 26.6246 24.0898 26.702 24.1333C26.7685 24.1749 26.8244 24.2317 26.8654 24.299C26.906 24.3658 26.9346 24.4393 26.9499 24.5161C26.961 24.59 26.961 24.6651 26.9499 24.739H26.1105C26.1044 24.8334 26.1324 24.9268 26.1894 25.0018C26.2192 25.0396 26.258 25.069 26.3021 25.0875C26.3551 25.1192 26.4152 25.1369 26.4767 25.1389C26.5465 25.1399 26.6151 25.1201 26.6739 25.0818C26.7265 25.0385 26.7625 24.9778 26.7753 24.9104H26.9612C26.9398 25.0211 26.8773 25.1193 26.7865 25.1846ZM26.7415 24.4419C26.7224 24.4023 26.6977 24.3657 26.6682 24.3333C26.6391 24.3041 26.6047 24.2808 26.5668 24.2647C26.5241 24.2561 26.4801 24.2561 26.4373 24.2647C26.3946 24.2551 26.3504 24.2551 26.3077 24.2647C26.2668 24.2807 26.2302 24.3062 26.2007 24.339C26.1755 24.3703 26.1547 24.4049 26.1387 24.4419C26.1302 24.4833 26.1302 24.5261 26.1387 24.5676H26.7978C26.7855 24.523 26.7665 24.4806 26.7415 24.4419Z" fill="#B3B3B3"/>
<path d="M27.3386 24.0993V24.3449C27.3783 24.2623 27.4361 24.19 27.5076 24.1335C27.5859 24.0869 27.6762 24.065 27.7668 24.0707V24.2764C27.7017 24.2636 27.6347 24.2636 27.5696 24.2764C27.5202 24.2966 27.4759 24.3278 27.44 24.3678C27.4054 24.4107 27.3821 24.4618 27.3724 24.5163C27.3632 24.5827 27.3632 24.65 27.3724 24.7163V25.2305H27.1809V24.0878L27.3386 24.0993Z" fill="#B3B3B3"/>
<path d="M28.9272 25.2591C28.8828 25.2693 28.8365 25.2693 28.792 25.2591C28.7691 25.2611 28.746 25.2577 28.7245 25.2494C28.703 25.241 28.6837 25.2278 28.6679 25.2107C28.6522 25.1937 28.6405 25.1732 28.6337 25.1509C28.6269 25.1286 28.6252 25.105 28.6287 25.0819C28.5807 25.142 28.5187 25.1891 28.4484 25.2191C28.376 25.2449 28.2998 25.2584 28.2231 25.2591C28.1744 25.265 28.1253 25.265 28.0766 25.2591C28.0342 25.247 27.9942 25.2277 27.9583 25.2019C27.9215 25.176 27.8923 25.1405 27.8738 25.0991C27.8642 25.05 27.8642 24.9996 27.8738 24.9505C27.8717 24.8952 27.8833 24.8402 27.9076 24.7906C27.9263 24.7493 27.9555 24.7138 27.9921 24.6877C28.0304 24.6612 28.0721 24.64 28.116 24.6249L28.2625 24.5906H28.409H28.5329C28.5638 24.5843 28.5928 24.5706 28.6174 24.5506C28.6288 24.5408 28.6378 24.5285 28.6436 24.5147C28.6495 24.5008 28.6521 24.4857 28.6512 24.4706C28.6589 24.4368 28.6589 24.4016 28.6512 24.3678C28.6365 24.343 28.6149 24.3232 28.5892 24.3106C28.5638 24.2943 28.5348 24.2845 28.5047 24.2821H28.4146C28.3459 24.2776 28.2774 24.2935 28.2174 24.3278C28.1885 24.3454 28.1648 24.3706 28.1489 24.4008C28.1331 24.431 28.1256 24.465 28.1273 24.4992H27.9414C27.9409 24.4353 27.9564 24.3724 27.9865 24.3163C28.0123 24.2701 28.0468 24.2293 28.0879 24.1964C28.1359 24.1652 28.1895 24.1439 28.2456 24.1335C28.3054 24.1248 28.3661 24.1248 28.4259 24.1335H28.5836C28.6313 24.1392 28.6773 24.1547 28.7188 24.1792C28.7615 24.2005 28.7968 24.2344 28.8202 24.2764C28.849 24.3265 28.8627 24.3841 28.8596 24.442V25.0134C28.8561 25.0476 28.8561 25.082 28.8596 25.1162C28.8596 25.1162 28.8596 25.1448 28.9103 25.1448H28.9723L28.9272 25.2591ZM28.6174 24.6591C28.5907 24.6792 28.5599 24.6929 28.5273 24.6991H28.4033H28.2738C28.2347 24.7044 28.1966 24.716 28.1611 24.7334C28.1276 24.7457 28.0983 24.7675 28.0766 24.7963C28.0531 24.8273 28.0411 24.8657 28.0428 24.9048C28.0333 24.9306 28.0333 24.959 28.0428 24.9848C28.0546 25.0062 28.0699 25.0256 28.0879 25.0419L28.1667 25.1391H28.2512C28.3034 25.1486 28.3568 25.1486 28.409 25.1391C28.4509 25.1245 28.4893 25.1011 28.5216 25.0705C28.5484 25.047 28.5695 25.0177 28.5836 24.9848C28.5889 24.9565 28.5889 24.9274 28.5836 24.8991L28.6174 24.6591Z" fill="#B3B3B3"/>
<path d="M29.2483 25.0017C29.2648 25.03 29.288 25.0536 29.3159 25.0702C29.3479 25.0879 29.382 25.1014 29.4173 25.1102H29.5244H29.6201C29.6499 25.1161 29.6805 25.1161 29.7103 25.1102C29.7371 25.0999 29.7606 25.0821 29.7779 25.0588C29.7877 25.0292 29.7877 24.997 29.7779 24.9674C29.779 24.9458 29.7743 24.9244 29.7644 24.9053C29.7545 24.8862 29.7397 24.8701 29.7215 24.8588C29.6784 24.8301 29.6308 24.8088 29.5807 24.796L29.4004 24.7503C29.3388 24.7392 29.2784 24.722 29.2202 24.6989C29.1671 24.6767 29.1192 24.6436 29.0793 24.6017C29.0416 24.5507 29.0218 24.4884 29.023 24.4246C29.0233 24.3725 29.0369 24.3213 29.0624 24.2761C29.0873 24.2338 29.1222 24.1985 29.1638 24.1732C29.2062 24.1441 29.2542 24.1246 29.3047 24.1161C29.355 24.1078 29.4064 24.1078 29.4568 24.1161C29.5167 24.1102 29.5771 24.1102 29.637 24.1161C29.6865 24.1281 29.7339 24.1474 29.7779 24.1732C29.8215 24.201 29.8566 24.2406 29.8793 24.2875C29.9101 24.3412 29.9257 24.4025 29.9243 24.4646H29.7384C29.7367 24.4322 29.727 24.4008 29.7103 24.3732C29.6941 24.3481 29.673 24.3267 29.6483 24.3104L29.5638 24.2761H29.3835H29.3047C29.2825 24.2865 29.2632 24.3022 29.2483 24.3218C29.2386 24.3456 29.2386 24.3723 29.2483 24.3961C29.2488 24.4262 29.2609 24.4549 29.2821 24.476C29.3082 24.5008 29.3389 24.5202 29.3723 24.5332L29.4906 24.5675H29.6258L29.761 24.6075C29.8051 24.6195 29.847 24.6388 29.8849 24.6646C29.9188 24.6913 29.9475 24.7243 29.9694 24.7617C29.9822 24.8065 29.9822 24.8541 29.9694 24.8988C29.9725 24.9604 29.9588 25.0217 29.93 25.076C29.9011 25.1204 29.8625 25.1575 29.8173 25.1845C29.7681 25.2134 29.715 25.2346 29.6596 25.2474H29.4849C29.4233 25.2564 29.3607 25.2564 29.299 25.2474C29.245 25.2359 29.1935 25.2146 29.1469 25.1845C29.1026 25.1511 29.0661 25.1082 29.0399 25.0588C29.0086 25.0032 28.993 24.94 28.9948 24.876H29.1864C29.187 24.9003 29.1928 24.9241 29.2036 24.9458C29.2143 24.9675 29.2296 24.9866 29.2483 25.0017Z" fill="#B3B3B3"/>
<path d="M4.76013 25.5444V25.4302H30.0708V25.5444H4.76013Z" fill="#B3B3B3"/>
</g>
<defs>
<clipPath id="clip0_434_363">
<rect width="35" height="37" fill="white"/>
</clipPath>
</defs>
</svg>
