<svg width="81" height="36" viewBox="0 0 81 36" fill="none" xmlns="http://www.w3.org/2000/svg">
<g clip-path="url(#clip0_434_347)">
<path d="M71.4529 21.9165V20.5639H66.2666V18.9409H69.9499V17.5884H66.2666V16.6472H71.4529V15.0918H63.124V21.9165H71.4529Z" fill="#B3B3B3"/>
<path d="M75.8137 21.9165V18.9409H79.497V17.5884H75.8137V16.6472H81V15.0918H72.6711V21.9165H75.8137Z" fill="#B3B3B3"/>
<path d="M52.9449 19.6228H55.8484C55.8991 19.853 56.0378 20.055 56.2355 20.1863C56.6222 20.4755 57.1011 20.6176 57.5847 20.5865C57.9345 20.6054 58.2833 20.5356 58.5981 20.3836C58.8372 20.2483 58.9568 20.0905 58.9568 19.9102C58.9467 19.81 58.9097 19.7143 58.8497 19.633C58.7896 19.5517 58.7086 19.4879 58.6152 19.4481C58.1164 19.2411 57.5883 19.1118 57.0496 19.0649C56.061 18.9641 55.0977 18.6933 54.2031 18.2646C53.954 18.1523 53.7412 17.9738 53.5885 17.7489C53.4357 17.5241 53.3489 17.2617 53.3378 16.991C53.3436 16.81 53.3858 16.6321 53.4621 16.4676C53.5383 16.303 53.647 16.1553 53.7818 16.0329C54.1546 15.6868 54.6116 15.4422 55.1083 15.3228C55.9065 15.1257 56.7283 15.0385 57.5506 15.0636C58.5372 15.0153 59.5229 15.1748 60.4426 15.5314C60.751 15.6639 61.0212 15.8704 61.2289 16.132C61.4366 16.3937 61.5753 16.7025 61.6325 17.0304H58.7518C58.7197 16.9096 58.6591 16.7981 58.575 16.705C58.4909 16.612 58.3856 16.54 58.2679 16.495C57.9504 16.3451 57.6003 16.2754 57.2489 16.2922C56.9715 16.2771 56.6944 16.3273 56.4404 16.4387C56.3651 16.4687 56.2996 16.5188 56.2514 16.5835C56.2031 16.6482 56.174 16.7249 56.1672 16.805C56.1672 16.9102 56.2412 17.006 56.3892 17.0924C56.7188 17.2227 57.066 17.3044 57.4196 17.3347C58.3921 17.4434 59.3537 17.6319 60.2946 17.8983C60.7706 18.0354 61.2048 18.2871 61.5585 18.6309C61.8097 18.897 61.9501 19.2473 61.9513 19.6115C61.9466 19.8306 61.8978 20.0466 61.8079 20.2469C61.718 20.4472 61.5887 20.6278 61.4275 20.7781C61.0155 21.1718 60.5075 21.4533 59.953 21.5952C59.1745 21.7953 58.3718 21.8882 57.5677 21.8714C55.8598 21.8714 54.7212 21.6516 54.0665 21.2233C53.7723 21.0543 53.5194 20.8233 53.3256 20.5467C53.1317 20.2701 53.0018 19.9547 52.9449 19.6228Z" fill="#B3B3B3"/>
<path d="M6.90561 19.4198H9.99691C9.82479 19.9622 9.51967 20.4539 9.1088 20.8512C8.6691 21.2034 8.1587 21.4589 7.61154 21.6007C6.86772 21.7877 6.10154 21.8731 5.33434 21.8543C4.41138 21.8791 3.4895 21.7748 2.59601 21.5444C1.8979 21.3464 1.26407 20.9715 0.757168 20.4567C0.499048 20.189 0.298776 19.8721 0.16859 19.5252C0.0384043 19.1783 -0.0189612 18.8088 -7.61589e-07 18.4392C-0.0150308 17.9435 0.102332 17.4527 0.340234 17.0164C0.578137 16.58 0.928154 16.2135 1.35493 15.9539C2.52486 15.31 3.85571 15.009 5.19202 15.086C6.23514 15.0421 7.27611 15.2129 8.24916 15.5876C8.99892 16.023 9.59519 16.6762 9.95706 17.4586L7.11056 17.5093C7.0388 17.3456 6.93422 17.1979 6.80313 17.0754C6.60984 16.9167 6.38759 16.7962 6.14844 16.7203C5.86979 16.6366 5.58 16.5948 5.2888 16.5963C4.98875 16.5774 4.68787 16.6174 4.40353 16.7141C4.11919 16.8108 3.85702 16.9624 3.63213 17.1599C3.47517 17.3323 3.35575 17.5349 3.28132 17.755C3.20688 17.9751 3.17902 18.208 3.19947 18.4392C3.16581 18.709 3.195 18.9828 3.2848 19.2397C3.37459 19.4967 3.52262 19.7298 3.71753 19.9213C4.14237 20.2172 4.6566 20.3603 5.17494 20.3271C5.66084 20.3877 6.15244 20.2715 6.55834 20.0002C6.88284 19.6452 6.76898 19.8368 6.90561 19.4198Z" fill="#B3B3B3"/>
<path d="M10.8167 18.4901C10.7988 17.9938 10.9104 17.5012 11.1408 17.06C11.3711 16.6188 11.7124 16.2437 12.1318 15.971C13.2358 15.3106 14.5159 14.9963 15.8037 15.0693C17.1062 14.99 18.4028 15.2982 19.527 15.9541C19.9434 16.2195 20.2827 16.5878 20.5113 17.0226C20.74 17.4575 20.85 17.9439 20.8307 18.4338C20.8601 19.1137 20.6598 19.784 20.2614 20.3386C19.8291 20.858 19.2595 21.2483 18.6161 21.4657C17.7513 21.764 16.8387 21.9034 15.9233 21.8771C15.0086 21.9013 14.0958 21.7815 13.2191 21.5221C12.5453 21.3144 11.9437 20.924 11.4827 20.395C11.0343 19.8612 10.7976 19.1841 10.8167 18.4901ZM13.8055 18.4901C13.7806 18.7545 13.8162 19.0211 13.9099 19.2699C14.0035 19.5187 14.1527 19.7434 14.3463 19.9272C14.7736 20.238 15.2971 20.3915 15.8265 20.3611C16.3564 20.3961 16.882 20.2466 17.3124 19.9385C17.5098 19.7366 17.6597 19.4939 17.7512 19.2279C17.8427 18.9619 17.8737 18.6792 17.8418 18.4C17.8621 18.1452 17.8211 17.8892 17.7221 17.6531C17.6232 17.4171 17.4691 17.2075 17.2725 17.0418C16.8395 16.7343 16.313 16.5831 15.781 16.6135C15.2631 16.591 14.753 16.7441 14.3349 17.0474C14.136 17.2303 13.9822 17.4561 13.8854 17.7072C13.7887 17.9584 13.7516 18.2282 13.777 18.4958L13.8055 18.4901Z" fill="#B3B3B3"/>
<path d="M22.2994 15.1763H24.9296L28.3454 18.9014V15.1763H30.9983V21.8995H28.3682L24.9524 18.1969V21.8995H22.2994V15.1763Z" fill="#B3B3B3"/>
<path d="M32.6266 15.1428H37.181C37.9122 15.1239 38.6424 15.2073 39.35 15.3907C39.8512 15.5317 40.3167 15.7756 40.7163 16.1064C41.0615 16.4011 41.3292 16.7743 41.4963 17.1941C41.6616 17.6124 41.7447 18.0581 41.7411 18.5072C41.7738 19.0922 41.6501 19.6753 41.3824 20.1979C41.1315 20.6031 40.7884 20.9447 40.3805 21.1953C39.9623 21.4695 39.4944 21.6609 39.0027 21.7589C38.4025 21.8757 37.7927 21.9379 37.181 21.9449H32.6266V15.1428ZM35.6837 16.6813V20.3782H36.4352C36.8937 20.3993 37.3527 20.3499 37.7958 20.2317C38.059 20.1393 38.282 19.9602 38.4278 19.7245C38.6106 19.3616 38.6913 18.9567 38.6612 18.5523C38.6935 18.2834 38.6637 18.0107 38.5739 17.7549C38.4842 17.4992 38.3369 17.2669 38.1431 17.0757C37.6299 16.7696 37.0323 16.6315 36.4352 16.6813H35.6837Z" fill="#B3B3B3"/>
<path d="M48.8573 15.1426H51.7038V19.0875C51.709 19.4779 51.6213 19.864 51.4476 20.2146C51.2668 20.5822 50.9945 20.8983 50.6563 21.1332C50.3151 21.3889 49.9291 21.5799 49.5177 21.6967C48.8698 21.855 48.2038 21.9289 47.5365 21.9165C47.0925 21.9165 46.6029 21.9165 46.0734 21.8489C45.6227 21.8196 45.1782 21.7285 44.7527 21.5784C44.3989 21.4452 44.0699 21.2548 43.7792 21.0148C43.5168 20.813 43.3093 20.5496 43.1757 20.2484C43.0148 19.8933 42.9258 19.5103 42.9138 19.1213V15.1764H45.7603V19.234C45.7513 19.3879 45.7785 19.5419 45.8398 19.6836C45.901 19.8254 45.9946 19.9512 46.1133 20.0512C46.4511 20.2684 46.8495 20.3749 47.2519 20.3555C47.6534 20.3736 48.0508 20.2693 48.3905 20.0568C48.5259 19.9591 48.6347 19.8298 48.7072 19.6803C48.7798 19.5308 48.8137 19.3658 48.8061 19.2002L48.8573 15.1426Z" fill="#B3B3B3"/>
<path d="M27.9868 2.49068C31.1572 2.48706 34.2534 3.44054 36.8622 5.22393C34.7094 5.75501 32.7167 6.78965 31.0515 8.24097C29.3863 9.69228 28.0971 11.5179 27.2923 13.5646H30.042C30.7354 12.1747 31.712 10.9419 32.9103 9.94389C34.1086 8.94588 35.5026 8.20421 37.0045 7.76557C35.7738 9.52633 34.8697 11.49 34.3345 13.5646H36.9476C37.5578 11.5351 38.5829 9.65141 39.9592 8.03044C41.3353 9.65245 42.362 11.5357 42.9765 13.5646H45.601C45.0574 11.4396 44.1233 9.43185 42.8456 7.64159C44.4481 8.03457 45.9452 8.76785 47.233 9.79059C48.5207 10.8133 49.5684 12.1011 50.3034 13.5646H53.0474C52.2251 11.4719 50.8966 9.61094 49.1785 8.14496C47.4603 6.67897 45.405 5.65275 43.1928 5.1563C45.2294 3.79058 47.5624 2.91914 50.0027 2.61262C52.443 2.3061 54.922 2.57313 57.2386 3.39206C59.5552 4.21099 61.6442 5.55878 63.3364 7.32615C65.0286 9.09353 66.2762 11.2308 66.9782 13.5646H69.5913C68.8238 10.5801 67.295 7.84071 65.1512 5.60892C63.0075 3.37713 60.3207 1.72773 57.3482 0.818748C54.3758 -0.0902336 51.2173 -0.228329 48.1755 0.417695C45.1337 1.06372 42.3104 2.47221 39.9763 4.50821C37.6411 2.47345 34.817 1.06663 31.7749 0.422617C28.7327 -0.221393 25.5744 -0.080996 22.6028 0.830349C19.6311 1.74169 16.9458 3.39343 14.8043 5.62719C12.6627 7.86096 11.1368 10.6019 10.3727 13.5871H12.9801C13.9428 10.3856 15.9229 7.57677 18.6263 5.57776C21.3298 3.57874 24.6124 2.49613 27.9868 2.49068Z" fill="#B3B3B3"/>
<path d="M51.9657 33.5087C49.3019 33.5138 46.6812 32.8424 44.3542 31.5588C46.419 30.9032 48.3001 29.7784 49.8472 28.2744C51.3943 26.7703 52.5643 24.9288 53.2637 22.897H50.5596C49.8029 24.6377 48.6137 26.1607 47.1028 27.3244C45.5918 28.488 43.8081 29.2545 41.9176 29.5526C43.5676 27.6085 44.7822 25.34 45.4814 22.897H42.8399C42.2212 24.7496 41.2555 26.4702 39.9934 27.969C38.7309 26.4705 37.7652 24.7497 37.1469 22.897H34.4711C35.1625 25.3113 36.3571 27.5555 37.978 29.4849C36.1743 29.1274 34.4855 28.3408 33.0572 27.1931C31.629 26.0454 30.5043 24.5709 29.7801 22.897H27.0816C27.7687 24.8859 28.9069 26.6926 30.4089 28.1785C31.9109 29.6643 33.7367 30.7898 35.7464 31.4687C33.7345 32.6068 31.4923 33.2884 29.1819 33.4643C26.8715 33.6402 24.5504 33.306 22.3863 32.4859C20.2223 31.6658 18.2692 30.3802 16.6681 28.7219C15.067 27.0636 13.8579 25.0741 13.1281 22.897H10.4979C11.3067 25.7415 12.8115 28.3448 14.8792 30.4762C16.9469 32.6076 19.5136 34.2014 22.3521 35.1165C25.1906 36.0315 28.2132 36.2396 31.1523 35.7223C34.0913 35.2049 36.8562 33.9782 39.202 32.1506C39.5208 32.1506 39.8453 32.19 40.1698 32.19H40.7847C43.1329 34.0097 45.8977 35.2287 48.8349 35.7394C51.7721 36.2501 54.7911 36.0367 57.6252 35.1181C60.4592 34.1995 63.0211 32.6039 65.0843 30.4724C67.1475 28.3409 68.6485 25.7391 69.4546 22.897H66.8245C65.7823 25.9833 63.7876 28.6679 61.1216 30.5718C58.4557 32.4758 55.2531 33.5031 51.9657 33.5087Z" fill="#B3B3B3"/>
</g>
<defs>
<clipPath id="clip0_434_347">
<rect width="81" height="36" fill="white"/>
</clipPath>
</defs>
</svg>
