<svg width="63" height="36" viewBox="0 0 63 36" fill="none" xmlns="http://www.w3.org/2000/svg">
<path d="M17.8297 35.9999C27.6767 35.9999 35.6593 28.0173 35.6593 18.1702C35.6593 8.32319 27.6767 0.340576 17.8297 0.340576C7.98262 0.340576 0 8.32319 0 18.1702C0 28.0173 7.98262 35.9999 17.8297 35.9999Z" fill="url(#paint0_radial_140_355)"/>
<path d="M44.6602 35.6593C54.5073 35.6593 62.4899 27.6767 62.4899 17.8297C62.4899 7.98262 54.5073 0 44.6602 0C34.8132 0 26.8306 7.98262 26.8306 17.8297C26.8306 27.6767 34.8132 35.6593 44.6602 35.6593Z" fill="url(#paint1_radial_140_355)"/>
<path d="M30.7351 31.2451C38.1441 31.2451 44.1504 25.2389 44.1504 17.8298C44.1504 10.4208 38.1441 4.41455 30.7351 4.41455C23.326 4.41455 17.3198 10.4208 17.3198 17.8298C17.3198 25.2389 23.326 31.2451 30.7351 31.2451Z" fill="url(#paint2_radial_140_355)"/>
<path d="M13.1202 21.2092C12.6691 21.3965 12.0799 21.4901 11.3525 21.4901C10.4016 21.4901 9.65575 21.2506 9.11495 20.7716C8.57414 20.2926 8.30255 19.6537 8.30017 18.855C8.30017 18.0045 8.60564 17.3148 9.21657 16.7859C9.8275 16.257 10.62 15.9925 11.594 15.9925C12.1098 15.9807 12.6243 16.0472 13.1202 16.1896V17.3422C12.6817 17.1225 12.1967 17.0118 11.7064 17.0195C11.1281 17.0195 10.6607 17.177 10.3041 17.4919C9.94755 17.8069 9.76926 18.2321 9.76926 18.7676C9.76926 19.2811 9.93715 19.6905 10.2729 19.996C10.6087 20.3015 11.0616 20.4542 11.6315 20.4542C12.1486 20.4601 12.6598 20.3431 13.1229 20.1128L13.1202 21.2092Z" fill="white"/>
<path d="M16.9605 21.4884C16.0756 21.4884 15.3541 21.2409 14.7961 20.7458C14.238 20.2508 13.9587 19.6051 13.9581 18.8087C13.9581 17.9678 14.241 17.2879 14.8068 16.7691C15.3725 16.2503 16.1228 15.9906 17.0577 15.99C17.9402 15.99 18.6533 16.2384 19.1971 16.7352C19.7409 17.2321 20.0146 17.8873 20.0181 18.7009C20.0181 19.5358 19.7355 20.2095 19.1704 20.7217C18.6052 21.234 17.8689 21.4896 16.9614 21.4884H16.9605ZM17.0193 17.0196C16.5308 17.0196 16.1445 17.1774 15.8605 17.493C15.5764 17.8085 15.4326 18.2245 15.429 18.741C15.429 19.2669 15.5728 19.6829 15.8605 19.989C16.0046 20.1427 16.1799 20.2638 16.3748 20.344C16.5696 20.4243 16.7793 20.4619 16.9899 20.4543C17.4707 20.4543 17.8516 20.3057 18.1327 20.0086C18.4138 19.7115 18.5547 19.2981 18.5553 18.7686C18.5553 18.2165 18.4186 17.7874 18.1452 17.4814C17.8718 17.1753 17.4965 17.0214 17.0193 17.0196Z" fill="white"/>
<path d="M26.7565 21.3953H25.3507L22.8021 18.0551C22.69 17.9127 22.5865 17.7639 22.4919 17.6094H22.4749C22.5025 17.8952 22.5142 18.1824 22.5097 18.4696V21.3873H21.1948V16.0788H22.6907L25.1439 19.3156C25.2562 19.4618 25.3596 19.6071 25.4541 19.7497H25.4711C25.4408 19.5076 25.4292 19.2635 25.4363 19.0196V16.0779H26.7512L26.7565 21.3953Z" fill="white"/>
<path d="M28.3202 21.3956V16.0791H30.5105C32.7093 16.0791 33.8088 16.9432 33.8088 18.6714C33.8088 19.4993 33.509 20.1604 32.9093 20.6549C32.3097 21.1493 31.5112 21.3962 30.514 21.3956H28.3202ZM29.7135 17.0534V20.4249H30.4026C31.0058 20.4249 31.4795 20.2692 31.8235 19.9578C32.1676 19.6463 32.3394 19.2226 32.3388 18.6866C32.3388 18.1796 32.1685 17.7809 31.828 17.4902C31.4875 17.1996 31.0109 17.0543 30.3981 17.0543L29.7135 17.0534Z" fill="white"/>
<path d="M40.0256 19.0939C40.0256 20.6902 39.1603 21.4884 37.4297 21.4884C35.7514 21.4884 34.912 20.7083 34.9114 19.1483V16.0791H36.3092V19.1635C36.3092 20.0234 36.6999 20.4537 37.4814 20.4543C38.2486 20.4543 38.6325 20.0383 38.6331 19.2063V16.0791H40.0256V19.0939Z" fill="white"/>
<path d="M41.2327 21.1923V20.0058C41.4799 20.185 41.7548 20.3223 42.0466 20.4123C42.3352 20.5022 42.6357 20.5479 42.938 20.5478C43.092 20.5497 43.2458 20.536 43.3971 20.5068C43.5111 20.4854 43.6214 20.4472 43.7242 20.3936C43.8026 20.3538 43.87 20.2953 43.9204 20.2233C43.9629 20.1604 43.9855 20.0862 43.9854 20.0102C43.9864 19.908 43.9496 19.8089 43.882 19.7321C43.8016 19.6409 43.706 19.5643 43.5994 19.5057C43.463 19.4286 43.3212 19.3616 43.1751 19.3051C43.0111 19.2409 42.8328 19.1756 42.6403 19.109C42.1571 18.9361 41.797 18.7245 41.5598 18.4743C41.3625 18.258 41.2401 17.9839 41.2109 17.6926C41.1817 17.4013 41.2471 17.1084 41.3976 16.8572C41.5319 16.6535 41.7132 16.4851 41.9262 16.366C42.1676 16.2307 42.4291 16.135 42.7009 16.0826C43.0073 16.0213 43.3191 15.9914 43.6315 15.9934C43.9176 15.9909 44.2035 16.0075 44.4873 16.0433C44.721 16.0733 44.9514 16.1249 45.1755 16.1976V17.3056C45.0674 17.2418 44.9541 17.1873 44.8368 17.1425C44.7136 17.0959 44.5876 17.0569 44.4597 17.0257C44.3324 16.9957 44.2035 16.9728 44.0737 16.9571C43.9527 16.9429 43.8309 16.9355 43.7091 16.9348C43.5646 16.934 43.4205 16.9471 43.2785 16.974C43.1646 16.9951 43.0542 17.0321 42.9505 17.0836C42.8698 17.1237 42.7991 17.1812 42.7437 17.2521C42.6952 17.3156 42.6695 17.3934 42.6706 17.4732C42.6699 17.5599 42.6988 17.6441 42.7526 17.7121C42.8177 17.7917 42.8965 17.859 42.9852 17.9109C43.1021 17.9826 43.2247 18.0446 43.3516 18.0963C43.4954 18.1558 43.6577 18.2182 43.8383 18.2835C44.0665 18.3636 44.2892 18.4583 44.5051 18.567C44.6882 18.6579 44.8587 18.772 45.0124 18.9066C45.1486 19.0268 45.2588 19.1736 45.336 19.3381C45.4221 19.5491 45.4593 19.7768 45.4448 20.0043C45.4303 20.2317 45.3644 20.4529 45.2522 20.6512C45.1169 20.8558 44.9331 21.0239 44.7173 21.1406C44.4728 21.272 44.2084 21.3623 43.9346 21.408C43.624 21.4643 43.3089 21.4917 42.9933 21.49C42.6691 21.4917 42.3453 21.467 42.0252 21.416C41.7526 21.375 41.4863 21.2995 41.2327 21.1914V21.1923Z" fill="white"/>
<path d="M50.3244 21.3956H46.6169V16.0791H50.1827V17.0534H48.0085V18.2364H50.0312V19.2072H48.0085V20.424H50.3262L50.3244 21.3956Z" fill="white"/>
<path d="M55.0365 17.0534H52.8623V18.3567H54.8671V19.3275H52.8623V21.393H51.4663V16.0791H55.0321L55.0365 17.0534Z" fill="white"/>
<defs>
<radialGradient id="paint0_radial_140_355" cx="0" cy="0" r="1" gradientUnits="userSpaceOnUse" gradientTransform="translate(18.4599 17.5982) scale(22.82 21.2226)">
<stop offset="0.09" stop-color="white"/>
<stop offset="0.19" stop-color="#E9F2E9"/>
<stop offset="0.39" stop-color="#AFD1AF"/>
<stop offset="0.68" stop-color="#539D54"/>
<stop offset="0.77" stop-color="#348C36"/>
</radialGradient>
<radialGradient id="paint1_radial_140_355" cx="0" cy="0" r="1" gradientUnits="userSpaceOnUse" gradientTransform="translate(45.3003 17.2573) scale(22.82 21.2226)">
<stop offset="0.09" stop-color="white"/>
<stop offset="0.19" stop-color="#E9F2E9"/>
<stop offset="0.39" stop-color="#AFD1AF"/>
<stop offset="0.68" stop-color="#539D54"/>
<stop offset="0.77" stop-color="#348C36"/>
</radialGradient>
<radialGradient id="paint2_radial_140_355" cx="0" cy="0" r="1" gradientUnits="userSpaceOnUse" gradientTransform="translate(31.2165 17.4267) scale(17.17 15.9681)">
<stop offset="0.09" stop-color="white"/>
<stop offset="0.19" stop-color="#E9F2E9"/>
<stop offset="0.39" stop-color="#AFD1AF"/>
<stop offset="0.68" stop-color="#539D54"/>
<stop offset="0.77" stop-color="#348C36"/>
</radialGradient>
</defs>
</svg>
