<?xml version="1.0" encoding="utf-8"?>
<!-- Generator: Adobe Illustrator 15.0.0, SVG Export Plug-In . SVG Version: 6.00 Build 0)  -->
<!DOCTYPE svg PUBLIC "-//W3C//DTD SVG 1.1//EN" "http://www.w3.org/Graphics/SVG/1.1/DTD/svg11.dtd">
<svg version="1.1" id="Layer_1" xmlns="http://www.w3.org/2000/svg" xmlns:xlink="http://www.w3.org/1999/xlink" x="0px" y="0px"
	 width="150px" height="53.358px" viewBox="0 0 150 53.358" enable-background="new 0 0 150 53.358" xml:space="preserve">
<g>
	<path fill="#F7B500" d="M5.237,28.4v5.98h10.475v4.203H5.237v8.243H0V24.197h17.102V28.4H5.237z"/>
	<path fill="#F7B500" d="M19.687,24.197c0-1.584,1.261-2.813,3.136-2.813s3.137,1.164,3.137,2.715c0,1.681-1.262,2.909-3.137,2.909
		S19.687,25.781,19.687,24.197z M20.301,29.434h5.044v17.393h-5.044V29.434z"/>
	<path fill="#F7B500" d="M47.813,36.87v9.957H42.77v-9.181c0-2.813-1.294-4.106-3.525-4.106c-2.424,0-4.17,1.487-4.17,4.688v8.599
		h-5.043V29.434h4.817v2.037c1.358-1.487,3.394-2.295,5.754-2.295C44.709,29.176,47.813,31.568,47.813,36.87z"/>
	<path fill="#6236FF" d="M47.035,52.388l1.358-3.653c0.55,0.389,1.293,0.614,2.133,0.614c1.262,0,2.07-0.808,2.07-2.522V29.434
		h5.043v17.361c0,4.009-2.36,6.563-6.563,6.563C49.526,53.358,48.005,53.066,47.035,52.388z M51.982,24.197
		c0-1.584,1.261-2.813,3.137-2.813c1.875,0,3.135,1.164,3.135,2.715c0,1.681-1.261,2.909-3.135,2.909
		C53.243,27.009,51.982,25.781,51.982,24.197z"/>
	<path fill="#6236FF" d="M79.235,39.553H66.077c0.485,2.166,2.327,3.492,4.979,3.492c1.842,0,3.167-0.549,4.364-1.681l2.684,2.91
		c-1.616,1.843-4.041,2.812-7.177,2.812c-6.013,0-9.925-3.781-9.925-8.955c0-5.205,3.976-8.955,9.278-8.955
		c5.109,0,9.052,3.426,9.052,9.019C79.332,38.583,79.267,39.133,79.235,39.553z M66.013,36.611h8.566
		c-0.356-2.198-2.004-3.621-4.268-3.621C68.018,32.991,66.368,34.38,66.013,36.611z"/>
	<path fill="#6236FF" d="M100.474,36.87v9.957h-5.043v-9.181c0-2.813-1.293-4.106-3.523-4.106c-2.426,0-4.17,1.487-4.17,4.688v8.599
		h-5.044V29.434h4.817v2.037c1.357-1.487,3.395-2.295,5.754-2.295C97.371,29.176,100.474,31.568,100.474,36.87z"/>
	<path fill="#6236FF" d="M104.417,24.197c0-1.584,1.263-2.813,3.137-2.813s3.137,1.164,3.137,2.715c0,1.681-1.263,2.909-3.137,2.909
		S104.417,25.781,104.417,24.197z M105.031,29.434h5.044v17.393h-5.044V29.434z"/>
	<path fill="#6236FF" d="M134.257,45.211l1.681-3.621c1.552,1.002,3.911,1.681,6.045,1.681c2.328,0,3.201-0.615,3.201-1.585
		c0-2.845-10.507,0.065-10.507-6.885c0-3.297,2.974-5.625,8.049-5.625c2.393,0,5.044,0.549,6.692,1.519l-1.682,3.588
		c-1.713-0.969-3.426-1.292-5.011-1.292c-2.264,0-3.232,0.711-3.232,1.616c0,2.974,10.507,0.097,10.507,6.95
		c0,3.234-3.006,5.528-8.212,5.528C138.848,47.085,135.872,46.277,134.257,45.211z"/>
	<path fill="#6236FF" d="M129.324,31.221c-0.724,2.073-1.513,4.863-1.906,6.296c0.02,0.203,0.05,0.398,0.05,0.614
		c0,3.006-1.908,4.816-4.429,4.816c-2.316,0-4.12-1.54-4.404-4.116l-4.421-4.364c-0.481,1.099-0.745,2.331-0.745,3.663
		c0,5.237,4.042,8.955,9.57,8.955c5.526,0,9.536-3.718,9.536-8.955C132.575,35.24,131.349,32.816,129.324,31.221z"/>
	<g>
		<path fill="#6236FF" d="M125.312,39.246c0,0-2.79-7.915-0.771-14.396c2.021-6.481,9.33-12.503,9.33-12.503L119.248,1.525L121.36,0
			l17.119,12.614l-2.365,1.535l4.568,3.324c0,0-8.074,3.855-10.45,9.362c-2.377,5.506-3.239,9.313-3.239,9.313
			s0.333-6.693,1.643-9.846c1.312-3.154,4.562-6.393,5.568-7.247c1.009-0.854,1.975-1.714,1.975-1.714l-1.876-1.999
			c0,0-6.547,5.664-7.671,9.249c-1.124,3.586-1.975,7.855-1.945,9.618C124.714,35.974,125.312,39.246,125.312,39.246z"/>
		<path fill="#F7B500" d="M115.002,1.265l-0.193,0.264c0,0-5.432,7.169-5.774,15.773c-0.342,8.604,4.417,14.702,6.027,16.763
			c4.159,5.314,9.371,7.883,9.371,7.883s-4.302-7.792-3.271-14.673c1.032-6.881,4.862-11.945,6.223-13.194
			c1.361-1.247,2.407-2.262,2.407-2.262L115.002,1.265z M118.708,18.81c-0.395,2.624-1.781,4.591-3.097,4.392
			c-1.315-0.196-2.064-2.484-1.67-5.108c0.394-2.624,1.781-4.591,3.096-4.393C118.354,13.898,119.103,16.186,118.708,18.81z
			 M120.487,21.723c-1.196,4.349-1.182,4.813-1.182,4.813s-0.045-6.397,1.521-9.864c1.397-3.091,2.766-5.03,2.766-5.03l-7.354-5.124
			c0,0-3.284,5.412-3.856,8.383c-0.953,4.967-0.352,7.653,0.122,9.525c0.473,1.873,1.231,4.624,1.231,4.624
			s-3.86-6.358-3.049-12.896c0.815-6.536,4.457-12.396,4.457-12.396l11.399,8.034C126.542,11.791,121.685,17.373,120.487,21.723z"/>
	</g>
</g>
</svg>
