<svg width="112" height="30" viewBox="0 0 112 30" fill="none" xmlns="http://www.w3.org/2000/svg">
<path fill-rule="evenodd" clip-rule="evenodd" d="M33.672 16.263V18.34H37.816L33 29.263H40.728V27.203H36.264L41 16.263H33.672ZM44.625 26.157C44.625 26.827 45.209 27.051 46.016 27.051C47.39 27.051 47.768 26.054 47.871 25.04C45.467 24.8 44.625 25.35 44.625 26.157ZM42.702 22.427C42.548 19.903 43.905 18.89 46.326 18.89C48.97 18.89 50.12 20.213 50.12 22.84V29.077H48.197L47.974 27.909C47.407 28.699 46.446 29.215 45.312 29.215C43.647 29.215 42.393 28.253 42.393 26.345C42.393 23.958 44.386 23.013 47.871 23.254C47.871 21.741 47.579 20.986 46.343 20.986C45.313 20.986 44.935 21.346 44.952 22.428H42.702V22.427Z" fill="#1E4883"/>
<mask id="mask0_201_248" style="mask-type:alpha" maskUnits="userSpaceOnUse" x="0" y="0" width="112" height="30">
<path d="M0 29.263H111.701V0H0V29.263Z" fill="white"/>
</mask>
<g mask="url(#mask0_201_248)">
<path fill-rule="evenodd" clip-rule="evenodd" d="M52.317 29.094H54.669V19.164H52.317V29.094ZM54.841 16.897C54.841 18.615 52.179 18.632 52.179 16.897C52.179 15.144 54.841 15.162 54.841 16.897ZM57.175 18.942H59.218L59.373 19.972C59.94 19.233 60.85 18.855 61.759 18.89C62.756 18.89 63.769 19.216 64.249 20.178C64.781 19.388 65.847 18.873 67.133 18.873C69.229 18.873 70.482 20.093 70.482 22.841V29.077H68.13V22.841C68.13 21.535 67.597 21.003 66.618 21.003C65.726 21.003 65.057 21.381 65.022 22.823V29.077H62.67V22.841C62.67 21.535 62.139 21.003 61.16 21.003C60.25 21.003 59.528 21.45 59.528 22.755V29.077H57.176V18.942H57.175ZM78.104 25.177V22.978C78.104 21.724 77.777 21.003 76.541 21.003C75.305 21.003 74.978 21.724 74.978 22.978V25.177C74.978 26.432 75.305 27.153 76.541 27.153C77.777 27.153 78.104 26.432 78.104 25.177ZM72.61 25.297V22.858C72.61 20.195 73.88 18.908 76.541 18.908C79.203 18.908 80.473 20.126 80.473 22.858V25.298C80.473 28.028 79.203 29.249 76.541 29.249C73.879 29.249 72.61 28.029 72.61 25.298" fill="#1E4883"/>
<path fill-rule="evenodd" clip-rule="evenodd" d="M82.6 18.942H84.644L84.798 19.972C85.365 19.233 86.275 18.855 87.185 18.89C88.181 18.89 89.195 19.216 89.675 20.178C90.207 19.388 91.272 18.873 92.559 18.873C94.654 18.873 95.907 20.093 95.907 22.841V29.077H93.555V22.841C93.555 21.535 93.023 21.003 92.044 21.003C91.151 21.003 90.482 21.381 90.448 22.823V29.077H88.095V22.841C88.095 21.535 87.563 21.003 86.584 21.003C85.674 21.003 84.953 21.45 84.953 22.755V29.077H82.6V18.942ZM100.026 26.157C100.026 26.827 100.61 27.051 101.416 27.051C102.791 27.051 103.168 26.054 103.271 25.04C100.867 24.8 100.026 25.35 100.026 26.157ZM98.103 22.427C97.948 19.903 99.306 18.89 101.726 18.89C104.37 18.89 105.52 20.213 105.52 22.84V29.077H103.598L103.375 27.909C102.808 28.699 101.846 29.215 100.713 29.215C99.047 29.215 97.794 28.253 97.794 26.345C97.794 23.958 99.786 23.013 103.271 23.254C103.271 21.741 102.98 20.986 101.743 20.986C100.713 20.986 100.336 21.346 100.353 22.428H98.103V22.427ZM107.597 17.189L109.949 16.931V18.907H111.666V21.055H109.949V25.332C109.949 26.449 110.121 27.206 111.7 27.016V29.077C108.713 29.405 107.597 28.373 107.597 25.367V17.189Z" fill="#EB9B21"/>
<path fill-rule="evenodd" clip-rule="evenodd" d="M27.856 26.7C27.8563 27.0364 27.7902 27.3696 27.6617 27.6804C27.5332 27.9913 27.3447 28.2738 27.107 28.5118C26.8692 28.7499 26.5869 28.9387 26.2762 29.0676C25.9655 29.1965 25.6324 29.2629 25.296 29.263H2.56C2.2236 29.2629 1.89052 29.1965 1.57979 29.0676C1.26906 28.9387 0.98677 28.7499 0.749039 28.5118C0.511308 28.2738 0.322798 27.9913 0.194275 27.6804C0.0657533 27.3696 -0.000261954 27.0364 7.81169e-07 26.7V12.24C-0.000130566 11.9037 0.0659816 11.5706 0.194563 11.2599C0.323144 10.9491 0.511675 10.6667 0.749393 10.4288C0.987111 10.1909 1.26936 10.0022 1.58002 9.87334C1.89069 9.74451 2.22369 9.67814 2.56 9.67801H25.296C25.6323 9.67814 25.9653 9.74451 26.276 9.87334C26.5866 10.0022 26.8689 10.1909 27.1066 10.4288C27.3443 10.6667 27.5329 10.9491 27.6614 11.2599C27.79 11.5706 27.8561 11.9037 27.856 12.24V26.7Z" fill="#1E4883"/>
<path fill-rule="evenodd" clip-rule="evenodd" d="M29.381 20.354C29.3811 20.6903 29.315 21.0234 29.1864 21.3341C29.0579 21.6449 28.8693 21.9273 28.6316 22.1652C28.3939 22.4031 28.1116 22.5918 27.801 22.7207C27.4903 22.8495 27.1573 22.9159 26.821 22.916H21.439C21.1026 22.916 20.7696 22.8497 20.4589 22.7209C20.1481 22.5922 19.8658 22.4034 19.6281 22.1655C19.3904 21.9275 19.2018 21.6451 19.0733 21.3343C18.9448 21.0234 18.8787 20.6903 18.879 20.354V18.586C18.8789 18.2497 18.945 17.9166 19.0736 17.6059C19.2021 17.2951 19.3907 17.0127 19.6284 16.7748C19.8661 16.5369 20.1484 16.3481 20.459 16.2193C20.7697 16.0905 21.1027 16.0241 21.439 16.024H26.82C27.4993 16.0243 28.1507 16.2943 28.631 16.7747C29.1112 17.2552 29.381 17.9067 29.381 18.586V20.354Z" fill="#1E4883"/>
<path fill-rule="evenodd" clip-rule="evenodd" d="M29.381 20.354C29.3811 20.6903 29.315 21.0234 29.1864 21.3341C29.0579 21.6449 28.8693 21.9273 28.6316 22.1652C28.3939 22.4031 28.1116 22.5918 27.801 22.7207C27.4903 22.8495 27.1573 22.9159 26.821 22.916H21.439C21.1026 22.916 20.7696 22.8497 20.4589 22.7209C20.1481 22.5922 19.8658 22.4034 19.6281 22.1655C19.3904 21.9275 19.2018 21.6451 19.0733 21.3343C18.9448 21.0234 18.8787 20.6903 18.879 20.354V18.586C18.8789 18.2497 18.945 17.9166 19.0736 17.6059C19.2021 17.2951 19.3907 17.0127 19.6284 16.7748C19.8661 16.5369 20.1484 16.3481 20.459 16.2193C20.7697 16.0905 21.1027 16.0241 21.439 16.024H26.82C27.4993 16.0243 28.1507 16.2943 28.631 16.7747C29.1112 17.2552 29.381 17.9067 29.381 18.586V20.354Z" stroke="#FEFEFE"/>
<path fill-rule="evenodd" clip-rule="evenodd" d="M22.763 19.47C22.763 19.8015 22.6313 20.1195 22.3969 20.3539C22.1625 20.5883 21.8445 20.72 21.513 20.72C21.1815 20.72 20.8635 20.5883 20.6291 20.3539C20.3947 20.1195 20.263 19.8015 20.263 19.47C20.263 19.1385 20.3947 18.8205 20.6291 18.5861C20.8635 18.3517 21.1815 18.22 21.513 18.22C21.8445 18.22 22.1625 18.3517 22.3969 18.5861C22.6313 18.8205 22.763 19.1385 22.763 19.47Z" fill="#FEFEFE"/>
<path d="M6.58899 12.353H21.268" stroke="#FEFEFE" stroke-width="2" stroke-linecap="round"/>
<mask id="mask1_201_248" style="mask-type:alpha" maskUnits="userSpaceOnUse" x="7" y="6" width="14" height="8">
<path d="M7.021 13.005H20.712C20.712 9.139 17.648 6.005 13.867 6.005C10.085 6.005 7.021 9.139 7.021 13.005Z" fill="white"/>
</mask>
<g mask="url(#mask1_201_248)">
<path fill-rule="evenodd" clip-rule="evenodd" d="M7.021 13.005H20.712C20.712 9.139 17.648 6.005 13.867 6.005C10.085 6.005 7.021 9.139 7.021 13.005Z" fill="#EB9B21"/>
</g>
<path d="M19.35 -0.0320129V5.24099M8.63501 -0.0320129V5.24099V-0.0320129ZM13.992 -0.0320129V5.24099V-0.0320129Z" stroke="#E1A222"/>
</g>
</svg>
