<svg width="111" height="39" viewBox="0 0 111 39" fill="none" xmlns="http://www.w3.org/2000/svg">
<g clip-path="url(#clip0_434_315)">
<path d="M3.8776 20.7572V25.1425H11.6254V28.2122H3.8776V34.242H0V17.6875H12.654V20.7572H3.8776Z" fill="#F7B500"/>
<path d="M14.5706 17.6875C14.5755 17.3987 14.6406 17.114 14.7618 16.8512C14.883 16.5883 15.0577 16.3529 15.2749 16.1595C15.4922 15.9662 15.7474 15.8191 16.0247 15.7274C16.302 15.6357 16.5954 15.6013 16.8868 15.6264C17.1758 15.5918 17.4689 15.6169 17.7476 15.7001C18.0263 15.7833 18.2844 15.9227 18.5057 16.1096C18.7269 16.2966 18.9064 16.5268 19.0328 16.7859C19.1592 17.0449 19.2298 17.327 19.24 17.6144C19.2414 17.9109 19.1798 18.2043 19.0592 18.4758C18.9387 18.7472 18.7618 18.9907 18.54 19.1904C18.3182 19.3902 18.0565 19.5418 17.7718 19.6354C17.487 19.729 17.1855 19.7626 16.8868 19.734C16.5966 19.759 16.3044 19.7251 16.0281 19.6343C15.7518 19.5434 15.4973 19.3976 15.2802 19.2059C15.0632 19.0141 14.8882 18.7804 14.7662 18.5193C14.6441 18.2581 14.5775 17.9751 14.5706 17.6875ZM15.022 21.51H18.759V34.2274H15.022V21.51Z" fill="#F7B500"/>
<path d="M35.3794 26.9478V34.2567H31.6794V27.5179C31.6794 25.4568 30.7248 24.514 29.0672 24.514C27.2764 24.514 25.9814 25.603 25.9814 27.9418V34.2275H22.2V21.5101H25.7668V22.9718C26.3171 22.4133 26.9805 21.9755 27.7137 21.6871C28.4468 21.3988 29.2333 21.2662 30.0218 21.2981C33.0854 21.3273 35.3794 23.0742 35.3794 26.9478Z" fill="#F7B500"/>
<path d="M34.78 38.2913L35.7864 35.6235C36.257 35.9257 36.8088 36.0811 37.37 36.0694C38.3024 36.0694 38.9018 35.4774 38.9018 34.2275V21.5101H42.6018V34.1983C42.6018 37.1218 40.8554 39.0002 37.7474 39.0002C36.7102 39.0469 35.681 38.801 34.78 38.2913ZM38.48 17.6876C38.486 17.3985 38.5521 17.1137 38.674 16.8508C38.796 16.5879 38.9714 16.3525 39.1892 16.1593C39.4071 15.9661 39.6627 15.8191 39.9404 15.7274C40.2181 15.6358 40.5119 15.6014 40.8036 15.6265C41.09 15.5962 41.3796 15.6246 41.6543 15.7098C41.9291 15.795 42.1831 15.9353 42.4005 16.1219C42.6178 16.3085 42.7939 16.5373 42.9177 16.7941C43.0415 17.051 43.1103 17.3302 43.1198 17.6145C43.0733 18.185 42.8134 18.7178 42.3907 19.1092C41.968 19.5006 41.4129 19.7226 40.8335 19.7317C40.2542 19.7408 39.6922 19.5365 39.2571 19.1586C38.822 18.7807 38.5449 18.2563 38.48 17.6876Z" fill="#6236FF"/>
<path d="M58.6376 28.9063H48.8992C49.2544 30.4923 50.616 31.4644 52.5992 31.4644C53.194 31.4878 53.7873 31.3903 54.3423 31.1778C54.8973 30.9653 55.4022 30.6424 55.8256 30.2292L57.8088 32.3561C56.6174 33.7082 54.8488 34.4172 52.503 34.4172C48.063 34.4172 45.1548 31.6544 45.1548 27.8392C45.1548 24.024 48.1148 21.2612 52.022 21.2612C55.8034 21.2612 58.682 23.7609 58.682 27.8392C58.7042 28.1973 58.6598 28.5993 58.6376 28.9063ZM48.84 26.7575H55.1818C55.0513 26.0204 54.6618 25.3524 54.0818 24.871C53.5018 24.3896 52.7685 24.1257 52.0109 24.1257C51.2533 24.1257 50.52 24.3896 49.94 24.871C49.36 25.3524 48.9705 26.0204 48.84 26.7575Z" fill="#6236FF"/>
<path d="M74.3478 26.9476V34.2564H70.6478V27.5177C70.6478 25.4566 69.6932 24.5138 68.043 24.5138C66.2448 24.5138 64.9572 25.6028 64.9572 27.9416V34.2272H61.2572V21.5098H64.824V22.9716C65.375 22.4138 66.0384 21.9765 66.7714 21.6882C67.5045 21.3998 68.2906 21.2669 69.079 21.2979C72.0538 21.3271 74.3478 23.0739 74.3478 26.9476Z" fill="#6236FF"/>
<path d="M77.2708 17.6876C77.2757 17.3988 77.3408 17.1141 77.462 16.8513C77.5832 16.5884 77.7578 16.353 77.9751 16.1596C78.1924 15.9663 78.4476 15.8192 78.7249 15.7275C79.0022 15.6358 79.2956 15.6014 79.587 15.6265C79.8737 15.5962 80.1636 15.6246 80.4388 15.7097C80.714 15.7949 80.9684 15.9351 81.1864 16.1215C81.4043 16.308 81.5811 16.5368 81.7057 16.7936C81.8303 17.0505 81.9 17.3299 81.9106 17.6145C81.864 18.1849 81.6041 18.7178 81.1814 19.1092C80.7587 19.5006 80.2036 19.7225 79.6243 19.7317C79.0449 19.7408 78.4829 19.5365 78.0478 19.1586C77.6127 18.7807 77.3357 18.2563 77.2708 17.6876ZM77.7222 21.5101H81.4222V34.2275H77.7222V21.5101Z" fill="#6236FF"/>
<path d="M99.3524 33.0431L100.596 30.3973C101.939 31.1885 103.472 31.6123 105.036 31.6252C106.76 31.6252 107.404 31.1794 107.404 30.4704C107.404 28.3874 99.6336 30.5143 99.6336 25.4346C99.6336 23.0227 101.854 21.327 105.554 21.327C107.271 21.2951 108.97 21.6764 110.504 22.438L109.261 25.0546C108.133 24.4258 106.857 24.1006 105.561 24.1117C103.889 24.1117 103.171 24.6306 103.171 25.2958C103.171 27.4884 110.948 25.3615 110.948 30.4119C110.948 32.7727 108.728 34.4537 104.873 34.4537C102.94 34.4663 101.037 33.9801 99.3524 33.0431Z" fill="#6236FF"/>
<path d="M95.6968 22.8184C95.164 24.3313 94.5794 26.3705 94.2908 27.4229C94.2985 27.5714 94.2985 27.7203 94.2908 27.8688C94.2908 30.0614 92.8774 31.3916 91.0126 31.3916C90.1791 31.4096 89.3716 31.1045 88.763 30.5417C88.1544 29.9789 87.7932 29.2031 87.7566 28.3804L84.4784 25.1937C84.1107 26.0384 83.9242 26.9493 83.9308 27.8688C83.9308 31.6986 86.8908 34.4102 91.0126 34.4102C95.1344 34.4102 98.0722 31.6986 98.0722 27.8688C98.0946 26.9035 97.892 25.946 97.4802 25.0703C97.0683 24.1946 96.4581 23.4241 95.6968 22.8184Z" fill="#6236FF"/>
<path d="M92.7294 28.6872C92.7294 28.6872 90.6648 22.8986 92.1596 18.1625C93.6544 13.4263 99.0638 9.02642 99.0638 9.02642L88.245 1.11094L89.8064 0L102.475 9.21645L100.721 10.342L104.103 12.7686C104.103 12.7686 98.1314 15.5898 96.3702 19.6096C95.3816 21.8101 94.5821 24.0887 93.98 26.4215C93.98 26.4215 94.2316 21.5245 95.201 19.2223C96.2134 17.2103 97.6106 15.4109 99.3154 13.9234C100.055 13.3021 100.795 12.6735 100.795 12.6735L99.4042 11.2118C99.4042 11.2118 94.5646 15.3559 93.7284 17.9725C92.9671 20.2511 92.4852 22.6116 92.2928 25.0036C92.3615 26.2391 92.5073 27.4694 92.7294 28.6872Z" fill="#6236FF"/>
<path d="M85.1 0.920898L84.9594 1.11824C84.9594 1.11824 80.9412 6.35868 80.66 12.6443C80.3788 18.9299 83.9308 23.3883 85.1 24.9012C87.0026 27.282 89.3771 29.2542 92.0782 30.6971C92.0782 30.6971 88.8962 25.0035 89.6584 19.9751C90.1892 16.3778 91.7944 13.0187 94.2686 10.3274C95.275 9.41378 96.0446 8.67558 96.0446 8.67558L85.1 0.920898ZM87.8454 13.7479C87.5494 15.6628 86.5282 17.1027 85.5514 16.9565C84.5746 16.8103 84.027 15.1439 84.3156 13.2217C84.6042 11.2995 85.6328 9.86693 86.6096 10.0131C87.5864 10.1593 88.134 11.833 87.8454 13.7479ZM89.1626 15.8748C88.7839 17.0262 88.492 18.2037 88.2894 19.3977C88.2894 19.3977 88.2894 14.72 89.4142 12.1838C89.987 10.9098 90.6703 9.68708 91.4566 8.52941L86.0176 4.78728C86.0176 4.78728 83.583 8.74136 83.1612 10.9121C82.6176 13.2065 82.6481 15.5972 83.25 17.8774C83.6052 19.2442 84.1676 21.2541 84.1676 21.2541C84.1676 21.2541 81.3112 16.6057 81.9476 11.8257C82.4554 8.62859 83.5728 5.55568 85.2406 2.77004L93.6766 8.61711C93.6766 8.61711 90.0432 12.6954 89.1626 15.8748Z" fill="#F7B500"/>
</g>
<defs>
<clipPath id="clip0_434_315">
<rect width="111" height="39" fill="white"/>
</clipPath>
</defs>
</svg>
