<svg width="94" height="13" viewBox="0 0 94 13" fill="none" xmlns="http://www.w3.org/2000/svg">
<path fill-rule="evenodd" clip-rule="evenodd" d="M6.57101 11.443L3.95501 12.685C3.79273 12.7619 3.61274 12.7937 3.43393 12.777C3.25513 12.7604 3.08411 12.6959 2.93884 12.5903C2.79357 12.4847 2.67941 12.342 2.60836 12.177C2.5373 12.0121 2.51196 11.8311 2.53501 11.653L2.90701 8.78099C2.92615 8.63384 2.9123 8.48427 2.86647 8.34313C2.82063 8.20199 2.74396 8.07282 2.64201 7.96499L0.652013 5.85999C0.528558 5.72942 0.442571 5.56798 0.403093 5.39268C0.363615 5.21737 0.372105 5.03466 0.42767 4.86377C0.483235 4.69288 0.583823 4.54012 0.718854 4.42155C0.853885 4.30298 1.01837 4.22299 1.19501 4.18999L4.04201 3.65699C4.18783 3.62972 4.32576 3.57035 4.44579 3.48318C4.56582 3.396 4.66496 3.28322 4.73601 3.15299L6.12201 0.609993C6.20802 0.452227 6.33495 0.320551 6.48945 0.22881C6.64396 0.137069 6.82032 0.0886536 7.00001 0.0886536C7.1797 0.0886536 7.35607 0.137069 7.51057 0.22881C7.66507 0.320551 7.792 0.452227 7.87801 0.609993L9.26401 3.15299C9.33506 3.28322 9.4342 3.396 9.55423 3.48318C9.67427 3.57035 9.81219 3.62972 9.95801 3.65699L12.805 4.18999C12.9817 4.22299 13.1461 4.30298 13.2812 4.42155C13.4162 4.54012 13.5168 4.69288 13.5724 4.86377C13.6279 5.03466 13.6364 5.21737 13.5969 5.39268C13.5575 5.56798 13.4715 5.72942 13.348 5.85999L11.358 7.96399C11.2561 8.07182 11.1794 8.20099 11.1336 8.34213C11.0877 8.48327 11.0739 8.63284 11.093 8.77999L11.466 11.652C11.4891 11.8301 11.4637 12.0111 11.3927 12.176C11.3216 12.341 11.2075 12.4837 11.0622 12.5893C10.9169 12.6949 10.7459 12.7594 10.5671 12.776C10.3883 12.7927 10.2083 12.7609 10.046 12.684L7.42901 11.442C7.29496 11.3783 7.14842 11.3453 7.00001 11.3453C6.85161 11.3453 6.70507 11.3783 6.57101 11.442V11.443ZM26.571 11.443L23.955 12.685C23.7927 12.7619 23.6127 12.7937 23.4339 12.777C23.2551 12.7604 23.0841 12.6959 22.9388 12.5903C22.7936 12.4847 22.6794 12.342 22.6084 12.177C22.5373 12.0121 22.512 11.8311 22.535 11.653L22.907 8.78099C22.9262 8.63384 22.9123 8.48427 22.8665 8.34313C22.8206 8.20199 22.744 8.07282 22.642 7.96499L20.652 5.86099C20.5286 5.73042 20.4426 5.56898 20.4031 5.39368C20.3636 5.21837 20.3721 5.03566 20.4277 4.86477C20.4832 4.69388 20.5838 4.54112 20.7189 4.42255C20.8539 4.30398 21.0184 4.22399 21.195 4.19099L24.042 3.65799C24.1878 3.63072 24.3258 3.57135 24.4458 3.48418C24.5658 3.397 24.665 3.28422 24.736 3.15399L26.122 0.609993C26.208 0.452227 26.335 0.320551 26.4895 0.22881C26.644 0.137069 26.8203 0.0886536 27 0.0886536C27.1797 0.0886536 27.3561 0.137069 27.5106 0.22881C27.6651 0.320551 27.792 0.452227 27.878 0.609993L29.264 3.15299C29.3351 3.28322 29.4342 3.396 29.5542 3.48318C29.6743 3.57035 29.8122 3.62972 29.958 3.65699L32.805 4.18999C32.9817 4.22299 33.1461 4.30298 33.2812 4.42155C33.4162 4.54012 33.5168 4.69288 33.5724 4.86377C33.6279 5.03466 33.6364 5.21737 33.5969 5.39268C33.5575 5.56798 33.4715 5.72942 33.348 5.85999L31.358 7.96399C31.2561 8.07182 31.1794 8.20099 31.1336 8.34213C31.0877 8.48327 31.0739 8.63284 31.093 8.77999L31.466 11.652C31.4891 11.8301 31.4637 12.0111 31.3927 12.176C31.3216 12.341 31.2075 12.4837 31.0622 12.5893C30.9169 12.6949 30.7459 12.7594 30.5671 12.776C30.3883 12.7927 30.2083 12.7609 30.046 12.684L27.429 11.442C27.295 11.3783 27.1484 11.3453 27 11.3453C26.8516 11.3453 26.7051 11.3783 26.571 11.442V11.443ZM46.571 11.443L43.955 12.685C43.7927 12.7619 43.6127 12.7937 43.4339 12.777C43.2551 12.7604 43.0841 12.6959 42.9388 12.5903C42.7936 12.4847 42.6794 12.342 42.6084 12.177C42.5373 12.0121 42.512 11.8311 42.535 11.653L42.907 8.78099C42.9262 8.63384 42.9123 8.48427 42.8665 8.34313C42.8206 8.20199 42.744 8.07282 42.642 7.96499L40.652 5.86099C40.5286 5.73042 40.4426 5.56898 40.4031 5.39368C40.3636 5.21837 40.3721 5.03566 40.4277 4.86477C40.4832 4.69388 40.5838 4.54112 40.7189 4.42255C40.8539 4.30398 41.0184 4.22399 41.195 4.19099L44.042 3.65799C44.1878 3.63072 44.3258 3.57135 44.4458 3.48418C44.5658 3.397 44.665 3.28422 44.736 3.15399L46.122 0.609993C46.208 0.452227 46.3349 0.320551 46.4895 0.22881C46.644 0.137069 46.8203 0.0886536 47 0.0886536C47.1797 0.0886536 47.3561 0.137069 47.5106 0.22881C47.6651 0.320551 47.792 0.452227 47.878 0.609993L49.264 3.15299C49.3351 3.28322 49.4342 3.396 49.5542 3.48318C49.6743 3.57035 49.8122 3.62972 49.958 3.65699L52.805 4.18999C52.9817 4.22299 53.1461 4.30298 53.2812 4.42155C53.4162 4.54012 53.5168 4.69288 53.5724 4.86377C53.6279 5.03466 53.6364 5.21737 53.5969 5.39268C53.5575 5.56798 53.4715 5.72942 53.348 5.85999L51.358 7.96399C51.2561 8.07182 51.1794 8.20099 51.1336 8.34213C51.0877 8.48327 51.0739 8.63284 51.093 8.77999L51.466 11.652C51.4891 11.8301 51.4637 12.0111 51.3927 12.176C51.3216 12.341 51.2075 12.4837 51.0622 12.5893C50.9169 12.6949 50.7459 12.7594 50.5671 12.776C50.3883 12.7927 50.2083 12.7609 50.046 12.684L47.429 11.442C47.295 11.3783 47.1484 11.3453 47 11.3453C46.8516 11.3453 46.7051 11.3783 46.571 11.442V11.443ZM66.571 11.443L63.955 12.685C63.7927 12.7619 63.6127 12.7937 63.4339 12.777C63.2551 12.7604 63.0841 12.6959 62.9388 12.5903C62.7936 12.4847 62.6794 12.342 62.6084 12.177C62.5373 12.0121 62.512 11.8311 62.535 11.653L62.907 8.78099C62.9262 8.63384 62.9123 8.48427 62.8665 8.34313C62.8206 8.20199 62.744 8.07282 62.642 7.96499L60.652 5.86099C60.5286 5.73042 60.4426 5.56898 60.4031 5.39368C60.3636 5.21837 60.3721 5.03566 60.4277 4.86477C60.4832 4.69388 60.5838 4.54112 60.7189 4.42255C60.8539 4.30398 61.0184 4.22399 61.195 4.19099L64.042 3.65799C64.1878 3.63072 64.3258 3.57135 64.4458 3.48418C64.5658 3.397 64.665 3.28422 64.736 3.15399L66.122 0.609993C66.208 0.452227 66.335 0.320551 66.4895 0.22881C66.644 0.137069 66.8203 0.0886536 67 0.0886536C67.1797 0.0886536 67.3561 0.137069 67.5106 0.22881C67.6651 0.320551 67.792 0.452227 67.878 0.609993L69.264 3.15299C69.3351 3.28322 69.4342 3.396 69.5542 3.48318C69.6743 3.57035 69.8122 3.62972 69.958 3.65699L72.805 4.18999C72.9817 4.22299 73.1461 4.30298 73.2812 4.42155C73.4162 4.54012 73.5168 4.69288 73.5724 4.86377C73.6279 5.03466 73.6364 5.21737 73.5969 5.39268C73.5575 5.56798 73.4715 5.72942 73.348 5.85999L71.358 7.96399C71.2561 8.07182 71.1794 8.20099 71.1336 8.34213C71.0877 8.48327 71.0739 8.63284 71.093 8.77999L71.466 11.652C71.4891 11.8301 71.4637 12.0111 71.3927 12.176C71.3216 12.341 71.2075 12.4837 71.0622 12.5893C70.9169 12.6949 70.7459 12.7594 70.5671 12.776C70.3883 12.7927 70.2083 12.7609 70.046 12.684L67.429 11.442C67.295 11.3783 67.1484 11.3453 67 11.3453C66.8516 11.3453 66.7051 11.3783 66.571 11.442V11.443Z" fill="#F7B500"/>
<path fill-rule="evenodd" clip-rule="evenodd" d="M86.571 11.443L83.955 12.685C83.7927 12.7619 83.6127 12.7937 83.4339 12.777C83.2551 12.7604 83.0841 12.6959 82.9388 12.5903C82.7936 12.4847 82.6794 12.342 82.6084 12.177C82.5373 12.0121 82.512 11.8311 82.535 11.653L82.907 8.78099C82.9261 8.63384 82.9123 8.48427 82.8665 8.34313C82.8206 8.20199 82.744 8.07282 82.642 7.96499L80.652 5.86099C80.5286 5.73042 80.4426 5.56898 80.4031 5.39368C80.3636 5.21837 80.3721 5.03566 80.4277 4.86477C80.4832 4.69388 80.5838 4.54112 80.7189 4.42255C80.8539 4.30398 81.0184 4.22399 81.195 4.19099L84.042 3.65799C84.1878 3.63072 84.3258 3.57135 84.4458 3.48418C84.5658 3.397 84.665 3.28422 84.736 3.15399L86.122 0.609993C86.208 0.452227 86.3349 0.320551 86.4895 0.22881C86.644 0.137069 86.8203 0.0886536 87 0.0886536C87.1797 0.0886536 87.3561 0.137069 87.5106 0.22881C87.6651 0.320551 87.792 0.452227 87.878 0.609993L89.264 3.15299C89.3351 3.28322 89.4342 3.396 89.5542 3.48318C89.6743 3.57035 89.8122 3.62972 89.958 3.65699L92.805 4.18999C92.9817 4.22299 93.1461 4.30298 93.2812 4.42155C93.4162 4.54012 93.5168 4.69288 93.5724 4.86377C93.6279 5.03466 93.6364 5.21737 93.5969 5.39268C93.5574 5.56798 93.4715 5.72942 93.348 5.85999L91.358 7.96399C91.2561 8.07182 91.1794 8.20099 91.1336 8.34213C91.0877 8.48327 91.0739 8.63284 91.093 8.77999L91.466 11.652C91.4891 11.8301 91.4637 12.0111 91.3927 12.176C91.3216 12.341 91.2075 12.4837 91.0622 12.5893C90.9169 12.6949 90.7459 12.7594 90.5671 12.776C90.3883 12.7927 90.2083 12.7609 90.046 12.684L87.429 11.442C87.295 11.3783 87.1484 11.3453 87 11.3453C86.8516 11.3453 86.7051 11.3783 86.571 11.442V11.443Z" fill="#D8D8D8"/>
</svg>
