<svg width="44" height="45" viewBox="0 0 44 45" fill="none" xmlns="http://www.w3.org/2000/svg">
<path d="M44 22C44 9.8451 34.1549 0 22 0C9.84509 0 0 9.8451 0 22C0 32.9811 8.0654 42.1067 18.5921 43.7349V28.3615H12.9879V22H18.5921V17.1532C18.5921 11.6248 21.8864 8.59553 26.9225 8.59553C29.346 8.59553 31.8451 9.01206 31.8451 9.01206V14.4269H29.0809C26.3546 14.4269 25.4836 16.1308 25.4836 17.8726V22H31.58L30.5955 28.3615H25.4836V43.7349C35.9725 42.1067 44 32.9811 44 22Z" fill="#1877F2"/>
<path d="M30.5625 28.377L31.547 22.0155H25.4506V17.8882C25.4506 16.1464 26.3215 14.4424 29.0479 14.4424H31.8121V9.0276C31.8121 9.0276 29.2751 8.61108 26.8895 8.61108C21.8534 8.61108 18.5591 11.6403 18.5591 17.1687V22.0155H12.9549V28.377H18.5591V43.7505C19.695 43.9398 20.831 44.0156 22.0048 44.0156C23.1787 44.0156 24.3147 43.9398 25.4506 43.7505V28.377H30.5625Z" fill="white"/>
</svg>
