<svg width="40" height="41" viewBox="0 0 40 41" fill="none" xmlns="http://www.w3.org/2000/svg">
<path d="M31 11.7332C30.0424 12.4087 28.9821 12.9253 27.86 13.2632C27.2577 12.5707 26.4573 12.0799 25.567 11.8571C24.6767 11.6344 23.7395 11.6904 22.8821 12.0177C22.0247 12.3449 21.2884 12.9276 20.773 13.6869C20.2575 14.4462 19.9877 15.3455 20 16.2632V17.2632C18.2426 17.3088 16.5013 16.919 14.931 16.1286C13.3607 15.3383 12.0103 14.1718 11 12.7332C11 12.7332 7 21.7332 16 25.7332C13.9405 27.1312 11.4872 27.8321 9 27.7332C18 32.7332 29 27.7332 29 16.2332C28.9991 15.9547 28.9723 15.6768 28.92 15.4032C29.9406 14.3967 30.6608 13.1259 31 11.7332V11.7332Z" stroke="#6236FF" stroke-width="2" stroke-linecap="round" stroke-linejoin="round"/>
</svg>
