<svg width="44" height="44" viewBox="0 0 44 44" fill="none" xmlns="http://www.w3.org/2000/svg">
<path d="M44 33.945C44 39.5017 39.5017 44 33.945 44H10.055C4.49827 44 0 39.5017 0 33.945V10.055C0 4.49828 4.49827 0 10.055 0H33.7938C39.4261 0 44 4.57388 44 10.2062V33.945Z" fill="url(#paint0_radial_140_444)"/>
<path d="M28.1605 6.08569H15.9509C10.5454 6.08569 6.12273 10.4706 6.12273 15.9139V28.1235C6.12273 33.529 10.5076 37.9139 15.9509 37.9139H28.1605C33.566 37.9139 37.9509 33.529 37.9509 28.1235V15.9139C37.9509 10.4706 33.566 6.08569 28.1605 6.08569ZM34.8891 26.9139C34.8891 31.2988 31.3358 34.852 26.9509 34.852H17.0849C12.7001 34.852 9.14679 31.2988 9.14679 26.9139V17.0479C9.14679 12.663 12.7001 9.10975 17.0849 9.10975H26.9509C31.3358 9.10975 34.8891 12.663 34.8891 17.0479V26.9139Z" fill="white"/>
<path d="M22.4536 13.6812C17.8041 13.6812 14.0618 17.4234 14.0618 22.0729C14.0618 26.6846 17.8041 30.4647 22.4536 30.4647C27.0653 30.4647 30.8453 26.7224 30.8453 22.0729C30.8453 17.4234 27.1031 13.6812 22.4536 13.6812ZM22.4536 27.1004C19.6563 27.1004 17.3883 24.8324 17.3883 22.0351C17.3883 19.2379 19.6563 16.9698 22.4536 16.9698C25.2508 16.9698 27.5189 19.2379 27.5189 22.0351C27.5189 24.8324 25.2508 27.1004 22.4536 27.1004Z" fill="white"/>
<path d="M32.4146 13.5257C32.4146 14.6976 31.4695 15.6426 30.2977 15.6426C29.1259 15.6426 28.1809 14.6976 28.1809 13.5257C28.1809 12.3539 29.1259 11.3711 30.2977 11.3711C31.4695 11.3711 32.4146 12.3539 32.4146 13.5257Z" fill="white"/>
<defs>
<radialGradient id="paint0_radial_140_444" cx="0" cy="0" r="1" gradientUnits="userSpaceOnUse" gradientTransform="translate(12.9763 47.4322) scale(22.7228)">
<stop offset="0.0969388" stop-color="#FFD87A"/>
<stop offset="0.1426" stop-color="#FCCE78"/>
<stop offset="0.2263" stop-color="#F5B471"/>
<stop offset="0.3378" stop-color="#EB8D65"/>
<stop offset="0.449" stop-color="#E36058"/>
<stop offset="0.6786" stop-color="#CD3694"/>
<stop offset="1" stop-color="#6668B0"/>
</radialGradient>
</defs>
</svg>
