<svg width="44" height="44" viewBox="0 0 44 44" fill="none" xmlns="http://www.w3.org/2000/svg">
<path d="M0 2.93333V41.0667C0 42.68 1.32 44 2.93333 44H41.0667C42.68 44 44 42.68 44 41.0667V2.93333C44 1.32 42.68 0 41.0667 0H2.93333C1.32 0 0 1.32 0 2.93333ZM12.54 36.6667H7.33333V16.4267H12.54V36.6667ZM9.97333 12.3933C8.50667 12.3933 7.33333 11.2933 7.33333 9.9C7.33333 8.50667 8.50667 7.40667 9.97333 7.40667C11.44 7.40667 12.6133 8.50667 12.6133 9.9C12.54 11.2933 11.3667 12.3933 9.97333 12.3933ZM36.6667 36.6667H31.46V26.5467C31.46 24.42 31.3867 23.0267 31.1667 22.3667C30.9467 21.7067 30.58 21.2667 30.14 20.9C29.6267 20.5333 29.04 20.3867 28.38 20.3867C27.5 20.3867 26.6933 20.6067 26.0333 21.12C25.3 21.6333 24.86 22.2933 24.5667 23.1C24.2733 23.9067 24.2 25.4467 24.2 27.6467V36.6667H17.8933V16.4267H23.1V19.4333C24.86 17.16 27.1333 15.9867 29.8467 15.9867C31.02 15.9867 32.12 16.2067 33.1467 16.6467C34.1 17.0867 34.9067 17.6 35.42 18.26C35.9333 18.92 36.3 19.6533 36.4467 20.5333C36.6667 21.34 36.74 22.5867 36.74 24.1267L36.6667 36.6667Z" fill="#0077B5"/>
</svg>
