<svg width="44" height="44" viewBox="0 0 44 44" fill="none" xmlns="http://www.w3.org/2000/svg">
<path d="M22 44C34.1503 44 44 34.1503 44 22C44 9.84974 34.1503 0 22 0C9.84973 0 0 9.84974 0 22C0 34.1503 9.84973 44 22 44Z" fill="#55ACEE"/>
<path d="M35.4865 15.927C34.6204 16.2735 33.581 16.62 32.5416 16.7932C33.581 16.1003 34.4471 15.0609 34.7936 13.8483C33.7542 14.368 32.7149 14.8877 31.5023 15.0609C30.4629 14.0215 29.2503 13.3286 27.6912 13.3286C24.7463 13.3286 22.4944 15.7538 22.4944 18.5255C22.4944 18.8719 22.4944 19.3916 22.6676 19.7381C18.3369 19.5648 14.3526 17.4861 11.7542 14.1948C11.2345 14.8877 11.0613 15.927 11.0613 16.7932C11.0613 18.6987 11.9274 20.2577 13.4865 21.1239C12.6204 21.1239 11.7542 20.7774 11.0613 20.431C11.0613 23.0294 12.9668 25.1081 15.2188 25.6278C14.6991 25.8011 14.3526 25.801 13.833 25.801C13.4865 25.801 13.14 25.8011 12.7936 25.6278C13.4865 27.7066 15.392 29.2656 17.644 29.2656C15.9117 30.6514 13.4865 31.5176 11.0613 31.5176C10.7148 31.5176 10.1952 31.5176 9.84871 31.5176C12.1007 33.0766 14.8723 33.9428 17.9904 33.9428C27.6912 33.9428 33.0613 25.9743 33.0613 18.8719C33.0613 18.6987 33.0613 18.3522 33.0613 18.179C33.9274 17.8325 34.7936 16.9664 35.4865 15.927Z" fill="#F1F2F2"/>
</svg>
