<svg width="44" height="44" viewBox="0 0 44 44" fill="none" xmlns="http://www.w3.org/2000/svg">
<path d="M18.6687 27.0276L27.0605 21.9623L18.6687 16.9348V27.0276Z" fill="url(#paint0_linear_140_458)"/>
<path d="M31.2234 0H12.7766C5.74571 0 0 5.7079 0 12.7766V31.2234C0 38.2543 5.70791 44 12.7766 44H31.2234C38.2543 44 44 38.2921 44 31.2234V12.7766C44 5.7079 38.2921 0 31.2234 0ZM35.4571 23.0584C35.4571 25.3643 35.1924 27.7079 35.1924 27.7079C35.1924 27.7079 34.9278 29.6735 34.134 30.543C33.1134 31.677 31.9794 31.677 31.4502 31.7526C27.6701 32.055 22.0378 32.055 22.0378 32.055C22.0378 32.055 15.0447 31.9794 12.89 31.7526C12.2852 31.6392 10.9622 31.677 9.94159 30.543C9.14777 29.6735 8.88316 27.7079 8.88316 27.7079C8.88316 27.7079 8.61856 25.4021 8.61856 23.0584V20.866C8.61856 18.5601 8.88316 16.2165 8.88316 16.2165C8.88316 16.2165 9.14777 14.2509 9.94159 13.3814C10.9622 12.2474 12.0962 12.2474 12.6254 12.1718C16.4055 11.8694 22.0378 11.8694 22.0378 11.8694C22.0378 11.8694 27.6701 11.8694 31.4502 12.1718C31.9794 12.2474 33.1134 12.2474 34.134 13.3814C34.9278 14.2509 35.1924 16.2165 35.1924 16.2165C35.1924 16.2165 35.4571 18.5223 35.4571 20.866V23.0584Z" fill="url(#paint1_linear_140_458)"/>
<path d="M31.2234 0H12.7766C5.74571 0 0 5.7079 0 12.7766V31.2234C0 38.2543 5.70791 44 12.7766 44H31.2234C38.2543 44 44 38.2921 44 31.2234V12.7766C44 5.7079 38.2921 0 31.2234 0ZM35.4571 23.0584C35.4571 25.3643 35.1924 27.7079 35.1924 27.7079C35.1924 27.7079 34.9278 29.6735 34.134 30.543C33.1134 31.677 31.9794 31.677 31.4502 31.7526C27.6701 32.055 22.0378 32.055 22.0378 32.055C22.0378 32.055 15.0447 31.9794 12.89 31.7526C12.2852 31.6392 10.9622 31.677 9.94159 30.543C9.14777 29.6735 8.88316 27.7079 8.88316 27.7079C8.88316 27.7079 8.61856 25.4021 8.61856 23.0584V20.866C8.61856 18.5601 8.88316 16.2165 8.88316 16.2165C8.88316 16.2165 9.14777 14.2509 9.94159 13.3814C10.9622 12.2474 12.0962 12.2474 12.6254 12.1718C16.4055 11.8694 22.0378 11.8694 22.0378 11.8694C22.0378 11.8694 27.6701 11.8694 31.4502 12.1718C31.9794 12.2474 33.1134 12.2474 34.134 13.3814C34.9278 14.2509 35.1924 16.2165 35.1924 16.2165C35.1924 16.2165 35.4571 18.5223 35.4571 20.866V23.0584Z" fill="url(#paint2_linear_140_458)"/>
<defs>
<linearGradient id="paint0_linear_140_458" x1="16.7897" y1="18.4299" x2="19.5805" y2="21.2206" gradientUnits="userSpaceOnUse">
<stop stop-color="#DD272D"/>
<stop offset="0.5153" stop-color="#CA2429"/>
<stop offset="1" stop-color="#B22025"/>
</linearGradient>
<linearGradient id="paint1_linear_140_458" x1="2.79699" y1="2.75955" x2="17.9291" y2="17.8916" gradientUnits="userSpaceOnUse">
<stop stop-color="#DD272D"/>
<stop offset="0.5153" stop-color="#CA2429"/>
<stop offset="1" stop-color="#B22025"/>
</linearGradient>
<linearGradient id="paint2_linear_140_458" x1="2.79699" y1="2.75955" x2="17.9291" y2="17.8916" gradientUnits="userSpaceOnUse">
<stop offset="1" stop-color="#DD272D"/>
</linearGradient>
</defs>
</svg>
