<svg xmlns="http://www.w3.org/2000/svg" width="40" height="40"><g fill="#FFF"><path d="M20 29.323a.781.781 0 00-.781.781v.013a.781.781 0 101.562 0v-.013a.781.781 0 00-.781-.781z"/><path d="M32.344 0H7.656C3.435 0 0 3.435 0 7.656v24.688C0 36.565 3.435 40 7.656 40H20c.431 0 .781-.35.781-.781v-6.055a.781.781 0 10-1.562 0v5.273H7.656a6.1 6.1 0 01-6.093-6.093V7.656a6.1 6.1 0 016.093-6.093h24.688a6.1 6.1 0 016.093 6.093v24.688a6.1 6.1 0 01-6.093 6.093h-5V24.65h4.53a.781.781 0 00.777-.704l.562-5.582a.781.781 0 00-.778-.86h-5.091v-2.93c0-.531.169-.729.623-.729H32.4a.78.78 0 00.781-.78V7.62a.781.781 0 00-.78-.781h-5.822c-3.3 0-5.048 1.449-5.935 2.664-1.24 1.7-1.425 3.707-1.425 4.753v3.282H15.39a.781.781 0 00-.782.78v5.548c0 .432.35.781.782.781h3.828v2.227a.781.781 0 101.562 0v-3.008a.781.781 0 00-.781-.781h-3.828V19.1H20c.431 0 .781-.35.781-.781v-4.063c0-1.76.565-5.855 5.798-5.855h5.04v3.88h-3.652c-1.008 0-2.186.6-2.186 2.29v3.713c0 .431.35.781.782.781h5.008l-.404 4.02h-4.605a.781.781 0 00-.78.781V39.22a.78.78 0 00.78.781h5.782C36.565 40 40 36.565 40 32.344V7.656C40 3.435 36.565 0 32.344 0z"/></g></svg>