<svg xmlns="http://www.w3.org/2000/svg" width="40" height="40"><g fill="#FFF"><path d="M28.281 0H11.72C5.257 0 0 5.257 0 11.719V28.28C0 34.743 5.257 40 11.719 40H28.28C34.743 40 40 34.743 40 28.281V11.72C40 5.257 34.743 0 28.281 0zm10.157 28.281c0 5.6-4.557 10.157-10.157 10.157H11.72c-5.6 0-10.156-4.557-10.156-10.157V11.72c0-5.6 4.556-10.156 10.156-10.156h16.56c5.6 0 10.157 4.556 10.157 10.156v16.56z"/><path d="M20.552 35.229A.787.787 0 0020 35a.787.787 0 00-.552.229.787.787 0 00-.23.552.787.787 0 00.781.781.787.787 0 00.553-.228.787.787 0 00.23-.553.787.787 0 00-.23-.552zm-6.815-23.064a.781.781 0 00-1.105-.036l-.034.032a.781.781 0 101.072 1.137l.03-.029a.781.781 0 00.037-1.104z"/><path d="M20 9.219c-1.716 0-3.424.413-4.939 1.195a.781.781 0 00.717 1.389A9.116 9.116 0 0120 10.78c5.083 0 9.219 4.136 9.219 9.219 0 5.083-4.136 9.219-9.219 9.219-5.083 0-9.219-4.136-9.219-9.219 0-1.595.414-3.167 1.197-4.545a.781.781 0 00-1.36-.772A10.785 10.785 0 009.219 20c0 5.945 4.837 10.781 10.782 10.781S30.781 25.945 30.781 20 25.945 9.219 20 9.219z"/><path d="M20 12.969A7.04 7.04 0 0012.969 20 7.04 7.04 0 0020 27.031 7.04 7.04 0 0027.031 20 7.04 7.04 0 0020 12.969zm0 12.5A5.475 5.475 0 0114.531 20 5.475 5.475 0 0120 14.531 5.475 5.475 0 0125.469 20 5.475 5.475 0 0120 25.469zM30.254 6.777a2.972 2.972 0 00-2.969 2.97 2.972 2.972 0 002.969 2.968 2.972 2.972 0 002.969-2.969 2.972 2.972 0 00-2.97-2.969zm0 4.375c-.775 0-1.406-.63-1.406-1.406 0-.775.63-1.406 1.406-1.406.775 0 1.406.63 1.406 1.406 0 .775-.63 1.406-1.406 1.406z"/></g></svg>