<svg xmlns="http://www.w3.org/2000/svg" width="47" height="32"><g fill="#FFF"><path d="M30.303 30.107c-2.143.072-4.41.107-6.738.107-6.728 0-12.681-.295-15.925-.79-3.466-.528-4.843-2.108-5.263-6.036-.46-4.298-.46-11.03 0-15.328.42-3.928 1.797-5.508 5.263-6.036a39.835 39.835 0 011.965-.243.898.898 0 00.814-.98.908.908 0 00-1.002-.796A42.31 42.31 0 007.36.259C5.197.59 3.68 1.3 2.59 2.494 1.467 3.723.823 5.433.561 7.874c-.47 4.402-.47 11.298 0 15.7.262 2.442.906 4.15 2.03 5.38 1.09 1.195 2.606 1.905 4.768 2.234 3.33.509 9.39.812 16.206.812 2.348 0 4.636-.036 6.8-.108a.901.901 0 00.88-.922.903.903 0 00-.942-.863zM45.969 8.426c-.261-2.441-.906-4.15-2.028-5.38-1.092-1.195-2.607-1.905-4.77-2.234C35.842.303 29.782 0 22.966 0a207.1 207.1 0 00-6.799.108.901.901 0 00-.881.922c.017.493.437.88.943.863 2.143-.072 4.41-.107 6.737-.107 6.728 0 12.682.295 15.926.79 3.466.529 4.843 2.108 5.263 6.036.46 4.298.46 11.03 0 15.328-.42 3.928-1.797 5.508-5.263 6.037a40.96 40.96 0 01-1.966.242.898.898 0 00-.813.98.905.905 0 001.002.796 41.917 41.917 0 002.058-.254c2.162-.33 3.677-1.04 4.769-2.235 1.122-1.229 1.767-2.939 2.028-5.38.47-4.402.47-11.298 0-15.7z"/><path d="M29.95 14.812L19.262 8.13a.855.855 0 00-.875-.02.876.876 0 00-.442.764v13.363c0 .317.17.61.442.764a.858.858 0 00.875-.02l10.688-6.682a.877.877 0 000-1.487zM19.672 20.67V10.441l8.18 5.115-8.18 5.114zM12.623 1.778c.02 0 .04 0 .06-.002a.888.888 0 00-.118-1.774.888.888 0 00.058 1.776zm21.225 27.557a.888.888 0 00.118 1.774.888.888 0 00.826-.946.887.887 0 00-.944-.828z"/></g></svg>