<svg width="128" height="39" viewBox="0 0 128 39" fill="none" xmlns="http://www.w3.org/2000/svg">
<g clip-path="url(#clip0_139_825)">
<path d="M122.698 0.84013C123.782 0.841242 124.82 1.26812 125.586 2.02711C126.352 2.7861 126.783 3.81522 126.784 4.88871V33.5758C126.783 34.6493 126.352 35.6784 125.586 36.4374C124.82 37.1964 123.782 37.6233 122.698 37.6244H4.93312C3.85003 37.6231 2.81169 37.1961 2.04583 36.4371C1.27996 35.6781 0.849108 34.6491 0.847762 33.5758V4.88871C0.849108 3.81537 1.27996 2.78638 2.04583 2.02741C2.81169 1.26844 3.85003 0.841464 4.93312 0.84013H122.698ZM122.698 0H4.93312C3.62478 0 2.37002 0.51506 1.44488 1.43187C0.519739 2.34868 0 3.59214 0 4.88871V33.5758C0 34.8724 0.519739 36.1158 1.44488 37.0326C2.37002 37.9495 3.62478 38.4645 4.93312 38.4645H122.698C124.007 38.4645 125.262 37.9495 126.187 37.0327C127.112 36.1159 127.632 34.8724 127.632 33.5758V4.88871C127.632 3.59207 127.112 2.34861 126.187 1.43182C125.262 0.515033 124.007 -1.91401e-08 122.698 0Z" fill="#777777"/>
<path d="M13.4387 15.7163C11.3676 19.2768 12.6842 24.6805 14.974 27.957C16.1168 29.5944 17.274 31.0655 18.8584 31.0655H18.9492C19.6935 31.0361 20.2318 30.8092 20.7515 30.5899C21.3356 30.343 21.9384 30.0859 22.8879 30.0859C23.789 30.0859 24.3647 30.3329 24.9225 30.5715C25.4803 30.8101 26.0356 31.0503 26.8723 31.0344C28.6577 31.0016 29.7547 29.4146 30.7203 28.0149C31.4448 26.9599 32.0126 25.8072 32.4065 24.5923L32.4133 24.5713C32.4291 24.5246 32.427 24.4738 32.4072 24.4287C32.3875 24.3836 32.3516 24.3473 32.3065 24.3268L32.2921 24.3209C31.9776 24.1932 29.2198 22.9767 29.191 19.6767C29.1647 16.9924 31.2595 15.5709 31.68 15.313L31.6995 15.3004C31.7221 15.2862 31.7416 15.2675 31.7568 15.2456C31.7719 15.2237 31.7825 15.199 31.7878 15.1729C31.7931 15.1469 31.793 15.1201 31.7876 15.094C31.7822 15.068 31.7716 15.0433 31.7563 15.0215C30.31 12.9212 28.0931 12.6078 27.2004 12.57C27.0686 12.5567 26.9362 12.5503 26.8037 12.5507C25.755 12.5507 24.7504 12.943 23.9442 13.2581C23.3872 13.4757 22.9057 13.6638 22.5742 13.6638C22.2012 13.6638 21.7171 13.4731 21.1576 13.253C20.4082 12.959 19.5587 12.6246 18.6601 12.6246H18.5965C16.5025 12.6549 14.5272 13.8403 13.4387 15.7163Z" fill="#777777"/>
<path d="M27.1987 6.79162C25.933 6.84287 24.4147 7.61495 23.5067 8.66847C22.7352 9.55313 21.9807 11.0301 22.1808 12.518C22.1876 12.5624 22.2094 12.6032 22.2427 12.6337C22.2759 12.6643 22.3187 12.6827 22.3639 12.686C22.4487 12.6927 22.5335 12.6961 22.6233 12.6961C23.8611 12.6961 25.1963 12.0172 26.1085 10.9251C27.0681 9.77156 27.5497 8.29042 27.4064 6.9647C27.3995 6.9155 27.3745 6.87058 27.3361 6.83861C27.2978 6.80665 27.2488 6.78991 27.1987 6.79162Z" fill="#777777"/>
<path d="M41.7616 7.56034H44.1616C44.7443 7.5492 45.3206 7.68201 45.8385 7.9468C46.3116 8.19045 46.7064 8.56067 46.9779 9.01544C47.2453 9.48909 47.3856 10.0228 47.3856 10.5655C47.3856 11.1082 47.2453 11.6419 46.9779 12.1155C46.7066 12.5707 46.3118 12.9413 45.8385 13.185C45.3204 13.4494 44.7442 13.5822 44.1616 13.5715H41.7616V7.56034ZM44.1277 13.1766C44.6411 13.1872 45.1494 13.0738 45.6087 12.8464C46.0217 12.6399 46.3651 12.3188 46.5972 11.9223C46.8243 11.5054 46.9431 11.0392 46.9431 10.5655C46.9431 10.0918 46.8243 9.62552 46.5972 9.20867C46.3652 8.81211 46.0217 8.49101 45.6087 8.28453C45.1496 8.05645 44.6412 7.94282 44.1277 7.95352H42.2033V13.1766H44.1277Z" fill="#777777"/>
<path d="M49.3915 13.3135C49.0511 13.1221 48.7706 12.8413 48.581 12.502C48.3879 12.141 48.2869 11.7386 48.2869 11.33C48.2869 10.9214 48.3879 10.519 48.581 10.158C48.7706 9.8187 49.0511 9.53786 49.3915 9.34645C49.7463 9.1546 50.144 9.05408 50.5482 9.05408C50.9524 9.05408 51.3502 9.1546 51.705 9.34645C52.0453 9.53774 52.3255 9.81862 52.5146 10.158C52.7083 10.5188 52.8096 10.9213 52.8096 11.33C52.8096 11.7387 52.7083 12.1412 52.5146 12.502C52.3255 12.8414 52.0453 13.1223 51.705 13.3135C51.3502 13.5054 50.9524 13.6059 50.5482 13.6059C50.144 13.6059 49.7463 13.5054 49.3915 13.3135ZM51.4795 12.9775C51.7544 12.8169 51.9794 12.5843 52.1297 12.3054C52.2863 12.0025 52.368 11.667 52.368 11.3266C52.368 10.9863 52.2863 10.6508 52.1297 10.3479C51.9794 10.0689 51.7544 9.8364 51.4795 9.67578C51.1947 9.5174 50.8735 9.43423 50.5469 9.43423C50.2204 9.43423 49.8992 9.5174 49.6144 9.67578C49.3397 9.83642 49.1151 10.069 48.965 10.3479C48.8084 10.6508 48.7268 10.9863 48.7268 11.3266C48.7268 11.667 48.8084 12.0025 48.965 12.3054C49.1151 12.5843 49.3397 12.8168 49.6144 12.9775C49.8992 13.1359 50.2204 13.219 50.5469 13.219C50.8735 13.219 51.1947 13.1359 51.4795 12.9775Z" fill="#777777"/>
<path d="M60.4896 9.0885L58.7737 13.5714H58.3668L56.8408 9.68164L55.3072 13.5714H54.9079L53.1929 9.0885H53.6083L55.1148 13.0926L56.6568 9.09102H57.029L58.5635 13.0842L60.0894 9.09102L60.4896 9.0885Z" fill="#777777"/>
<path d="M65.0445 9.54382C65.3735 9.86979 65.5382 10.3391 65.5388 10.9519V13.5714H65.1047V10.9863C65.1047 10.4823 64.9764 10.0986 64.7198 9.83535C64.4633 9.5721 64.1035 9.44049 63.6406 9.44049C63.1094 9.44049 62.6906 9.59815 62.3843 9.91348C62.0779 10.2288 61.9248 10.6522 61.9248 11.1838V13.5714H61.4916V9.08847H61.9078V10.0588C62.0599 9.74858 62.3031 9.49116 62.6055 9.32035C62.9404 9.13634 63.3189 9.0444 63.7017 9.05403C64.2674 9.05403 64.715 9.21729 65.0445 9.54382Z" fill="#777777"/>
<path d="M67.3234 7.19995H67.7566V13.5715H67.3234V7.19995Z" fill="#777777"/>
<path d="M70.1955 13.3135C69.8553 13.1219 69.5749 12.8411 69.3851 12.502C69.1919 12.141 69.0909 11.7386 69.0909 11.33C69.0909 10.9214 69.1919 10.519 69.3851 10.158C69.5749 9.81888 69.8553 9.5381 70.1955 9.34645C70.5504 9.1546 70.9481 9.05408 71.3523 9.05408C71.7565 9.05408 72.1543 9.1546 72.5091 9.34645C72.8493 9.5381 73.1297 9.81888 73.3195 10.158C73.5127 10.519 73.6137 10.9214 73.6137 11.33C73.6137 11.7386 73.5127 12.141 73.3195 12.502C73.1297 12.8411 72.8493 13.1219 72.5091 13.3135C72.1543 13.5054 71.7565 13.6059 71.3523 13.6059C70.9481 13.6059 70.5504 13.5054 70.1955 13.3135ZM72.2836 12.9775C72.5585 12.8169 72.7834 12.5843 72.9338 12.3054C73.0904 12.0025 73.1721 11.667 73.1721 11.3266C73.1721 10.9863 73.0904 10.6508 72.9338 10.3479C72.7834 10.0689 72.5585 9.8364 72.2836 9.67578C71.9988 9.51725 71.6777 9.43398 71.351 9.43398C71.0244 9.43398 70.7033 9.51725 70.4185 9.67578C70.1436 9.8364 69.9186 10.0689 69.7683 10.3479C69.6117 10.6508 69.53 10.9863 69.53 11.3266C69.53 11.667 69.6117 12.0025 69.7683 12.3054C69.9186 12.5843 70.1436 12.8169 70.4185 12.9775C70.7033 13.136 71.0244 13.2193 71.351 13.2193C71.6777 13.2193 71.9988 13.136 72.2836 12.9775Z" fill="#777777"/>
<path d="M77.7558 9.48006C78.0559 9.76402 78.206 10.1807 78.206 10.7302V13.5723H77.7906V12.7734C77.6466 13.0362 77.4263 13.2502 77.1582 13.3875C76.8492 13.5409 76.5067 13.6163 76.1612 13.6068C75.6582 13.6068 75.2612 13.4892 74.9701 13.2539C74.8361 13.1421 74.7278 13.0031 74.6524 12.8464C74.577 12.6896 74.5363 12.5188 74.5331 12.3452C74.5298 12.1716 74.564 11.9993 74.6333 11.8398C74.7027 11.6804 74.8057 11.5375 74.9353 11.4208C75.2044 11.1889 75.6333 11.0729 76.2222 11.0729H77.7728V10.7125C77.7728 10.2947 77.6598 9.97713 77.4337 9.75982C77.2076 9.54251 76.8739 9.43357 76.4325 9.43301C76.138 9.43186 75.8457 9.48426 75.5703 9.5876C75.3135 9.68011 75.0767 9.82008 74.8726 10.0001L74.6564 9.69093C74.8942 9.48324 75.1711 9.3242 75.4711 9.22297C75.7909 9.11065 76.1279 9.0538 76.4672 9.05495C77.0262 9.05439 77.4557 9.1961 77.7558 9.48006ZM77.1794 12.9968C77.4505 12.8148 77.6579 12.5538 77.7728 12.25V11.4098H76.2307C75.7859 11.4098 75.4638 11.4899 75.2643 11.6501C75.1659 11.7295 75.0876 11.8307 75.0358 11.9456C74.9839 12.0604 74.96 12.1856 74.9659 12.3113C74.9605 12.4443 74.9877 12.5765 75.0449 12.6969C75.1022 12.8173 75.1879 12.9222 75.2948 13.0027C75.5146 13.1708 75.8238 13.2548 76.2222 13.2548C76.5601 13.2646 76.8933 13.1745 77.1794 12.996V12.9968Z" fill="#777777"/>
<path d="M84.02 7.19995V13.5715H83.5962V12.5146C83.4292 12.8507 83.167 13.1312 82.8416 13.322C82.5072 13.5143 82.1261 13.6125 81.7395 13.6059C81.3389 13.6113 80.944 13.5103 80.5959 13.3136C80.2589 13.1227 79.9817 12.8433 79.7948 12.5062C79.6045 12.1428 79.5051 11.7394 79.5051 11.33C79.5051 10.9206 79.6045 10.5172 79.7948 10.1539C79.9798 9.81536 80.2575 9.53551 80.5959 9.34649C80.945 9.15259 81.3394 9.0532 81.7395 9.05832C82.1215 9.05251 82.4977 9.15074 82.8272 9.34228C83.1482 9.53159 83.4104 9.80481 83.5851 10.132V7.20416L84.02 7.19995ZM82.7009 12.9784C82.9756 12.8177 83.2003 12.5852 83.3503 12.3063C83.5069 12.0033 83.5886 11.6679 83.5886 11.3275C83.5886 10.9872 83.5069 10.6517 83.3503 10.3488C83.2003 10.0698 82.9756 9.83729 82.7009 9.67665C82.4161 9.51828 82.095 9.43511 81.7684 9.43511C81.4418 9.43511 81.1207 9.51828 80.8358 9.67665C80.5612 9.83729 80.3365 10.0698 80.1865 10.3488C80.0299 10.6517 79.9482 10.9872 79.9482 11.3275C79.9482 11.6679 80.0299 12.0033 80.1865 12.3063C80.3365 12.5852 80.5612 12.8177 80.8358 12.9784C81.1207 13.1367 81.4418 13.2199 81.7684 13.2199C82.095 13.2199 82.4161 13.1367 82.7009 12.9784Z" fill="#777777"/>
<path d="M88.6861 13.3135C88.3458 13.1223 88.0656 12.8414 87.8764 12.502C87.6827 12.1412 87.5814 11.7387 87.5814 11.33C87.5814 10.9213 87.6827 10.5188 87.8764 10.158C88.0656 9.81862 88.3458 9.53774 88.6861 9.34645C89.0409 9.1546 89.4386 9.05408 89.8428 9.05408C90.247 9.05408 90.6448 9.1546 90.9996 9.34645C91.34 9.53786 91.6205 9.8187 91.81 10.158C92.0032 10.519 92.1042 10.9214 92.1042 11.33C92.1042 11.7386 92.0032 12.141 91.81 12.502C91.6205 12.8413 91.34 13.1221 90.9996 13.3135C90.6448 13.5054 90.247 13.6059 89.8428 13.6059C89.4386 13.6059 89.0409 13.5054 88.6861 13.3135ZM90.7749 12.9775C91.0496 12.8168 91.2743 12.5843 91.4243 12.3054C91.5809 12.0025 91.6626 11.667 91.6626 11.3266C91.6626 10.9863 91.5809 10.6508 91.4243 10.3479C91.2743 10.069 91.0496 9.83642 90.7749 9.67578C90.4901 9.5174 90.169 9.43423 89.8424 9.43423C89.5158 9.43423 89.1947 9.5174 88.9099 9.67578C88.635 9.8364 88.41 10.0689 88.2596 10.3479C88.103 10.6508 88.0213 10.9863 88.0213 11.3266C88.0213 11.667 88.103 12.0025 88.2596 12.3054C88.41 12.5843 88.635 12.8169 88.9099 12.9775C89.1947 13.1359 89.5158 13.219 89.8424 13.219C90.169 13.219 90.4901 13.1359 90.7749 12.9775Z" fill="#777777"/>
<path d="M97.0001 9.54392C97.3302 9.86989 97.4949 10.3392 97.4944 10.952V13.5715H97.0611V10.9864C97.0611 10.4823 96.9326 10.0987 96.6754 9.83544C96.4183 9.5722 96.0585 9.44058 95.5962 9.44058C95.0644 9.44058 94.6456 9.59825 94.3398 9.91358C94.0341 10.2289 93.8812 10.6523 93.8812 11.1839V13.5715H93.448V9.08856H93.8634V10.0589C94.0155 9.74868 94.2587 9.49125 94.5611 9.32044C94.8961 9.13663 95.2745 9.0447 95.6573 9.05413C96.2236 9.05413 96.6712 9.21739 97.0001 9.54392Z" fill="#777777"/>
<path d="M103.75 13.2875C103.632 13.3956 103.492 13.4763 103.339 13.5236C103.173 13.5792 102.999 13.6076 102.823 13.6076C102.428 13.6076 102.124 13.5001 101.913 13.285C101.701 13.0699 101.595 12.7708 101.592 12.3877V9.45986H100.758V9.0902H101.59V8.11145H102.03V9.0902H103.471V9.45986H102.03V12.3449C102.03 12.6372 102.101 12.859 102.243 13.0103C102.384 13.1615 102.594 13.2374 102.871 13.2379C103.129 13.2458 103.38 13.1556 103.573 12.9859L103.75 13.2875Z" fill="#777777"/>
<path d="M108.507 9.54392C108.836 9.86989 109.001 10.3392 109.001 10.952V13.5715H108.568V10.9864C108.568 10.4823 108.439 10.0987 108.182 9.83544C107.925 9.5722 107.565 9.44058 107.104 9.44058C106.572 9.44058 106.153 9.59825 105.847 9.91358C105.542 10.2289 105.388 10.6523 105.388 11.1839V13.5715H104.955V7.19995H105.388V10.0245C105.539 9.72035 105.781 9.47 106.081 9.30783C106.414 9.13297 106.787 9.04617 107.164 9.0558C107.73 9.05468 108.178 9.21739 108.507 9.54392Z" fill="#777777"/>
<path d="M114.616 11.4333H110.725C110.731 11.7619 110.823 12.0833 110.994 12.365C111.157 12.6331 111.392 12.8514 111.672 12.9959C111.948 13.1313 112.25 13.207 112.558 13.218C112.866 13.229 113.172 13.1751 113.458 13.0598C113.703 12.9582 113.919 12.7974 114.086 12.5918L114.34 12.8758C114.141 13.1125 113.886 13.2981 113.599 13.4168C113.252 13.5572 112.877 13.6207 112.503 13.6029C112.128 13.5851 111.761 13.4863 111.429 13.3135C111.083 13.1253 110.797 12.8459 110.602 12.5061C110.398 12.1474 110.295 11.7414 110.302 11.33C110.295 10.9207 110.392 10.5162 110.584 10.1538C110.762 9.8178 111.031 9.53701 111.359 9.3422C111.696 9.15131 112.078 9.05055 112.466 9.04981C112.854 9.04907 113.235 9.1484 113.573 9.33801C113.9 9.52994 114.167 9.80759 114.344 10.1403C114.536 10.5001 114.633 10.9021 114.626 11.309L114.616 11.4333ZM111.61 9.64214C111.356 9.78219 111.145 9.98701 110.999 10.2353C110.843 10.498 110.752 10.7937 110.735 11.0981H114.201C114.189 10.7947 114.099 10.4994 113.941 10.2395C113.788 9.98869 113.572 9.78209 113.313 9.64038C113.055 9.49868 112.763 9.42685 112.467 9.4321C112.168 9.42784 111.873 9.50018 111.61 9.64214Z" fill="#777777"/>
<path d="M48.1766 26.8589H42.9942L41.9727 29.2365H39.988L44.6507 18.9642H46.5463L51.2251 29.2365H49.2142L48.1766 26.8589ZM47.5399 25.3627L45.5858 20.8722L43.6461 25.3627H47.5399Z" fill="#777777"/>
<path d="M58.816 21.8115C59.4169 22.1382 59.9125 22.6266 60.2453 23.2204C60.5907 23.8269 60.7633 24.5271 60.7633 25.3207C60.7777 26.0554 60.5992 26.7812 60.2453 27.4269C59.9144 28.0239 59.4186 28.5149 58.816 28.8425C58.182 29.1819 57.4705 29.3538 56.75 29.3416C55.6846 29.3416 54.8408 28.9895 54.2186 28.2855V32.0863H52.3671V21.4007H54.1313V22.4281C54.4318 22.0584 54.8212 21.7695 55.2639 21.588C55.7361 21.3978 56.242 21.303 56.7517 21.3091C57.4719 21.2982 58.1828 21.4712 58.816 21.8115ZM58.2226 27.0942C58.6617 26.6461 58.8816 26.0541 58.8821 25.3182C58.8827 24.5822 58.6628 23.9905 58.2226 23.543C57.7834 23.0949 57.2233 22.8709 56.5423 22.8709C56.1226 22.8648 55.7087 22.9688 55.3427 23.1725C54.9843 23.3736 54.6904 23.6709 54.495 24.0303C54.2901 24.4306 54.1834 24.8731 54.1834 25.322C54.1834 25.7708 54.2901 26.2133 54.495 26.6137C54.6904 26.973 54.9843 27.2703 55.3427 27.4714C55.7088 27.6748 56.1227 27.7786 56.5423 27.7722C57.2239 27.77 57.7843 27.544 58.2234 27.0942H58.2226Z" fill="#777777"/>
<path d="M68.9739 21.8115C69.5749 22.1382 70.0704 22.6266 70.4033 23.2204C70.7486 23.827 70.9213 24.5271 70.9213 25.3207C70.9356 26.0554 70.7571 26.7812 70.4033 27.4269C70.0723 28.0239 69.5765 28.515 68.9739 28.8426C68.34 29.182 67.6284 29.3538 66.9079 29.3416C65.842 29.3416 64.9982 28.9896 64.3765 28.2856V32.0863H62.5242V21.4007H64.2867V22.4282C64.5872 22.0585 64.9766 21.7696 65.4193 21.588C65.8915 21.3979 66.3974 21.303 66.9071 21.3091C67.6282 21.2978 68.34 21.4708 68.9739 21.8115ZM68.3805 27.0943C68.8197 26.6462 69.0395 26.0542 69.0401 25.3182C69.0406 24.5823 68.8208 23.9905 68.3805 23.543C67.9414 23.095 67.3813 22.8709 66.7002 22.8709C66.2805 22.8648 65.8667 22.9689 65.5007 23.1725C65.1425 23.374 64.8487 23.6712 64.6529 24.0303C64.4489 24.4309 64.3426 24.8733 64.3426 25.322C64.3426 25.7707 64.4489 26.2131 64.6529 26.6137C64.8487 26.9727 65.1425 27.27 65.5007 27.4715C65.8667 27.6749 66.2806 27.7786 66.7002 27.7722C67.3818 27.77 67.9422 27.544 68.3814 27.0943H68.3805Z" fill="#777777"/>
<path d="M77.8432 29.0458C77.0983 28.8218 76.5086 28.5235 76.074 28.1511L76.7403 26.6682C77.2108 27.0256 77.7391 27.3012 78.3027 27.4832C78.8993 27.6885 79.5262 27.7939 80.1576 27.7949C80.9274 27.7949 81.5025 27.6728 81.8828 27.4286C82.2632 27.1844 82.4531 26.8615 82.4525 26.4599C82.4562 26.3231 82.4296 26.1872 82.3747 26.0617C82.3197 25.9362 82.2378 25.824 82.1346 25.7332C81.8999 25.5302 81.625 25.378 81.3276 25.2862C81.0009 25.1787 80.5567 25.0563 79.9949 24.9191C79.3442 24.7742 78.7037 24.5879 78.0772 24.3612C77.5914 24.1776 77.1589 23.8777 76.8183 23.4883C76.4673 23.0918 76.2921 22.5561 76.2927 21.8812C76.2876 21.3306 76.4501 20.7913 76.759 20.3336C77.0704 19.8688 77.5392 19.4994 78.1654 19.2255C78.7916 18.9516 79.5594 18.8147 80.4688 18.8147C81.0979 18.8144 81.7246 18.8932 82.3338 19.0491C82.8963 19.1835 83.4319 19.4107 83.9183 19.7212L83.3113 21.2032C82.8657 20.9425 82.3878 20.7403 81.8896 20.6017C81.4226 20.4683 80.9395 20.3991 80.4535 20.3958C79.6928 20.3958 79.1276 20.523 78.758 20.7772C78.3884 21.0315 78.2033 21.3676 78.2027 21.7854C78.1985 21.9212 78.2249 22.0563 78.2801 22.1807C78.3352 22.3051 78.4177 22.4157 78.5215 22.5046C78.7575 22.7042 79.0321 22.854 79.3285 22.9448C79.6541 23.0529 80.0983 23.1753 80.6612 23.3119C81.305 23.4512 81.9382 23.635 82.556 23.8622C83.0427 24.0483 83.4771 24.3477 83.8225 24.7351C84.1729 25.1272 84.3481 25.6556 84.3481 26.3204C84.3534 26.8689 84.1908 27.4061 83.8819 27.8612C83.571 28.3205 83.0997 28.6874 82.4678 28.9618C81.8359 29.2362 81.0659 29.3732 80.1576 29.3726C79.3741 29.3779 78.5941 29.2678 77.8432 29.0458Z" fill="#777777"/>
<path d="M90.8394 28.8114C90.6055 28.9956 90.336 29.1302 90.0476 29.2071C89.7271 29.2965 89.3955 29.3409 89.0625 29.339C88.1938 29.339 87.5227 29.115 87.0491 28.6669C86.5754 28.2188 86.3383 27.5632 86.3378 26.7002V22.9288H85.0322V21.4619H86.3352V19.6716H88.1867V21.4619H90.3062V22.9288H88.1867V26.6565C88.1867 27.0379 88.2806 27.3288 88.4682 27.5294C88.6558 27.7299 88.9271 27.8301 89.282 27.8301C89.6547 27.8435 90.0208 27.7296 90.3189 27.5075L90.8394 28.8114Z" fill="#777777"/>
<path d="M93.4878 28.8257C92.8615 28.4987 92.3407 28.0038 91.9847 27.3974C91.63 26.7632 91.4438 26.05 91.4438 25.3248C91.4438 24.5997 91.63 23.8865 91.9847 23.2522C92.3417 22.6467 92.8623 22.152 93.4878 21.824C94.1602 21.4865 94.9034 21.3107 95.6572 21.3107C96.411 21.3107 97.1542 21.4865 97.8266 21.824C98.4518 22.1525 98.9723 22.6471 99.3297 23.2522C99.6836 23.8868 99.8692 24.5999 99.8692 25.3248C99.8692 26.0498 99.6836 26.7629 99.3297 27.3974C98.9733 28.0034 98.4525 28.4982 97.8266 28.8257C97.1542 29.1632 96.411 29.339 95.6572 29.339C94.9034 29.339 94.1602 29.1632 93.4878 28.8257ZM97.3374 27.0942C97.7817 26.6461 98.0038 26.0541 98.0038 25.3181C98.0038 24.5822 97.7817 23.9904 97.3374 23.5429C96.8932 23.0949 96.3306 22.8708 95.6496 22.8708C94.9685 22.8708 94.4084 23.0949 93.9693 23.5429C93.5296 23.991 93.3097 24.5827 93.3097 25.3181C93.3097 26.0535 93.5296 26.6455 93.9693 27.0942C94.4084 27.5422 94.9685 27.7663 95.6496 27.7663C96.3306 27.7663 96.8932 27.5422 97.3374 27.0942Z" fill="#777777"/>
<path d="M106.222 21.3124V23.059C106.081 23.0311 105.937 23.0162 105.793 23.0145C105.072 23.0145 104.509 23.2226 104.104 23.6387C103.7 24.0548 103.497 24.6539 103.497 25.4357V29.2365H101.647V21.4006H103.408V22.5449C103.942 21.7232 104.88 21.3124 106.222 21.3124Z" fill="#777777"/>
<path d="M115.122 25.9055H108.917C109.008 26.455 109.312 26.9474 109.765 27.2774C110.224 27.6134 110.795 27.7815 111.476 27.7815C112.344 27.7815 113.06 27.4978 113.623 26.9304L114.615 28.0604C114.254 28.4855 113.79 28.8134 113.267 29.0139C112.681 29.2368 112.058 29.3463 111.431 29.3366C110.563 29.3366 109.798 29.1655 109.136 28.8232C108.497 28.5028 107.965 28.007 107.603 27.395C107.238 26.7636 107.051 26.0461 107.063 25.3182C107.052 24.5971 107.233 23.8859 107.589 23.2565C107.931 22.655 108.436 22.1603 109.047 21.8283C109.692 21.4806 110.416 21.3038 111.15 21.315C111.871 21.3021 112.583 21.4759 113.215 21.8191C113.816 22.1499 114.309 22.6436 114.637 23.2423C114.976 23.8539 115.146 24.5607 115.146 25.3627C115.152 25.4896 115.141 25.6711 115.122 25.9055ZM109.65 23.3011C109.236 23.6552 108.97 24.1493 108.903 24.6873H113.39C113.329 24.1545 113.07 23.6631 112.664 23.3086C112.26 22.9558 111.756 22.7796 111.154 22.7802C110.605 22.7647 110.07 22.9502 109.65 23.3011Z" fill="#777777"/>
</g>
<defs>
<clipPath id="clip0_139_825">
<rect width="127.632" height="38.4645" fill="white"/>
</clipPath>
</defs>
</svg>
