<svg width="128" height="39" viewBox="0 0 128 39" fill="none" xmlns="http://www.w3.org/2000/svg">
<g clip-path="url(#clip0_139_802)">
<path d="M30.711 18.7417L25.8482 15.9625L21.8485 19.7944L25.5041 23.296L30.711 20.3169C30.8503 20.2372 30.9659 20.1226 31.0463 19.9845C31.1267 19.8465 31.169 19.6899 31.169 19.5306C31.169 19.3712 31.1267 19.2146 31.0463 19.0766C30.9659 18.9386 30.8503 18.8239 30.711 18.7442V18.7417Z" fill="#FFD109"/>
<path d="M25.0233 15.4878L19.6714 12.4272L7.94434 6.47156L21.1898 19.16L25.0233 15.4878Z" fill="#06EF79"/>
<path d="M8.13855 32.9256L19.6918 26.6187L24.6784 23.7656L21.1898 20.4236L8.13855 32.9256Z" fill="#F93646"/>
<path d="M7.16189 6.98486L7.14917 32.6105L20.5311 19.7918L7.16189 6.98486Z" fill="#05D5FB"/>
<path d="M122.699 0.84013C123.782 0.841464 124.821 1.26844 125.586 2.02741C126.352 2.78637 126.783 3.81538 126.784 4.88872V33.575C126.783 34.6485 126.353 35.6777 125.587 36.4368C124.821 37.196 123.782 37.6231 122.699 37.6244H4.93312C3.84988 37.6231 2.81142 37.196 2.04554 36.4368C1.27965 35.6777 0.848884 34.6485 0.847762 33.575V4.88872C0.849108 3.81538 1.27996 2.78637 2.04583 2.02741C2.81169 1.26844 3.85003 0.841464 4.93312 0.84013H122.699ZM122.699 0H4.93312C3.62478 0 2.37002 0.51506 1.44488 1.43187C0.519739 2.34868 7.28542e-08 3.59215 7.28542e-08 4.88872V33.575C-0.000111269 34.217 0.1274 34.8528 0.375263 35.4461C0.623126 36.0393 0.986495 36.5783 1.44459 37.0324C1.90268 37.4864 2.44654 37.8466 3.04511 38.0923C3.64368 38.338 4.28522 38.4645 4.93312 38.4645H122.699C123.347 38.4645 123.989 38.338 124.587 38.0923C125.186 37.8466 125.73 37.4864 126.188 37.0324C126.646 36.5783 127.009 36.0393 127.257 35.4461C127.505 34.8528 127.632 34.217 127.632 33.575V4.88872C127.632 3.59215 127.113 2.34868 126.187 1.43187C125.262 0.51506 124.007 0 122.699 0Z" fill="#777777"/>
<path d="M41.8277 23.2347H43.608V27.2362C43.0637 27.6595 42.4456 27.9802 41.7845 28.1822C41.0923 28.4019 40.3698 28.5133 39.643 28.5124C38.6701 28.5266 37.7092 28.2971 36.8496 27.8453C36.0416 27.4199 35.367 26.7825 34.8998 26.0029C34.4347 25.1946 34.1902 24.2802 34.1902 23.3498C34.1902 22.4193 34.4347 21.5049 34.8998 20.6966C35.3695 19.9149 36.0481 19.277 36.8607 18.8534C37.7277 18.4009 38.6955 18.1716 39.6752 18.1863C40.4671 18.1772 41.2532 18.3199 41.9905 18.6064C42.6638 18.8685 43.2643 19.2862 43.7419 19.8246L42.5551 20.9722C42.1932 20.6021 41.7586 20.3093 41.2782 20.1119C40.7978 19.9146 40.2817 19.8168 39.7617 19.8246C39.0999 19.8124 38.4457 19.9655 37.8593 20.2699C37.3152 20.5559 36.8635 20.9883 36.5563 21.5175C36.2366 22.0766 36.0744 22.7106 36.0866 23.3531C36.077 23.9863 36.2393 24.6104 36.5563 25.1603C36.8658 25.6908 37.3166 26.1268 37.8593 26.4205C38.4381 26.7324 39.0886 26.8904 39.7473 26.8792C40.5385 26.8792 41.2331 26.7069 41.8311 26.3625L41.8277 23.2347Z" fill="#777777"/>
<path d="M47.2695 27.9671C46.6571 27.647 46.148 27.1625 45.8004 26.5692C45.454 25.9492 45.2722 25.2522 45.2722 24.5436C45.2722 23.835 45.454 23.138 45.8004 22.5181C46.1495 21.9276 46.6584 21.4456 47.2695 21.1268C47.9264 20.7967 48.6525 20.6246 49.3889 20.6246C50.1254 20.6246 50.8515 20.7967 51.5083 21.1268C52.1192 21.4451 52.6283 21.926 52.9783 22.5155C53.3247 23.1355 53.5065 23.8325 53.5065 24.5411C53.5065 25.2497 53.3247 25.9467 52.9783 26.5666C52.6305 27.1598 52.1214 27.6443 51.5092 27.9646C50.8524 28.2947 50.1263 28.4668 49.3898 28.4668C48.6533 28.4668 47.9272 28.2947 47.2704 27.9646L47.2695 27.9671ZM51.0319 26.2751C51.4659 25.8355 51.683 25.2572 51.683 24.5402C51.683 23.8233 51.4659 23.2448 51.0319 22.8045C50.5978 22.3649 50.0479 22.145 49.3821 22.145C48.7164 22.145 48.1687 22.3649 47.7392 22.8045C47.3097 23.2448 47.0949 23.8233 47.0949 24.5402C47.0949 25.2572 47.3094 25.8355 47.7383 26.2751C48.1684 26.7153 48.7161 26.9352 49.3813 26.9346C50.0465 26.9341 50.5967 26.7142 51.0319 26.2751Z" fill="#777777"/>
<path d="M56.6034 27.9671C55.991 27.647 55.4819 27.1625 55.1342 26.5692C54.7878 25.9492 54.6061 25.2522 54.6061 24.5436C54.6061 23.835 54.7878 23.138 55.1342 22.5181C55.4834 21.9276 55.9923 21.4456 56.6034 21.1268C57.2602 20.7967 57.9863 20.6246 58.7228 20.6246C59.4592 20.6246 60.1854 20.7967 60.8422 21.1268C61.4531 21.4451 61.9622 21.926 62.3122 22.5155C62.6586 23.1355 62.8403 23.8325 62.8403 24.5411C62.8403 25.2497 62.6586 25.9467 62.3122 26.5666C61.9643 27.1598 61.4553 27.6443 60.843 27.9646C60.1862 28.2947 59.4601 28.4668 58.7236 28.4668C57.9871 28.4668 57.261 28.2947 56.6042 27.9646L56.6034 27.9671ZM60.3657 26.2751C60.7998 25.8355 61.0168 25.2572 61.0168 24.5402C61.0168 23.8233 60.7998 23.2448 60.3657 22.8045C59.9317 22.3649 59.3818 22.145 58.716 22.145C58.0502 22.145 57.5026 22.3649 57.073 22.8045C56.6441 23.2448 56.4296 23.8233 56.4296 24.5402C56.4296 25.2572 56.6441 25.8355 57.073 26.2751C57.5031 26.7153 58.0508 26.9352 58.716 26.9346C59.3812 26.9341 59.9311 26.7142 60.3657 26.2751Z" fill="#777777"/>
<path d="M72.2463 20.7109V27.2076C72.2463 29.9039 70.8571 31.2517 68.0787 31.2512C67.3648 31.2551 66.6538 31.161 65.966 30.9714C65.3653 30.818 64.8035 30.5421 64.3163 30.1615L65.1268 28.8173C65.5073 29.1176 65.9416 29.3439 66.4069 29.4844C66.9134 29.6505 67.4434 29.7356 67.9769 29.7364C68.8247 29.7364 69.4464 29.5452 69.842 29.1626C70.2376 28.7801 70.4354 28.197 70.4354 27.4135V27.0119C70.1233 27.3469 69.7371 27.6058 69.3071 27.768C68.8406 27.9444 68.3448 28.0321 67.8455 28.0268C67.1536 28.0366 66.47 27.8764 65.8558 27.5605C65.2742 27.2605 64.7881 26.8061 64.4519 26.2482C64.1154 25.6588 63.9385 24.9931 63.9385 24.3159C63.9385 23.6387 64.1154 22.973 64.4519 22.3836C64.7893 21.8301 65.2762 21.3811 65.8575 21.0873C66.4731 20.7759 67.1561 20.6181 67.8472 20.6277C68.3688 20.6213 68.8868 20.714 69.3732 20.9008C69.8221 21.0759 70.2182 21.3623 70.5236 21.7325V20.7109H72.2463ZM69.8081 25.8953C70.2467 25.4887 70.466 24.9603 70.466 24.31C70.466 23.6698 70.2467 23.149 69.8081 22.7474C69.3695 22.3458 68.8066 22.145 68.1194 22.145C67.4248 22.145 66.8579 22.3458 66.4187 22.7474C65.9796 23.149 65.7603 23.6698 65.7609 24.31C65.7609 24.9603 65.9802 25.4887 66.4187 25.8953C66.8573 26.302 67.4242 26.505 68.1194 26.5044C68.806 26.5044 69.3689 26.3014 69.8081 25.8953Z" fill="#777777"/>
<path d="M74.6191 17.7268H76.4274V28.3687H74.6183L74.6191 17.7268Z" fill="#777777"/>
<path d="M86.0368 25.1132H79.9736C80.062 25.6521 80.3607 26.1349 80.8052 26.4574C81.2574 26.7873 81.8146 26.9522 82.477 26.9522C83.3248 26.9522 84.0242 26.675 84.5752 26.1205L85.5451 27.2202C85.1916 27.6361 84.7383 27.957 84.2268 28.1536C83.6548 28.3719 83.0458 28.4792 82.4329 28.4695C81.5852 28.4695 80.8374 28.3015 80.1897 27.9654C79.5653 27.6517 79.0453 27.1663 78.6918 26.5675C78.3345 25.9506 78.1521 25.2496 78.1636 24.5385C78.1529 23.8334 78.3302 23.1379 78.6773 22.5222C79.0114 21.9333 79.5054 21.4489 80.1033 21.1243C80.7326 20.7833 81.4403 20.6097 82.1574 20.6202C82.8625 20.6086 83.5584 20.7792 84.1768 21.115C84.7637 21.4388 85.2456 21.9213 85.5663 22.5063C85.8986 23.1033 86.0647 23.7942 86.0647 24.5789C86.0653 24.706 86.056 24.8841 86.0368 25.1132ZM80.6899 22.5676C80.2854 22.9144 80.025 23.3975 79.9592 23.9236H84.3438C84.2832 23.4041 84.0308 22.9253 83.6351 22.5794C83.2394 22.2349 82.7472 22.0627 82.1583 22.0627C81.6229 22.047 81.1004 22.2267 80.6899 22.5676Z" fill="#777777"/>
<path d="M98.4311 18.7601C99.0434 19.0147 99.565 19.4448 99.9291 19.9951C100.277 20.5311 100.45 21.1671 100.45 21.903C100.45 22.6311 100.277 23.2643 99.9291 23.8026C99.567 24.356 99.0449 24.7884 98.4311 25.0434C97.78 25.3296 97.0156 25.473 96.1379 25.4736H93.849V28.3704H91.9678V18.33H96.1354C97.0131 18.33 97.7783 18.4733 98.4311 18.7601ZM97.9174 23.3808C98.3424 23.0364 98.5546 22.544 98.554 21.9039C98.5535 21.2637 98.3412 20.7711 97.9174 20.4261C97.4935 20.0822 96.8718 19.9102 96.0523 19.9102H93.8532V23.8967H96.0523C96.8724 23.895 97.494 23.7222 97.9174 23.3783V23.3808Z" fill="#777777"/>
<path d="M102.303 17.7268H104.111V28.3687H102.303V17.7268Z" fill="#777777"/>
<path d="M112.049 21.4351C112.652 21.9756 112.953 22.7905 112.953 23.8799V28.3687H111.246V27.437C111.013 27.7797 110.683 28.0466 110.298 28.204C109.827 28.3921 109.322 28.4824 108.814 28.4695C108.293 28.4807 107.775 28.3804 107.295 28.1755C106.889 28.0024 106.54 27.7191 106.289 27.358C106.052 27.0085 105.929 26.5959 105.935 26.1751C105.935 25.4862 106.193 24.934 106.709 24.5184C107.225 24.1028 108.037 23.8947 109.147 23.8942H111.144V23.7799C111.144 23.2445 110.982 22.8334 110.659 22.5466C110.336 22.2598 109.856 22.1164 109.218 22.1164C108.783 22.1163 108.351 22.1841 107.937 22.3172C107.549 22.434 107.188 22.6237 106.873 22.8759L106.164 21.5712C106.603 21.2491 107.098 21.0109 107.625 20.8688C108.213 20.7033 108.823 20.621 109.434 20.6244C110.575 20.6244 111.446 20.8946 112.049 21.4351ZM110.399 26.8556C110.744 26.6578 111.008 26.3458 111.144 25.9743V25.0846H109.279C108.237 25.0846 107.717 25.424 107.717 26.1029C107.712 26.2538 107.745 26.4036 107.813 26.5388C107.881 26.6739 107.982 26.7903 108.107 26.8775C108.368 27.069 108.729 27.1639 109.193 27.1639C109.615 27.1714 110.032 27.0649 110.399 26.8556Z" fill="#777777"/>
<path d="M122.359 20.7109L118.742 28.9845C118.403 29.8163 117.993 30.4018 117.512 30.7412C117.031 31.0807 116.448 31.2512 115.764 31.2529C115.375 31.2525 114.988 31.1895 114.62 31.0664C114.278 30.9616 113.962 30.7858 113.694 30.5505L114.417 29.2307C114.596 29.3969 114.805 29.5282 115.033 29.618C115.26 29.7119 115.503 29.7607 115.748 29.7617C116.032 29.7726 116.311 29.6866 116.538 29.518C116.744 29.355 116.935 29.0826 117.109 28.7006L117.24 28.399L113.867 20.7126H115.748L118.18 26.3768L120.626 20.7126L122.359 20.7109Z" fill="#777777"/>
<path d="M37.4244 12.7573C37.028 12.7601 36.6365 12.6694 36.2825 12.4927C35.9305 12.3175 35.6166 12.0758 35.3584 11.7811C35.0963 11.4832 34.8891 11.1419 34.7463 10.7729C34.6006 10.4041 34.5261 10.0114 34.5268 9.61523C34.5239 8.8134 34.8184 8.03847 35.3542 7.43761C35.6107 7.1511 35.9234 6.91928 36.2732 6.75627C36.6336 6.59004 37.0269 6.50565 37.4244 6.50927C38.0257 6.50927 38.522 6.63361 38.9131 6.88228C39.2929 7.11891 39.599 7.45542 39.7973 7.85432L39.1928 8.27438C39.0332 7.93893 38.773 7.66049 38.4477 7.4771C38.1291 7.30278 37.7705 7.21306 37.4066 7.21666C37.1084 7.21293 36.8139 7.28158 36.5487 7.41661C36.2922 7.54903 36.0668 7.73369 35.8874 7.95849C35.7004 8.19033 35.5568 8.45353 35.4635 8.73561C35.3673 9.02656 35.3187 9.3309 35.3194 9.63707C35.3173 9.95497 35.3721 10.2707 35.4813 10.5696C35.5839 10.8534 35.7398 11.1154 35.9408 11.3417C36.1336 11.5608 36.3689 11.7394 36.6326 11.8668C36.8965 11.9944 37.1867 12.0597 37.4804 12.0575C37.8374 12.0579 38.1882 11.9652 38.4977 11.7886C38.8545 11.578 39.1643 11.2976 39.4082 10.9645V11.7718C38.8503 12.4283 38.1891 12.7568 37.4244 12.7573ZM39.3158 10.2327H37.9763V9.64463H39.9804V12.7153H39.3158V10.2327Z" fill="#777777"/>
<path d="M45.3994 12.0197V12.7137H41.1801V6.55298H45.3205V7.24693H41.9676V9.2414H44.8831V9.89166H41.9676V12.0172L45.3994 12.0197Z" fill="#777777"/>
<path d="M50.9581 7.24861H48.8133V12.7137H48.0274V7.24861H45.8826V6.55298H50.9598L50.9581 7.24861Z" fill="#777777"/>
<path d="M53.8032 12.7137V6.55298H54.5908V12.712L53.8032 12.7137Z" fill="#777777"/>
<path d="M56.8671 7.99464V12.7137H56.0812V6.55298H56.7458L60.5455 11.3678V6.56306H61.3331V12.7137H60.615L56.8671 7.99464Z" fill="#777777"/>
<path d="M67.5556 12.7574C67.145 12.7622 66.7389 12.6731 66.3687 12.4969C66.0157 12.3257 65.7016 12.085 65.4455 11.7895C64.9247 11.1897 64.6375 10.4251 64.6359 9.63377C64.6344 9.23126 64.7101 8.83212 64.8589 8.45759C65.0038 8.09086 65.2143 7.75305 65.4803 7.46035C65.7423 7.17074 66.0591 6.93495 66.4128 6.7664C66.7764 6.59559 67.1745 6.50938 67.5768 6.51436C67.9883 6.50944 68.3951 6.60159 68.7637 6.78321C69.1155 6.95986 69.428 7.20469 69.6826 7.5032C69.9378 7.80271 70.1386 8.14382 70.276 8.51136C70.4878 9.06681 70.5415 9.66925 70.4311 10.2529C70.3208 10.8365 70.0507 11.3788 69.6504 11.8206C69.389 12.1098 69.072 12.3443 68.7179 12.5104C68.3541 12.6781 67.9568 12.7625 67.5556 12.7574ZM65.4277 9.63377C65.4273 9.94232 65.4792 10.2487 65.5812 10.5403C65.678 10.8227 65.8247 11.0858 66.0143 11.3174C66.1991 11.5408 66.4286 11.7239 66.6883 11.8551C66.96 11.9899 67.2603 12.0582 67.5641 12.0542C67.875 12.0595 68.1824 11.9879 68.4585 11.8458C68.7182 11.7088 68.9462 11.5197 69.1282 11.2905C69.3146 11.0567 69.4581 10.7922 69.5521 10.5092C69.6469 10.2266 69.6956 9.93076 69.6962 9.63293C69.6972 9.32598 69.6453 9.02112 69.5427 8.73147C69.4449 8.44864 69.2967 8.18544 69.1053 7.95435C68.9198 7.72997 68.6887 7.54678 68.4271 7.41667C68.1594 7.2847 67.8638 7.21788 67.5649 7.22176C67.2551 7.2167 66.9487 7.28648 66.6722 7.42507C66.4105 7.56054 66.1812 7.75022 65.9999 7.98123C65.8156 8.2145 65.6722 8.47695 65.5761 8.75751C65.4781 9.03946 65.4279 9.33556 65.4277 9.63377Z" fill="#777777"/>
<path d="M72.3701 7.99464V12.7137H71.5817V6.55298H72.2471L76.0468 11.3678V6.56306H76.8344V12.7137H76.1163L72.3701 7.99464Z" fill="#777777"/>
</g>
<defs>
<clipPath id="clip0_139_802">
<rect width="127.632" height="38.4645" fill="white"/>
</clipPath>
</defs>
</svg>
