<svg width="98" height="104" viewBox="0 0 98 104" fill="none" xmlns="http://www.w3.org/2000/svg">
<path d="M11 103.937H86.3846C89.2408 103.937 91.98 102.689 93.9996 100.468C96.0193 98.2461 97.1539 95.233 97.1539 92.0912V50.3953C97.1472 47.2601 96.0257 44.2522 94.029 42.0149C94.0971 40.3765 93.8544 38.7405 93.3164 37.2109C92.7785 35.6813 91.9569 34.2916 90.9041 33.1303L84.7705 26.4331L78.5466 14.5869C77.6 12.782 76.2371 11.2838 74.5956 10.2438C72.9541 9.20381 71.0921 8.65881 69.1978 8.66387H68.6361L64.2457 3.77768C63.2457 2.67757 62.0585 1.8049 60.7518 1.20952C59.4452 0.614139 58.0447 0.307693 56.6304 0.307693C55.2161 0.307693 53.8157 0.614139 52.509 1.20952C51.2024 1.8049 50.0152 2.67757 49.0151 3.77768L17.5468 38.5207H11C9.26783 38.5268 7.56262 38.9929 6.02937 39.8795C4.49612 40.766 3.1802 42.0468 2.19352 43.6129C1.997 43.8792 1.82607 44.1672 1.68346 44.4722C0.738735 46.2738 0.237994 48.3155 0.230774 50.3953V92.1196C0.237613 95.2565 1.37525 98.2623 3.39414 100.478C5.41302 102.693 8.14829 103.937 11 103.937ZM91.7951 92.0912C91.7951 93.6621 91.2278 95.1686 90.2179 96.2794C89.2081 97.3902 87.8385 98.0143 86.4104 98.0143H11C10.2926 98.0152 9.59208 97.8626 8.93841 97.5653C8.28473 97.268 7.6908 96.8317 7.19063 96.2815C6.69045 95.7313 6.29384 95.078 6.02354 94.3589C5.75324 93.6399 5.61454 92.8693 5.61539 92.0912V50.3953C5.6153 49.3553 5.86475 48.3337 6.33852 47.4337L6.49993 47.1355C6.57171 47.0419 6.63648 46.9422 6.69361 46.8372C7.16979 46.0997 7.79337 45.4921 8.51642 45.0612C9.23947 44.6303 10.0427 44.3875 10.8644 44.3515H86.7849C87.6353 44.4077 88.4601 44.6931 89.1867 45.1824C89.584 45.4504 89.9522 45.7673 90.2843 46.127C90.7757 46.694 91.1599 47.3625 91.4148 48.0939C91.6697 48.8254 91.7902 49.6052 91.7693 50.3882L91.7951 92.0912ZM80.0574 32.8604L81.4261 38.542H40.1053L40.9963 38.2722L73.4913 28.5921C73.9586 28.4696 74.4377 28.41 74.9181 28.4146C75.2145 28.3863 75.5126 28.3863 75.8091 28.4146C76.8273 28.6298 77.7674 29.1638 78.5165 29.9524C79.2655 30.7411 79.7916 31.7508 80.0316 32.8604H80.0574ZM73.9174 17.4917L76.6097 22.6122C75.1012 22.3888 73.5679 22.4804 72.0902 22.8821L39.563 32.5337L66.4861 15.2971C67.7369 14.5287 69.2111 14.328 70.5945 14.738C71.9779 15.1479 73.161 16.136 73.8916 17.4917H73.9174ZM52.8631 7.95367C53.8729 6.85208 55.2374 6.23398 56.6595 6.23398C58.0816 6.23398 59.4461 6.85208 60.4558 7.95367L62.9867 10.7093L33.0743 29.8847L52.8631 7.95367Z" fill="#6236FF"/>
<path d="M84.4155 59.8765C82.2571 58.3239 80.5407 56.1331 79.4634 53.5557C79.124 52.6908 78.5655 51.9517 77.8545 51.4265C77.1435 50.9014 76.3102 50.6124 75.454 50.5941H21.9307C21.0743 50.6115 20.2406 50.9002 19.5295 51.4254C18.8184 51.9507 18.26 52.6903 17.9213 53.5557C16.8623 56.184 15.1418 58.4241 12.9628 60.0114C12.3837 60.4292 11.9051 60.9949 11.5679 61.6603C11.2306 62.3256 11.0446 63.0708 11.0258 63.8323V78.64C11.0287 79.4246 11.2069 80.1963 11.5446 80.8874C11.8824 81.5784 12.3694 82.1675 12.9628 82.6029C15.1517 84.1934 16.8741 86.4483 17.9213 89.0941C18.2587 89.9606 18.8167 90.7012 19.5281 91.2267C20.2395 91.7521 21.0739 92.04 21.9307 92.0557H75.454C76.3104 92.0383 77.1441 91.7497 77.8552 91.2244C78.5663 90.6992 79.1247 89.9595 79.4634 89.0941C80.5132 86.4692 82.2336 84.2363 84.4155 82.6668C85.0283 82.216 85.5274 81.6019 85.8661 80.8816C86.2048 80.1613 86.3721 79.3583 86.3524 78.5477V63.7542C86.3402 62.9833 86.1575 62.2274 85.82 61.5517C85.4825 60.8761 85.0004 60.3011 84.4155 59.8765ZM81 77.9085C78.3062 80.0239 76.1465 82.8591 74.7244 86.1468H22.6538C21.234 82.8596 19.0765 80.0244 16.3847 77.9085V64.4644C19.0819 62.3818 21.2419 59.5653 22.6538 56.29H74.7244C76.1389 59.5656 78.3011 62.382 81 64.4644V77.9085Z" fill="#6236FF"/>
</svg>
