<svg width="110" height="98" viewBox="0 0 110 98" fill="none" xmlns="http://www.w3.org/2000/svg">
<path d="M105.709 34.6089C105.012 33.9391 104.25 33.3403 103.435 32.8214C101.715 31.8048 99.7645 31.2423 97.7673 31.1865H71.8635C70.7246 34.4661 68.6698 37.3507 65.9423 39.4987C63.2149 41.6467 59.929 42.9681 56.4738 43.3064H52.4701C48.4878 42.843 44.7705 41.0751 41.8979 38.2783C39.8866 36.2946 38.3706 33.8651 37.4728 31.1865H12.2666C10.316 31.1859 8.39424 31.6567 6.66481 32.5588C4.93538 33.4608 3.44953 34.7674 2.33376 36.3673C2.1142 36.6409 1.92194 36.9354 1.75974 37.2465C0.700024 39.0898 0.146063 41.1803 0.153922 43.3064V85.7262C0.153922 88.9406 1.43084 92.0233 3.70377 94.2963C5.97669 96.5692 9.05944 97.8461 12.2738 97.8461H97.1061C100.32 97.8461 103.403 96.5692 105.676 94.2963C107.949 92.0233 109.226 88.9406 109.226 85.7262V43.3064C109.247 41.6958 108.947 40.0971 108.343 38.6038C107.739 37.1105 106.844 35.7524 105.709 34.6089ZM52.1068 49.3664H53.7127C49.7785 49.6026 46.091 51.3619 43.4322 54.2712C40.7734 57.1806 39.3524 61.0112 39.4706 64.9507C39.5887 68.8902 41.2367 72.6287 44.065 75.3735C46.8934 78.1183 50.6797 79.6535 54.6209 79.6535C58.5622 79.6535 62.3485 78.1183 65.1768 75.3735C68.0052 72.6287 69.6532 68.8902 69.7713 64.9507C69.8894 61.0112 68.4684 57.1806 65.8096 54.2712C63.1509 51.3619 59.4634 49.6026 55.5292 49.3664H84.0779C85.6594 52.6468 88.0593 55.4645 91.0461 57.5481V71.2157C88.0007 73.3666 85.5749 76.281 84.0125 79.6662H25.3529C23.7913 76.2805 21.3654 73.3658 18.3193 71.2157V57.5481C21.3261 55.4706 23.7462 52.6526 25.3456 49.3664H52.1068ZM63.7763 64.5163C63.7748 66.3138 63.2405 68.0706 62.2408 69.5644C61.2411 71.0583 59.821 72.2223 58.1599 72.9091C56.4988 73.596 54.6713 73.775 52.9085 73.4235C51.1457 73.0719 49.5267 72.2056 48.2562 70.934C46.9857 69.6625 46.1207 68.0428 45.7705 66.2797C45.4204 64.5167 45.6008 62.6894 46.289 61.0288C46.9772 59.3683 48.1423 57.949 49.637 56.9505C51.1317 55.9521 52.8888 55.4191 54.6863 55.4191C55.8806 55.4191 57.0633 55.6545 58.1666 56.1117C59.2699 56.569 60.2723 57.2392 61.1165 58.0841C61.9606 58.9289 62.63 59.9318 63.0864 61.0355C63.5428 62.1392 63.7772 63.322 63.7763 64.5163ZM103.166 85.7262C103.166 87.3334 102.528 88.8748 101.391 90.0112C100.255 91.1477 98.7133 91.7861 97.1061 91.7861H12.2666C11.4705 91.7871 10.6821 91.631 9.9464 91.3268C9.21074 91.0226 8.54232 90.5763 7.97941 90.0134C7.4165 89.4504 6.97016 88.782 6.66596 88.0464C6.36176 87.3107 6.20566 86.5223 6.20662 85.7262V43.3064C6.20857 42.2427 6.48915 41.198 7.02043 40.2765L7.20208 39.9422V40.0948L7.4128 39.8187C7.96451 39.041 8.69116 38.4037 9.53422 37.9582C10.3773 37.5127 11.3132 37.2714 12.2666 37.2538H33.4765C34.5962 39.2312 35.9824 41.0454 37.5964 42.6452C37.8426 42.8855 38.1047 43.1088 38.3811 43.3137H24.4446C23.4802 43.3288 22.5407 43.623 21.74 44.1607C20.9392 44.6985 20.3113 45.4567 19.9324 46.3437C18.7309 49.0092 16.7953 51.2774 14.352 52.8832C13.7106 53.3345 13.1866 53.9328 12.8238 54.6281C12.461 55.3234 12.2699 56.0954 12.2666 56.8796V71.8769C12.2676 72.677 12.4674 73.4644 12.8478 74.1682C13.2283 74.8721 13.7776 75.4705 14.4464 75.9096C16.9036 77.5135 18.8403 79.7986 20.0196 82.4855C20.4013 83.372 21.0308 84.1295 21.8325 84.6669C22.6342 85.2044 23.574 85.4991 24.5391 85.5155H84.7754C85.7392 85.4977 86.6775 85.2024 87.4778 84.665C88.2781 84.1276 88.9065 83.3709 89.2877 82.4855C90.4691 79.7999 92.4053 77.5154 94.8608 75.9096C95.5346 75.4728 96.0896 74.8758 96.4763 74.1721C96.863 73.4684 97.0694 72.6799 97.077 71.8769V56.8723C97.0697 56.0653 96.8637 55.2726 96.4771 54.5641C96.0906 53.8557 95.5355 53.2534 94.8608 52.8106C92.427 51.2212 90.4944 48.9736 89.2877 46.3292C88.908 45.4427 88.2799 44.685 87.4793 44.1474C86.6787 43.6098 85.7397 43.3152 84.7754 43.2992H70.8026C72.8107 41.5637 74.5279 39.5178 75.8889 37.2392H97.6147C98.5689 37.2765 99.4974 37.5593 100.31 38.0603C100.759 38.3362 101.175 38.6603 101.553 39.0267C102.62 40.19 103.195 41.7211 103.159 43.2992L103.166 85.7262Z" fill="#6236FF"/>
<path d="M54.6863 0.92308C49.8921 0.92308 45.2056 2.34471 41.2194 5.00822C37.2331 7.67173 34.1263 11.4575 32.2916 15.8867C30.4569 20.316 29.9769 25.1898 30.9122 29.8919C31.8475 34.594 34.1561 38.9131 37.5461 42.3031C40.9361 45.6931 45.2553 48.0017 49.9573 48.937C54.6594 49.8723 59.5332 49.3923 63.9625 47.5576C68.3917 45.723 72.1775 42.6161 74.841 38.6299C77.5045 34.6437 78.9262 29.9571 78.9262 25.1629C78.9262 21.9797 78.2992 18.8277 77.081 15.8867C75.8628 12.9458 74.0773 10.2736 71.8265 8.02276C69.5756 5.77188 66.9034 3.98639 63.9625 2.76822C61.0216 1.55005 57.8695 0.92308 54.6863 0.92308Z" fill="#F7B500"/>
<path d="M58.9661 29.4064C57.8073 30.5014 56.2734 31.1115 54.679 31.1115C53.0847 31.1115 51.5508 30.5014 50.392 29.4064C50.2525 29.2882 50.0987 29.1882 49.9343 29.1084L50.9079 28.1057C52.1504 26.8632 51.7871 25.0757 50.392 25.0757H50.0868L45.3929 25.8023C44.8764 25.9055 44.4021 26.1593 44.0297 26.5317C43.6572 26.9041 43.4034 27.3785 43.3003 27.895L42.5736 32.7124C42.4945 33.0399 42.5478 33.3855 42.7219 33.6739C42.8961 33.9623 43.177 34.1704 43.5037 34.2529C43.6161 34.2757 43.7305 34.2879 43.8452 34.2892C44.4685 34.2567 45.0548 33.9831 45.4801 33.5262L45.7562 33.2574C45.8503 33.4197 45.9624 33.5708 46.0905 33.7079C48.3616 35.9761 51.4402 37.2502 54.65 37.2502C57.8598 37.2502 60.9384 35.9761 63.2095 33.7079C63.5138 33.4495 63.7641 33.1336 63.9459 32.7782C64.1277 32.4228 64.2375 32.035 64.269 31.637C64.3005 31.2391 64.253 30.8388 64.1293 30.4593C64.0056 30.0797 63.8081 29.7283 63.5482 29.4254C63.2883 29.1224 62.9711 28.8737 62.6147 28.6937C62.2584 28.5137 61.8701 28.4059 61.472 28.3764C61.0738 28.347 60.6738 28.3965 60.2949 28.5221C59.916 28.6477 59.5656 28.847 59.264 29.1084C59.1478 29.21 59.0386 29.3193 58.937 29.4354L58.9661 29.4064Z" fill="white"/>
<path d="M65.5492 16.0657C64.9302 16.0849 64.3433 16.3457 63.9143 16.7923L63.6382 17.0685C63.5424 16.86 63.4203 16.6646 63.2749 16.4872C61.0019 14.2225 57.924 12.9509 54.7154 12.9509C51.5067 12.9509 48.4288 14.2225 46.1558 16.4872C45.6273 17.0623 45.3406 17.819 45.3554 18.6C45.3702 19.381 45.6854 20.1263 46.2354 20.6809C46.7854 21.2356 47.528 21.5571 48.3088 21.5785C49.0897 21.5999 49.8487 21.3197 50.4283 20.796C51.5871 19.7009 53.121 19.0908 54.7154 19.0908C56.3097 19.0908 57.8436 19.7009 59.0024 20.796C59.1748 20.9303 59.357 21.0518 59.5473 21.1593L58.5156 22.1838C57.273 23.4263 57.6436 25.2138 59.0314 25.2138H59.3366L64.0306 24.4872C64.5469 24.3863 65.0215 24.1342 65.3941 23.7628C65.7668 23.3915 66.0205 22.9177 66.1232 22.4018L66.8498 17.5843C66.89 17.4221 66.8978 17.2536 66.8728 17.0883C66.8478 16.9231 66.7905 16.7644 66.7041 16.6213C66.6177 16.4783 66.504 16.3536 66.3694 16.2546C66.2348 16.1555 66.082 16.0839 65.9197 16.0439C65.7958 16.0332 65.671 16.0406 65.5492 16.0657Z" fill="white"/>
</svg>
