<svg width="102" height="64" viewBox="0 0 102 64" fill="none" xmlns="http://www.w3.org/2000/svg">
<path d="M95.8432 2.23077H6.46452C4.38119 2.23077 2.69232 3.91965 2.69232 6.00298V57.9341C2.69232 60.0174 4.38119 61.7063 6.46452 61.7063H95.8432C97.9265 61.7063 99.6154 60.0174 99.6154 57.9341V6.00298C99.6154 3.91965 97.9265 2.23077 95.8432 2.23077Z" stroke="#6236FF" stroke-width="4" stroke-linecap="round" stroke-linejoin="round"/>
<path d="M31.378 39.6643H15.9584C13.5252 39.6643 11.5528 41.6367 11.5528 44.0699V48.4755C11.5528 50.9086 13.5252 52.8811 15.9584 52.8811H31.378C33.8111 52.8811 35.7836 50.9086 35.7836 48.4755V44.0699C35.7836 41.6367 33.8111 39.6643 31.378 39.6643Z" fill="#6236FF" stroke="#6236FF" stroke-width="4" stroke-linecap="round" stroke-linejoin="round"/>
<path d="M99.6154 13.2729H2.69232V22.0841H99.6154V13.2729Z" fill="#6236FF" stroke="#6236FF" stroke-width="4" stroke-linejoin="round"/>
<path d="M68.727 44.0698H88.5592" stroke="#6236FF" stroke-width="4" stroke-linecap="round" stroke-linejoin="round"/>
<path d="M68.741 52.867H84.1606" stroke="#6236FF" stroke-width="4" stroke-linecap="round" stroke-linejoin="round"/>
</svg>
