<svg width="110" height="98" viewBox="0 0 110 98" fill="none" xmlns="http://www.w3.org/2000/svg">
<path d="M105.786 33.8397C105.089 33.1699 104.327 32.5711 103.512 32.0522C101.792 31.0356 99.8414 30.4731 97.8442 30.4173H71.9404C70.8016 33.6969 68.7467 36.5815 66.0193 38.7295C63.2918 40.8775 60.0059 42.1989 56.5507 42.5372H52.5471C48.5647 42.0738 44.8475 40.3059 41.9748 37.5091C39.9635 35.5254 38.4475 33.0959 37.5498 30.4173H12.3435C10.393 30.4167 8.47118 30.8875 6.74174 31.7896C5.01231 32.6916 3.52646 33.9982 2.4107 35.5981C2.19113 35.8717 1.99887 36.1662 1.83667 36.4773C0.776957 38.3205 0.222996 40.4111 0.230854 42.5372V84.957C0.230854 88.1714 1.50777 91.2541 3.7807 93.5271C6.05363 95.8 9.13638 97.0769 12.3508 97.0769H97.183C100.397 97.0769 103.48 95.8 105.753 93.5271C108.026 91.2541 109.303 88.1714 109.303 84.957V42.5372C109.324 40.9266 109.023 39.3279 108.42 37.8346C107.816 36.3413 106.921 34.9832 105.786 33.8397ZM52.1838 48.5972H53.7896C49.8554 48.8334 46.1679 50.5927 43.5091 53.502C40.8504 56.4114 39.4294 60.242 39.5475 64.1815C39.6656 68.121 41.3136 71.8595 44.142 74.6043C46.9703 77.3491 50.7566 78.8843 54.6979 78.8843C58.6391 78.8843 62.4254 77.3491 65.2537 74.6043C68.0821 71.8595 69.7301 68.121 69.8482 64.1815C69.9664 60.242 68.5454 56.4114 65.8866 53.502C63.2278 50.5927 59.5403 48.8334 55.6061 48.5972H84.1548C85.7364 51.8776 88.1362 54.6953 91.123 56.7789V70.4465C88.0776 72.5974 85.6519 75.5118 84.0894 78.897H25.4298C23.8683 75.5113 21.4423 72.5966 18.3962 70.4465V56.7789C21.403 54.7014 23.8231 51.8834 25.4226 48.5972H52.1838ZM63.8532 63.7471C63.8518 65.5446 63.3174 67.3014 62.3177 68.7952C61.318 70.2891 59.8979 71.453 58.2368 72.1399C56.5757 72.8268 54.7482 73.0058 52.9854 72.6542C51.2227 72.3027 49.6037 71.4364 48.3331 70.1648C47.0626 68.8933 46.1976 67.2736 45.8474 65.5105C45.4973 63.7475 45.6777 61.9202 46.3659 60.2596C47.0542 58.5991 48.2192 57.1798 49.7139 56.1813C51.2086 55.1828 52.9657 54.6499 54.7633 54.6499C55.9576 54.6499 57.1402 54.8853 58.2435 55.3425C59.3468 55.7998 60.3492 56.47 61.1934 57.3149C62.0376 58.1597 62.707 59.1626 63.1634 60.2663C63.6197 61.37 63.8542 62.5528 63.8532 63.7471ZM103.243 84.957C103.243 86.5642 102.604 88.1056 101.468 89.242C100.332 90.3785 98.7902 91.0169 97.183 91.0169H12.3435C11.5474 91.0179 10.759 90.8618 10.0233 90.5576C9.28767 90.2534 8.61925 89.8071 8.05634 89.2441C7.49343 88.6812 7.0471 88.0128 6.74289 87.2772C6.43869 86.5415 6.2826 85.753 6.28355 84.957V42.5372C6.2855 41.4735 6.56608 40.4288 7.09736 39.5073L7.27901 39.173V39.3256L7.48973 39.0495C8.04144 38.2718 8.76809 37.6345 9.61116 37.189C10.4542 36.7435 11.3901 36.5022 12.3435 36.4845H33.5534C34.6731 38.462 36.0594 40.2762 37.6733 41.876C37.9195 42.1163 38.1817 42.3396 38.458 42.5445H24.5216C23.5571 42.5596 22.6177 42.8538 21.8169 43.3915C21.0161 43.9293 20.3883 44.6875 20.0093 45.5745C18.8078 48.24 16.8722 50.5082 14.4289 52.114C13.7875 52.5653 13.2635 53.1636 12.9007 53.8589C12.5379 54.5541 12.3468 55.3262 12.3435 56.1104V71.1077C12.3446 71.9078 12.5443 72.6952 12.9248 73.399C13.3052 74.1029 13.8545 74.7013 14.5234 75.1404C16.9806 76.7443 18.9172 79.0294 20.0965 81.7163C20.4782 82.6028 21.1078 83.3602 21.9095 83.8977C22.7112 84.4352 23.651 84.7298 24.616 84.7463H84.8524C85.8162 84.7285 86.7544 84.4332 87.5547 83.8958C88.355 83.3584 88.9834 82.6017 89.3646 81.7163C90.5461 79.0307 92.4822 76.7462 94.9378 75.1404C95.6115 74.7036 96.1665 74.1066 96.5532 73.4029C96.94 72.6992 97.1463 71.9106 97.1539 71.1077V56.1031C97.1466 55.2961 96.9406 54.5034 96.5541 53.7949C96.1675 53.0865 95.6124 52.4842 94.9378 52.0414C92.504 50.452 90.5713 48.2044 89.3646 45.5599C88.9849 44.6735 88.3569 43.9158 87.5563 43.3782C86.7556 42.8405 85.8166 42.546 84.8524 42.53H70.8796C72.8876 40.7945 74.6048 38.7486 75.9659 36.47H97.6916C98.6459 36.5073 99.5744 36.7901 100.387 37.2911C100.836 37.567 101.252 37.891 101.63 38.2575C102.697 39.4208 103.272 40.9519 103.236 42.53L103.243 84.957Z" fill="#6236FF"/>
<path d="M54.7632 0.153839C49.969 0.153839 45.2825 1.57547 41.2963 4.23898C37.3101 6.90249 34.2032 10.6883 32.3685 15.1175C30.5339 19.5468 30.0538 24.4206 30.9891 29.1227C31.9244 33.8247 34.2331 38.1439 37.6231 41.5339C41.0131 44.9239 45.3322 47.2325 50.0343 48.1678C54.7363 49.1031 59.6102 48.6231 64.0394 46.7884C68.4687 44.9537 72.2544 41.8469 74.9179 37.8606C77.5814 33.8744 79.0031 29.1879 79.0031 24.3937C79.0031 21.2105 78.3761 18.0584 77.1579 15.1175C75.9398 12.1766 74.1543 9.50439 71.9034 7.25352C69.6525 5.00264 66.9803 3.21715 64.0394 1.99898C61.0985 0.780813 57.9465 0.153839 54.7632 0.153839Z" fill="#F7B500"/>
<path d="M52.3474 34.534C51.8747 34.5316 51.4072 34.4362 50.9714 34.253C50.5356 34.0699 50.1402 33.8027 49.8078 33.4666L42.8974 26.6299C42.1905 25.9085 41.7869 24.9436 41.7698 23.9338C41.7527 22.9239 42.1233 21.9459 42.8054 21.201C43.1329 20.8404 43.5307 20.5507 43.9743 20.3497C44.4179 20.1486 44.898 20.0404 45.385 20.0318C45.872 20.0232 46.3555 20.1143 46.806 20.2995C47.2565 20.4848 47.6643 20.7602 48.0043 21.1089L52.3474 25.4429L61.2821 16.5082C61.6167 16.1534 62.0203 15.8707 62.4681 15.6775C62.9159 15.4843 63.3985 15.3846 63.8862 15.3846C64.3738 15.3846 64.8564 15.4843 65.3042 15.6775C65.752 15.8707 66.1556 16.1534 66.4902 16.5082C67.1772 17.2414 67.5595 18.2086 67.5595 19.2134C67.5595 20.2183 67.1772 21.1854 66.4902 21.9187L54.9883 33.4298C54.6471 33.7848 54.2366 34.0659 53.7824 34.2558C53.3281 34.4458 52.8397 34.5404 52.3474 34.534Z" fill="white"/>
</svg>
