<svg xmlns="http://www.w3.org/2000/svg" width="25" height="7" viewBox="0 0 25 7">
    <g fill="none" fill-rule="evenodd" opacity=".6">
        <path fill="#005C9C" d="M10.846 7H9l1.154-7H12l-1.154 7M6.87 0L4.983 4.814 4.76 3.778 4.094.63S4.014 0 3.155 0H.036L0 .118s.954.183 2.07.8L3.79 7H5.85L9 0H6.87M21.028 4.524l1.034-2.62.582 2.62h-1.616zM23.193 7H25l-1.575-7h-1.582c-.73 0-.909.522-.909.522L18 7h2.05l.411-1.04h2.502l.23 1.04zM17.714 1.747L18 .295S17.116 0 16.195 0c-.996 0-3.36.382-3.36 2.239 0 1.747 2.775 1.769 2.775 2.686s-2.49.753-3.311.175L12 6.618S12.896 7 14.266 7c1.369 0 3.435-.622 3.435-2.315 0-1.759-2.8-1.922-2.8-2.687 0-.764 1.954-.666 2.813-.25"/>
        <path fill="#EE9F3F" d="M4.6 3L3.956.5S3.88 0 3.05 0H.035L0 .094s1.449.227 2.838 1.078C4.167 1.986 4.6 3 4.6 3"/>
    </g>
</svg>
