<svg xmlns="http://www.w3.org/2000/svg" width="16" height="16" viewBox="0 0 16 16">
    <path fill="#6236FF" fill-rule="nonzero" d="M15.933 9.748l-2.69-4.484 2.414-.67a.468.468 0 1 0-.25-.902l-3.002.833-3.922 1.09V.468a.468.468 0 0 0-.935 0v5.407L3.386 7.03l-3.012.836a.468.468 0 0 0 .25.902l1.877-.521-2.403 4.006a.468.468 0 0 0-.067.24 3.478 3.478 0 0 0 3.475 3.475 3.478 3.478 0 0 0 3.474-3.475.468.468 0 0 0-.067-.24l-2.69-4.485 7.298-2.027-2.403 4.006a.468.468 0 0 0-.067.241 3.478 3.478 0 0 0 3.474 3.474c.928 0 1.8-.361 2.457-1.017A3.451 3.451 0 0 0 16 9.989a.467.467 0 0 0-.067-.24zM3.506 15.033a2.543 2.543 0 0 1-2.495-2.07H6a2.543 2.543 0 0 1-2.495 2.07zm2.18-3.006h-4.36l2.18-3.635 2.18 3.635zm6.84-6.14l2.18 3.634h-4.36l2.18-3.634zm0 6.64a2.543 2.543 0 0 1-2.496-2.07h4.99a2.543 2.543 0 0 1-2.495 2.07z"/>
</svg>
