<svg xmlns="http://www.w3.org/2000/svg" width="94" height="13" viewBox="0 0 94 13">
    <g fill="none" fill-rule="evenodd">
        <path fill="#F7B500" d="M6.571 11.443l-2.616 1.242a1 1 0 0 1-1.42-1.032l.372-2.872a1 1 0 0 0-.265-.816L.652 5.86a1 1 0 0 1 .543-1.67l2.847-.533a1 1 0 0 0 .694-.504L6.122.61a1 1 0 0 1 1.756 0l1.386 2.543a1 1 0 0 0 .694.504l2.847.533a1 1 0 0 1 .543 1.67l-1.99 2.104a1 1 0 0 0-.265.816l.373 2.872a1 1 0 0 1-1.42 1.032l-2.617-1.242a1 1 0 0 0-.858 0zM26.571 11.443l-2.616 1.242a1 1 0 0 1-1.42-1.032l.372-2.872a1 1 0 0 0-.265-.816l-1.99-2.104a1 1 0 0 1 .543-1.67l2.847-.533a1 1 0 0 0 .694-.504L26.122.61a1 1 0 0 1 1.756 0l1.386 2.543a1 1 0 0 0 .694.504l2.847.533a1 1 0 0 1 .543 1.67l-1.99 2.104a1 1 0 0 0-.265.816l.373 2.872a1 1 0 0 1-1.42 1.032l-2.617-1.242a1 1 0 0 0-.858 0zM46.571 11.443l-2.616 1.242a1 1 0 0 1-1.42-1.032l.372-2.872a1 1 0 0 0-.265-.816l-1.99-2.104a1 1 0 0 1 .543-1.67l2.847-.533a1 1 0 0 0 .694-.504L46.122.61a1 1 0 0 1 1.756 0l1.386 2.543a1 1 0 0 0 .694.504l2.847.533a1 1 0 0 1 .543 1.67l-1.99 2.104a1 1 0 0 0-.265.816l.373 2.872a1 1 0 0 1-1.42 1.032l-2.617-1.242a1 1 0 0 0-.858 0zM66.571 11.443l-2.616 1.242a1 1 0 0 1-1.42-1.032l.372-2.872a1 1 0 0 0-.265-.816l-1.99-2.104a1 1 0 0 1 .543-1.67l2.847-.533a1 1 0 0 0 .694-.504L66.122.61a1 1 0 0 1 1.756 0l1.386 2.543a1 1 0 0 0 .694.504l2.847.533a1 1 0 0 1 .543 1.67l-1.99 2.104a1 1 0 0 0-.265.816l.373 2.872a1 1 0 0 1-1.42 1.032l-2.617-1.242a1 1 0 0 0-.858 0z"/>
        <path fill="#D8D8D8" d="M86.571 11.443l-2.616 1.242a1 1 0 0 1-1.42-1.032l.372-2.872a1 1 0 0 0-.265-.816l-1.99-2.104a1 1 0 0 1 .543-1.67l2.847-.533a1 1 0 0 0 .694-.504L86.122.61a1 1 0 0 1 1.756 0l1.386 2.543a1 1 0 0 0 .694.504l2.847.533a1 1 0 0 1 .543 1.67l-1.99 2.104a1 1 0 0 0-.265.816l.373 2.872a1 1 0 0 1-1.42 1.032l-2.617-1.242a1 1 0 0 0-.858 0z"/>
    </g>
</svg>
