<svg xmlns="http://www.w3.org/2000/svg" width="23" height="14" viewBox="0 0 23 14">
    <g fill="none" fill-rule="evenodd" opacity=".6">
        <path fill="#FF5F00" d="M8.625 12.6h6.469V1.4H8.625z"/>
        <path fill="#EB001B" d="M8.785 7c0-2.233 1.061-4.221 2.715-5.504A7.148 7.148 0 0 0 7.107 0C3.182 0 0 3.134 0 7c0 3.865 3.182 7 7.107 7 1.658 0 3.184-.56 4.393-1.497C9.846 11.22 8.785 9.233 8.785 7"/>
        <path fill="#F79E1B" d="M23 7c0 3.865-3.182 7-7.107 7a7.141 7.141 0 0 1-4.393-1.497c1.653-1.282 2.715-3.27 2.715-5.503S13.153 2.779 11.5 1.496A7.144 7.144 0 0 1 15.893 0C19.818 0 23 3.134 23 7"/>
    </g>
</svg>
