<svg xmlns="http://www.w3.org/2000/svg" width="17" height="17" viewBox="0 0 17 17">
    <g fill="#000" fill-opacity=".5" fill-rule="evenodd" opacity=".6">
        <path d="M1.667 15.56h14.666v-1.333H1.667v1.334zm15 .667H1.333A.331.331 0 0 1 1 15.893v-2c0-.186.15-.332.333-.332h15.334c.184 0 .333.146.333.332v2c0 .188-.15.334-.333.334zM3 13.227h12v-1H3v1zm12.333.334H2.667c-.184 0-.334-.11-.334-.25v-1.5c0-.14.15-.25.334-.25h12.666c.184 0 .334.11.334.25v1.5c0 .14-.15.25-.334.25zM3.667 10.227H5V4.893H3.667v5.334zm1.666.666h-2A.332.332 0 0 1 3 10.561v-6c0-.187.15-.334.333-.334h2c.184 0 .334.147.334.334v6c0 .186-.15.332-.334.332zM13 10.227h1.333V4.893H13v5.334zm1.667.666h-2a.332.332 0 0 1-.334-.332v-6c0-.187.15-.334.334-.334h2c.184 0 .333.147.333.334v6c0 .186-.15.332-.333.332zM3.107 2.893h11.387L8.801.913l-5.694 1.98zm13.374.668H1.134a.336.336 0 0 1-.329-.281.33.33 0 0 1 .22-.367L8.69.247a.316.316 0 0 1 .219 0L16.537 2.9a.332.332 0 0 1-.057.66zM9.055 9.9c-.75 0-1.254-.48-1.254-1.2 0-.186.148-.333.333-.333.184 0 .333.147.333.334 0 .466.368.533.588.533.22 0 .587-.067.587-.533 0-.314-.068-.374-.605-.668l-.292-.166C8.217 7.573 7.8 7.34 7.8 6.613c0-.712.516-1.206 1.254-1.206.742 0 1.241.486 1.241 1.206 0 .187-.15.334-.333.334a.331.331 0 0 1-.334-.334c0-.473-.36-.54-.574-.54-.177 0-.588.054-.588.54 0 .314.068.374.602.674l.293.16c.529.293.947.526.947 1.254 0 .706-.516 1.2-1.254 1.2M9.147 5.253a.31.31 0 0 1-.234-.1.315.315 0 0 1-.1-.233c0-.087.034-.173.1-.233a.335.335 0 0 1 .467 0c.067.06.1.146.1.233a.33.33 0 0 1-.333.333"/>
        <path d="M9 4.893h.667v.667H9zM9.147 10.56a.313.313 0 0 1-.234-.1.316.316 0 0 1-.1-.233.334.334 0 0 1 .667 0 .334.334 0 0 1-.333.334"/>
        <path d="M9 9.56h.667v.667H9z"/>
    </g>
</svg>
