<svg xmlns="http://www.w3.org/2000/svg" width="22" height="14" viewBox="0 0 22 14">
    <g fill="#0B0B0A" fill-rule="evenodd" opacity=".3">
        <path d="M.778 12.717c1.166.14 2.314.202 3.5.202 1.778 0 3.424-.148 5.017-.296 1.611-.147 3.276-.303 5.09-.303 1.187 0 2.337.062 3.504.203V3.967a30.804 30.804 0 0 0-3.5-.203c-1.778 0-3.425.156-5.018.304-1.61.148-3.275.295-5.087.295-1.188 0-2.34-.062-3.506-.194v8.548zm3.5.98c-1.335 0-2.623-.078-3.939-.248a.387.387 0 0 1-.339-.39V3.727a.38.38 0 0 1 .132-.288.366.366 0 0 1 .307-.094c1.284.165 2.542.242 3.845.242 1.776 0 3.423-.148 5.016-.296 1.61-.147 3.274-.303 5.088-.303 1.335 0 2.624.085 3.94.249.193.031.339.195.339.388v9.334a.408.408 0 0 1-.133.295.433.433 0 0 1-.306.094 28.672 28.672 0 0 0-3.844-.25c-1.778 0-3.424.156-5.017.304-1.61.148-3.275.296-5.09.296z"/>
        <path d="M19.833 12.32a.387.387 0 0 1-.389-.389V2.59c-3.276-.381-5.784-.109-8.432.18-2.696.294-5.485.598-9.116.139a.385.385 0 0 1-.337-.435.393.393 0 0 1 .434-.335c3.54.443 6.283.148 8.934-.14 2.665-.296 5.42-.59 8.956-.14.194.023.34.195.34.39v9.682a.387.387 0 0 1-.39.389"/>
        <path d="M21.389 10.764a.387.387 0 0 1-.389-.388V1.05c-3.277-.388-5.784-.116-8.433.171-2.695.296-5.483.599-9.115.14a.385.385 0 0 1-.338-.435.385.385 0 0 1 .435-.334c3.541.442 6.283.147 8.934-.14 2.665-.289 5.42-.592 8.956-.133.193.023.339.187.339.381v9.676a.387.387 0 0 1-.39.388M4.09 12.15c-.805 0-1.593-.04-2.41-.101a.387.387 0 0 1-.356-.42c.018-.211.2-.374.419-.359.796.07 1.563.101 2.347.101.214 0 .388.171.388.39 0 .21-.174.389-.388.389"/>
        <path d="M16.49 5.413h-.031a29.639 29.639 0 0 0-2.35-.093.387.387 0 0 1-.388-.389c0-.217.174-.389.389-.389.812 0 1.6.031 2.41.102a.383.383 0 0 1 .357.412.384.384 0 0 1-.387.357M8.744 10.064c-.753 0-1.278-.466-1.278-1.135 0-.21.174-.389.389-.389.214 0 .389.179.389.389 0 .311.313.358.5.358.186 0 .5-.047.5-.358 0-.179 0-.202-.531-.467l-.283-.14c-.517-.256-.964-.474-.964-1.166 0-.67.525-1.136 1.278-1.136.745 0 1.265.467 1.265 1.136 0 .217-.173.39-.389.39a.388.388 0 0 1-.389-.39c0-.296-.265-.357-.487-.357-.187 0-.5.045-.5.357 0 .178 0 .21.53.466l.282.14c.518.258.966.475.966 1.167 0 .669-.526 1.135-1.278 1.135"/>
        <path d="M8.711 6.098a.4.4 0 0 1-.272-.11.407.407 0 0 1-.117-.28c0-.1.04-.201.117-.271a.4.4 0 0 1 .552 0c.07.07.109.17.109.272a.401.401 0 0 1-.109.272.392.392 0 0 1-.28.117"/>
        <path d="M8.556 5.709h.777v.778h-.777zM8.711 10.764a.385.385 0 0 1-.389-.388c0-.102.04-.203.11-.273a.407.407 0 0 1 .551-.007.395.395 0 0 1 .008.552.392.392 0 0 1-.28.116"/>
        <path d="M8.556 9.598h.777v.778h-.777z"/>
    </g>
</svg>
